M48
; DRILL file {KiCad 9.0.6} date 2026-01-07T21:10:15+0330
; FORMAT={-:-/ absolute / metric / decimal}
; #@! TF.CreationDate,2026-01-07T21:10:15+03:30
; #@! TF.GenerationSoftware,Kicad,Pcbnew,9.0.6
; #@! TF.FileFunction,Plated,1,2,PTH
FMAT,2
METRIC
; #@! TA.AperFunction,Plated,PTH,ViaDrill
T1C0.300
; #@! TA.AperFunction,Plated,PTH,ComponentDrill
T2C0.762
; #@! TA.AperFunction,Plated,PTH,ComponentDrill
T3C0.800
; #@! TA.AperFunction,Plated,PTH,ComponentDrill
T4C1.000
; #@! TA.AperFunction,Plated,PTH,ComponentDrill
T5C1.100
; #@! TA.AperFunction,Plated,PTH,ComponentDrill
T6C1.500
; #@! TA.AperFunction,Plated,PTH,ComponentDrill
T7C3.200
%
G90
G05
T1
X43.0Y-63.5
X45.5Y-48.0
X46.0Y-63.5
X47.0Y-34.0
X48.5Y-62.899
X48.732Y-72.733
X49.5Y-34.5
X49.5Y-36.0
X49.5Y-63.5
X49.5Y-97.0
X51.1Y-36.0
X52.0Y-38.9
X54.0Y-63.5
X58.5Y-92.0
X58.5Y-96.0
T3
X15.5Y-44.5
X16.0Y-36.512
X16.0Y-41.512
X17.0Y-30.63
X17.0Y-33.17
X17.5Y-69.775
X17.5Y-72.315
X17.5Y-74.855
X19.5Y-38.972
X19.5Y-41.512
X20.0Y-27.0
X20.5Y-44.5
X22.0Y-21.455
X22.0Y-23.995
X22.96Y-37.5
X22.96Y-41.5
X23.69Y-68.695
X23.69Y-76.315
X25.0Y-27.0
X25.05Y-20.955
X25.05Y-23.495
X25.5Y-37.5
X25.5Y-41.5
X26.23Y-68.695
X26.23Y-76.315
X27.5Y-85.5
X27.5Y-90.5
X28.77Y-68.695
X28.77Y-76.315
X28.955Y-79.0
X29.695Y-26.195
X29.695Y-28.735
X29.695Y-31.74
X29.695Y-34.28
X31.0Y-54.0
X31.0Y-57.5
X31.31Y-68.695
X31.31Y-76.315
X31.495Y-79.0
X32.6Y-86.0
X33.195Y-20.0
X33.195Y-23.19
X33.195Y-26.69
X33.195Y-29.23
X33.195Y-31.77
X33.195Y-34.31
X33.46Y-61.0
X33.46Y-64.55
X33.645Y-14.455
X33.645Y-16.995
X34.5Y-71.315
X34.5Y-76.315
X34.5Y-86.0
X36.0Y-54.0
X36.0Y-57.5
X36.0Y-61.0
X36.0Y-64.55
X36.4Y-86.0
X37.5Y-73.315
X37.5Y-76.315
X37.745Y-14.455
X37.745Y-16.995
X38.195Y-20.0
X38.195Y-23.19
X40.04Y-76.315
X40.51Y-43.0
X40.51Y-45.54
X40.51Y-48.08
X40.51Y-50.62
X40.51Y-53.16
X40.51Y-55.7
X40.51Y-58.24
X40.815Y-26.69
X40.815Y-29.23
X40.815Y-31.77
X40.815Y-34.31
X41.92Y-61.38
X41.92Y-66.38
X42.5Y-73.315
X43.13Y-39.5
X45.38Y-61.38
X45.38Y-69.0
X45.5Y-79.5
X46.0Y-25.5
X46.0Y-30.5
X47.5Y-89.5
X47.92Y-61.38
X47.92Y-69.0
X48.04Y-79.5
X48.13Y-39.5
X48.13Y-43.0
X48.13Y-45.54
X48.13Y-48.08
X48.13Y-50.62
X48.13Y-53.16
X48.13Y-55.7
X48.13Y-58.24
X50.46Y-61.38
X50.46Y-69.0
X51.0Y-43.0
X51.0Y-45.54
X51.0Y-48.08
X51.0Y-50.62
X51.0Y-53.16
X51.0Y-55.7
X51.0Y-58.24
X52.23Y-22.46
X52.23Y-25.0
X52.5Y-89.5
X53.0Y-61.38
X53.0Y-69.0
X54.0Y-39.5
X54.886Y-72.0
X55.23Y-22.46
X55.23Y-25.0
X55.54Y-61.38
X55.54Y-69.0
X57.426Y-72.0
X58.08Y-61.38
X58.08Y-69.0
X58.23Y-22.46
X58.23Y-25.0
X58.62Y-43.0
X58.62Y-45.54
X58.62Y-48.08
X58.62Y-50.62
X58.62Y-53.16
X58.62Y-55.7
X58.62Y-58.24
X59.0Y-39.5
X60.5Y-72.0
X60.62Y-61.38
X60.62Y-69.0
X61.23Y-22.46
X61.23Y-25.0
X62.0Y-89.5
X63.04Y-72.0
X64.386Y-86.5
X64.46Y-65.0
X64.5Y-67.955
X66.88Y-26.42
X66.88Y-28.96
X66.88Y-31.5
X66.88Y-34.04
X66.88Y-50.22
X66.88Y-52.76
X66.88Y-55.3
X66.88Y-57.84
X66.926Y-86.5
X67.0Y-65.0
X67.0Y-89.5
X67.04Y-67.955
X68.0Y-38.0
X68.0Y-61.5
X68.5Y-20.5
X68.5Y-44.3
X70.0Y-65.0
X70.0Y-70.0
X73.0Y-38.0
X73.0Y-61.5
X73.5Y-20.5
X73.5Y-44.3
X74.5Y-26.42
X74.5Y-28.96
X74.5Y-31.5
X74.5Y-34.04
X74.5Y-50.22
X74.5Y-52.76
X74.5Y-55.3
X74.5Y-57.84
X75.587Y-88.545
X76.632Y-91.545
X76.632Y-96.545
X77.742Y-18.0
X77.742Y-29.0
X77.742Y-32.0
X77.742Y-43.0
X77.742Y-46.2
X77.742Y-57.2
X77.742Y-60.2
X77.742Y-71.2
X78.127Y-88.545
X79.632Y-94.005
X79.632Y-96.545
X82.132Y-86.005
X82.132Y-88.545
X82.132Y-91.085
X82.632Y-93.505
X82.632Y-96.045
X82.742Y-18.0
X82.742Y-29.0
X82.742Y-32.0
X82.742Y-43.0
X82.742Y-46.2
X82.742Y-57.2
X82.742Y-60.2
X82.742Y-71.2
X86.132Y-88.045
X86.132Y-90.585
X86.132Y-93.505
X86.132Y-96.045
X89.132Y-93.505
X89.132Y-96.045
X90.657Y-28.5
X90.657Y-42.5
X90.657Y-56.7
X90.657Y-70.7
X91.107Y-31.5
X91.107Y-45.5
X91.107Y-59.7
X91.107Y-73.7
X93.0Y-77.0
X93.197Y-28.5
X93.197Y-42.5
X93.197Y-56.7
X93.197Y-70.7
X93.647Y-31.5
X93.647Y-45.5
X93.647Y-59.7
X93.647Y-73.7
X95.54Y-77.0
X100.0Y-72.5
X100.0Y-77.5
X103.0Y-73.96
X103.0Y-76.5
X103.935Y-29.8
X104.0Y-59.0
X104.735Y-23.3
X104.735Y-25.84
X104.735Y-51.63
X104.735Y-54.17
X108.5Y-22.0
X108.5Y-27.0
X108.5Y-50.5
X108.5Y-55.5
X108.935Y-29.8
X109.0Y-59.0
T4
X17.012Y-24.052
X17.012Y-26.592
X18.5Y-49.0
X18.5Y-51.5
X18.5Y-58.25
X18.5Y-60.75
X24.0Y-45.42
X24.0Y-47.96
X24.0Y-50.5
X31.46Y-50.5
X34.0Y-50.5
X42.5Y-14.725
X42.5Y-17.265
X45.465Y-76.0
X48.005Y-76.0
X50.545Y-76.0
X53.085Y-76.0
X53.19Y-16.42
X53.19Y-18.96
X55.73Y-16.42
X55.73Y-18.96
X58.265Y-80.0
X58.27Y-16.42
X58.27Y-18.96
X60.81Y-16.42
X60.81Y-18.96
X62.5Y-41.46
X62.5Y-44.0
X62.5Y-46.54
X62.5Y-53.0
X62.5Y-55.54
X62.5Y-58.08
X63.265Y-80.0
X65.04Y-41.46
X65.04Y-44.0
X65.04Y-46.54
X70.632Y-80.0
X75.632Y-80.0
X83.265Y-80.0
X88.265Y-80.0
X94.46Y-81.0
X99.54Y-81.01
X106.785Y-35.3
X106.785Y-37.8
X106.785Y-63.5
X106.785Y-66.0
X107.0Y-84.5
X107.0Y-87.0
T5
X21.0Y-30.96
X21.0Y-33.5
X23.96Y-57.629
X23.96Y-61.25
X24.46Y-54.0
X24.46Y-64.5
X25.0Y-31.012
X25.0Y-33.552
X26.5Y-57.629
X26.5Y-61.25
X27.0Y-54.0
X27.0Y-64.5
X47.46Y-93.05
X50.0Y-93.05
X52.54Y-93.05
X61.96Y-93.05
X64.5Y-93.05
X67.04Y-93.05
X77.852Y-21.21
X77.852Y-23.5
X77.852Y-25.79
X77.852Y-35.21
X77.852Y-37.5
X77.852Y-39.79
X77.852Y-49.41
X77.852Y-51.7
X77.852Y-53.99
X77.852Y-63.41
X77.852Y-65.7
X77.852Y-67.99
X90.767Y-21.21
X90.767Y-23.5
X90.767Y-25.79
X90.767Y-35.21
X90.767Y-37.5
X90.767Y-39.79
X90.767Y-49.41
X90.767Y-51.7
X90.767Y-53.99
X90.767Y-63.41
X90.767Y-65.7
X90.767Y-67.99
T7
X17.5Y-17.5
X17.5Y-93.4
X105.9Y-17.5
X105.9Y-93.4
T2
G00X29.562Y-39.062
M15
G01X30.438Y-39.938
M16
G05
G00X29.481Y-42.5
M15
G01X30.519Y-42.5
M16
G05
G00X29.562Y-45.938
M15
G01X30.438Y-45.062
M16
G05
G00X35.562Y-39.938
M15
G01X36.438Y-39.062
M16
G05
G00X35.481Y-42.5
M15
G01X36.519Y-42.5
M16
G05
G00X35.562Y-45.062
M15
G01X36.438Y-45.938
M16
G05
T4
G00X95.042Y-85.5
M15
G01X97.042Y-85.5
M16
G05
G00X95.042Y-91.5
M15
G01X97.042Y-91.5
M16
G05
G00X100.742Y-89.5
M15
G01X100.742Y-87.5
M16
G05
T6
G00X33.0Y-39.55
M15
G01X33.0Y-37.85
M16
G05
G00X33.0Y-47.15
M15
G01X33.0Y-45.45
M16
G05
M30
