%TF.GenerationSoftware,KiCad,Pcbnew,9.0.6*%
%TF.CreationDate,2026-01-07T21:09:46+03:30*%
%TF.ProjectId,drsstc-v2,64727373-7463-42d7-9632-2e6b69636164,rev?*%
%TF.SameCoordinates,Original*%
%TF.FileFunction,Soldermask,Bot*%
%TF.FilePolarity,Negative*%
%FSLAX46Y46*%
G04 Gerber Fmt 4.6, Leading zero omitted, Abs format (unit mm)*
G04 Created by KiCad (PCBNEW 9.0.6) date 2026-01-07 21:09:46*
%MOMM*%
%LPD*%
G01*
G04 APERTURE LIST*
G04 Aperture macros list*
%AMRoundRect*
0 Rectangle with rounded corners*
0 $1 Rounding radius*
0 $2 $3 $4 $5 $6 $7 $8 $9 X,Y pos of 4 corners*
0 Add a 4 corners polygon primitive as box body*
4,1,4,$2,$3,$4,$5,$6,$7,$8,$9,$2,$3,0*
0 Add four circle primitives for the rounded corners*
1,1,$1+$1,$2,$3*
1,1,$1+$1,$4,$5*
1,1,$1+$1,$6,$7*
1,1,$1+$1,$8,$9*
0 Add four rect primitives between the rounded corners*
20,1,$1+$1,$2,$3,$4,$5,0*
20,1,$1+$1,$4,$5,$6,$7,0*
20,1,$1+$1,$6,$7,$8,$9,0*
20,1,$1+$1,$8,$9,$2,$3,0*%
%AMHorizOval*
0 Thick line with rounded ends*
0 $1 width*
0 $2 $3 position (X,Y) of the first rounded end (center of the circle)*
0 $4 $5 position (X,Y) of the second rounded end (center of the circle)*
0 Add line between two ends*
20,1,$1,$2,$3,$4,$5,0*
0 Add two circle primitives to create the rounded ends*
1,1,$1,$2,$3*
1,1,$1,$4,$5*%
G04 Aperture macros list end*
%ADD10C,1.600000*%
%ADD11RoundRect,0.250000X-0.550000X-0.550000X0.550000X-0.550000X0.550000X0.550000X-0.550000X0.550000X0*%
%ADD12RoundRect,0.250000X-0.750000X0.600000X-0.750000X-0.600000X0.750000X-0.600000X0.750000X0.600000X0*%
%ADD13O,2.000000X1.700000*%
%ADD14R,1.800000X1.717500*%
%ADD15O,1.800000X1.717500*%
%ADD16R,1.500000X1.500000*%
%ADD17C,1.500000*%
%ADD18RoundRect,0.250000X0.550000X0.550000X-0.550000X0.550000X-0.550000X-0.550000X0.550000X-0.550000X0*%
%ADD19RoundRect,0.250000X-0.550000X0.550000X-0.550000X-0.550000X0.550000X-0.550000X0.550000X0.550000X0*%
%ADD20RoundRect,0.249999X-0.850001X-0.850001X0.850001X-0.850001X0.850001X0.850001X-0.850001X0.850001X0*%
%ADD21C,2.200000*%
%ADD22R,1.700000X1.700000*%
%ADD23C,1.700000*%
%ADD24C,3.600000*%
%ADD25C,5.600000*%
%ADD26R,1.905000X2.000000*%
%ADD27O,1.905000X2.000000*%
%ADD28RoundRect,0.250000X-0.750000X-0.750000X0.750000X-0.750000X0.750000X0.750000X-0.750000X0.750000X0*%
%ADD29C,2.000000*%
%ADD30R,3.500000X3.500000*%
%ADD31RoundRect,0.750000X1.000000X-0.750000X1.000000X0.750000X-1.000000X0.750000X-1.000000X-0.750000X0*%
%ADD32RoundRect,0.875000X0.875000X-0.875000X0.875000X0.875000X-0.875000X0.875000X-0.875000X-0.875000X0*%
%ADD33RoundRect,0.250000X0.550000X-0.550000X0.550000X0.550000X-0.550000X0.550000X-0.550000X-0.550000X0*%
%ADD34RoundRect,0.249999X-0.850001X0.850001X-0.850001X-0.850001X0.850001X-0.850001X0.850001X0.850001X0*%
%ADD35RoundRect,0.249999X0.850001X-0.850001X0.850001X0.850001X-0.850001X0.850001X-0.850001X-0.850001X0*%
%ADD36RoundRect,0.249999X0.850001X0.850001X-0.850001X0.850001X-0.850001X-0.850001X0.850001X-0.850001X0*%
%ADD37C,1.440000*%
%ADD38HorizOval,1.524000X0.380423X0.380423X-0.380423X-0.380423X0*%
%ADD39HorizOval,1.524000X-0.380423X0.380423X0.380423X-0.380423X0*%
%ADD40O,2.400000X1.524000*%
%ADD41O,2.500000X4.000000*%
G04 APERTURE END LIST*
D10*
%TO.C,R10*%
X63040000Y-72000000D03*
X60500000Y-72000000D03*
%TD*%
D11*
%TO.C,D16*%
X93000000Y-77000000D03*
D10*
X95540000Y-77000000D03*
%TD*%
%TO.C,C6*%
X62000000Y-89500000D03*
X67000000Y-89500000D03*
%TD*%
%TO.C,R17*%
X91106667Y-45500000D03*
X93646667Y-45500000D03*
%TD*%
D12*
%TO.C,J9*%
X18500000Y-58250000D03*
D13*
X18500000Y-60750000D03*
%TD*%
D10*
%TO.C,C24*%
X15500000Y-44500000D03*
X20500000Y-44500000D03*
%TD*%
%TO.C,R11*%
X45500000Y-79500000D03*
X48040000Y-79500000D03*
%TD*%
%TO.C,C5*%
X70000000Y-65000000D03*
X70000000Y-70000000D03*
%TD*%
%TO.C,R25*%
X58230000Y-25000000D03*
X58230000Y-22460000D03*
%TD*%
%TO.C,R20*%
X19500000Y-38972183D03*
X19500000Y-41512183D03*
%TD*%
%TO.C,R9*%
X64500000Y-67955000D03*
X67040000Y-67955000D03*
%TD*%
%TO.C,C9*%
X41920000Y-66380000D03*
X41920000Y-61380000D03*
%TD*%
%TO.C,C18*%
X82741667Y-60200000D03*
X77741667Y-60200000D03*
%TD*%
D14*
%TO.C,Q8*%
X77851667Y-21210000D03*
D15*
X77851667Y-23500000D03*
X77851667Y-25790000D03*
%TD*%
D11*
%TO.C,U6*%
X66880000Y-50220000D03*
D10*
X66880000Y-52760000D03*
X66880000Y-55300000D03*
X66880000Y-57840000D03*
X74500000Y-57840000D03*
X74500000Y-55300000D03*
X74500000Y-52760000D03*
X74500000Y-50220000D03*
%TD*%
D16*
%TO.C,Q1*%
X82132323Y-91085000D03*
D17*
X82132323Y-88545000D03*
X82132323Y-86005000D03*
%TD*%
D10*
%TO.C,C34*%
X46000000Y-30500000D03*
X46000000Y-25500000D03*
%TD*%
%TO.C,R12*%
X40040000Y-76315000D03*
X37500000Y-76315000D03*
%TD*%
D11*
%TO.C,D8*%
X90656667Y-42500000D03*
D10*
X93196667Y-42500000D03*
%TD*%
%TO.C,R26*%
X61230000Y-25000000D03*
X61230000Y-22460000D03*
%TD*%
D12*
%TO.C,J11*%
X106785000Y-35300000D03*
D13*
X106785000Y-37800000D03*
%TD*%
D10*
%TO.C,R1*%
X82632323Y-96045000D03*
X82632323Y-93505000D03*
%TD*%
D14*
%TO.C,Q9*%
X77851667Y-35210000D03*
D15*
X77851667Y-37500000D03*
X77851667Y-39790000D03*
%TD*%
D18*
%TO.C,D15*%
X66925686Y-86500000D03*
D10*
X64385686Y-86500000D03*
%TD*%
D19*
%TO.C,U5*%
X31310000Y-68695000D03*
D10*
X28770000Y-68695000D03*
X26230000Y-68695000D03*
X23690000Y-68695000D03*
X23690000Y-76315000D03*
X26230000Y-76315000D03*
X28770000Y-76315000D03*
X31310000Y-76315000D03*
%TD*%
D11*
%TO.C,U9*%
X66880000Y-26420000D03*
D10*
X66880000Y-28960000D03*
X66880000Y-31500000D03*
X66880000Y-34040000D03*
X74500000Y-34040000D03*
X74500000Y-31500000D03*
X74500000Y-28960000D03*
X74500000Y-26420000D03*
%TD*%
%TO.C,C26*%
X108500000Y-22000000D03*
X108500000Y-27000000D03*
%TD*%
D20*
%TO.C,D10*%
X23960000Y-57628730D03*
D21*
X26500000Y-57628730D03*
%TD*%
D11*
%TO.C,U4*%
X51000000Y-43000000D03*
D10*
X51000000Y-45540000D03*
X51000000Y-48080000D03*
X51000000Y-50620000D03*
X51000000Y-53160000D03*
X51000000Y-55700000D03*
X51000000Y-58240000D03*
X58620000Y-58240000D03*
X58620000Y-55700000D03*
X58620000Y-53160000D03*
X58620000Y-50620000D03*
X58620000Y-48080000D03*
X58620000Y-45540000D03*
X58620000Y-43000000D03*
%TD*%
D22*
%TO.C,J13*%
X42500000Y-14725000D03*
D23*
X42500000Y-17265000D03*
%TD*%
D10*
%TO.C,R4*%
X103000000Y-76500000D03*
X103000000Y-73960000D03*
%TD*%
%TO.C,C20*%
X68000000Y-61500000D03*
X73000000Y-61500000D03*
%TD*%
%TO.C,C1*%
X76632323Y-96545000D03*
X76632323Y-91545000D03*
%TD*%
D24*
%TO.C,H2*%
X17500000Y-93400000D03*
D25*
X17500000Y-93400000D03*
%TD*%
D26*
%TO.C,U2*%
X52540000Y-93050000D03*
D27*
X50000000Y-93050000D03*
X47460000Y-93050000D03*
%TD*%
D14*
%TO.C,Q7*%
X90766667Y-35210000D03*
D15*
X90766667Y-37500000D03*
X90766667Y-39790000D03*
%TD*%
D10*
%TO.C,C33*%
X38195000Y-23190000D03*
X33195000Y-23190000D03*
%TD*%
%TO.C,C8*%
X47500000Y-89500000D03*
X52500000Y-89500000D03*
%TD*%
%TO.C,R19*%
X104735000Y-51630000D03*
X104735000Y-54170000D03*
%TD*%
D22*
%TO.C,J12*%
X53190000Y-18960000D03*
D23*
X53190000Y-16420000D03*
X55730000Y-18960000D03*
X55730000Y-16420000D03*
X58270000Y-18960000D03*
X58270000Y-16420000D03*
X60810000Y-18960000D03*
X60810000Y-16420000D03*
%TD*%
D10*
%TO.C,C19*%
X82741667Y-46200000D03*
X77741667Y-46200000D03*
%TD*%
%TO.C,C23*%
X31000000Y-57500000D03*
X36000000Y-57500000D03*
%TD*%
D28*
%TO.C,C2*%
X83264646Y-80000000D03*
D29*
X88264646Y-80000000D03*
%TD*%
D10*
%TO.C,C11*%
X34500000Y-71315000D03*
X34500000Y-76315000D03*
%TD*%
%TO.C,C29*%
X82741667Y-32000000D03*
X77741667Y-32000000D03*
%TD*%
D24*
%TO.C,H4*%
X17500000Y-17500000D03*
D25*
X17500000Y-17500000D03*
%TD*%
D12*
%TO.C,J4*%
X106785000Y-63500000D03*
D13*
X106785000Y-66000000D03*
%TD*%
D10*
%TO.C,C31*%
X82741667Y-18000000D03*
X77741667Y-18000000D03*
%TD*%
D14*
%TO.C,Q5*%
X77851667Y-49410000D03*
D15*
X77851667Y-51700000D03*
X77851667Y-53990000D03*
%TD*%
D10*
%TO.C,C13*%
X108500000Y-50500000D03*
X108500000Y-55500000D03*
%TD*%
%TO.C,R21*%
X33460000Y-61000000D03*
X36000000Y-61000000D03*
%TD*%
D30*
%TO.C,J1*%
X96042500Y-85500000D03*
D31*
X96042500Y-91500000D03*
D32*
X100742500Y-88500000D03*
%TD*%
D14*
%TO.C,Q3*%
X90766667Y-49410000D03*
D15*
X90766667Y-51700000D03*
X90766667Y-53990000D03*
%TD*%
D33*
%TO.C,D2*%
X79632323Y-96545000D03*
D10*
X79632323Y-94005000D03*
%TD*%
D12*
%TO.C,J2*%
X107000000Y-84500000D03*
D13*
X107000000Y-87000000D03*
%TD*%
D10*
%TO.C,R30*%
X37745000Y-14455000D03*
X37745000Y-16995000D03*
%TD*%
%TO.C,C38*%
X27500000Y-85500000D03*
X27500000Y-90500000D03*
%TD*%
D34*
%TO.C,D13*%
X25000000Y-31012183D03*
D21*
X25000000Y-33552183D03*
%TD*%
D11*
%TO.C,U10*%
X33195000Y-26690000D03*
D10*
X33195000Y-29230000D03*
X33195000Y-31770000D03*
X33195000Y-34310000D03*
X40815000Y-34310000D03*
X40815000Y-31770000D03*
X40815000Y-29230000D03*
X40815000Y-26690000D03*
%TD*%
%TO.C,R24*%
X104735000Y-23300000D03*
X104735000Y-25840000D03*
%TD*%
%TO.C,R23*%
X91106667Y-31500000D03*
X93646667Y-31500000D03*
%TD*%
%TO.C,R28*%
X55230000Y-25000000D03*
X55230000Y-22460000D03*
%TD*%
D14*
%TO.C,Q4*%
X77851667Y-63410000D03*
D15*
X77851667Y-65700000D03*
X77851667Y-67990000D03*
%TD*%
D22*
%TO.C,J3*%
X53085000Y-76000000D03*
D23*
X50545000Y-76000000D03*
X48005000Y-76000000D03*
X45465000Y-76000000D03*
%TD*%
D22*
%TO.C,J7*%
X34000000Y-50500000D03*
D23*
X31460000Y-50500000D03*
%TD*%
D33*
%TO.C,U3*%
X45380000Y-69000000D03*
D10*
X47920000Y-69000000D03*
X50460000Y-69000000D03*
X53000000Y-69000000D03*
X55540000Y-69000000D03*
X58080000Y-69000000D03*
X60620000Y-69000000D03*
X60620000Y-61380000D03*
X58080000Y-61380000D03*
X55540000Y-61380000D03*
X53000000Y-61380000D03*
X50460000Y-61380000D03*
X47920000Y-61380000D03*
X45380000Y-61380000D03*
%TD*%
D11*
%TO.C,D7*%
X90656667Y-56700000D03*
D10*
X93196667Y-56700000D03*
%TD*%
%TO.C,C17*%
X68500000Y-44300000D03*
X73500000Y-44300000D03*
%TD*%
D35*
%TO.C,D14*%
X21000000Y-33500000D03*
D21*
X21000000Y-30960000D03*
%TD*%
D10*
%TO.C,C16*%
X82741667Y-43000000D03*
X77741667Y-43000000D03*
%TD*%
%TO.C,R29*%
X29695000Y-34280000D03*
X29695000Y-31740000D03*
%TD*%
D12*
%TO.C,J10*%
X18500000Y-49000000D03*
D13*
X18500000Y-51500000D03*
%TD*%
D36*
%TO.C,D6*%
X27000000Y-64500000D03*
D21*
X24460000Y-64500000D03*
%TD*%
D14*
%TO.C,Q2*%
X90766667Y-63410000D03*
D15*
X90766667Y-65700000D03*
X90766667Y-67990000D03*
%TD*%
D22*
%TO.C,J6*%
X62500000Y-53000000D03*
D23*
X62500000Y-55540000D03*
X62500000Y-58080000D03*
%TD*%
D28*
%TO.C,C7*%
X58264646Y-80000000D03*
D29*
X63264646Y-80000000D03*
%TD*%
D20*
%TO.C,D11*%
X23960000Y-61250000D03*
D21*
X26500000Y-61250000D03*
%TD*%
D37*
%TO.C,RV1*%
X17500000Y-69775000D03*
X17500000Y-72315000D03*
X17500000Y-74855000D03*
%TD*%
D10*
%TO.C,R22*%
X25500000Y-41500000D03*
X22960000Y-41500000D03*
%TD*%
%TO.C,C36*%
X16000000Y-36512183D03*
X16000000Y-41512183D03*
%TD*%
%TO.C,C27*%
X103935000Y-29800000D03*
X108935000Y-29800000D03*
%TD*%
%TO.C,R2*%
X86132323Y-90585000D03*
X86132323Y-88045000D03*
%TD*%
%TO.C,C22*%
X43130000Y-39500000D03*
X48130000Y-39500000D03*
%TD*%
%TO.C,R13*%
X33460000Y-64550000D03*
X36000000Y-64550000D03*
%TD*%
D26*
%TO.C,U1*%
X67040000Y-93050000D03*
D27*
X64500000Y-93050000D03*
X61960000Y-93050000D03*
%TD*%
D10*
%TO.C,C32*%
X82741667Y-29000000D03*
X77741667Y-29000000D03*
%TD*%
%TO.C,C3*%
X82741667Y-71200000D03*
X77741667Y-71200000D03*
%TD*%
%TO.C,C30*%
X68500000Y-20500000D03*
X73500000Y-20500000D03*
%TD*%
D18*
%TO.C,D5*%
X57425686Y-72000000D03*
D10*
X54885686Y-72000000D03*
%TD*%
%TO.C,C35*%
X38195000Y-20000000D03*
X33195000Y-20000000D03*
%TD*%
D11*
%TO.C,D12*%
X90656667Y-28500000D03*
D10*
X93196667Y-28500000D03*
%TD*%
%TO.C,R32*%
X22000000Y-21455000D03*
X22000000Y-23995000D03*
%TD*%
%TO.C,C10*%
X54000000Y-39500000D03*
X59000000Y-39500000D03*
%TD*%
D11*
%TO.C,D3*%
X90656667Y-70700000D03*
D10*
X93196667Y-70700000D03*
%TD*%
D11*
%TO.C,U7*%
X40510000Y-43000000D03*
D10*
X40510000Y-45540000D03*
X40510000Y-48080000D03*
X40510000Y-50620000D03*
X40510000Y-53160000D03*
X40510000Y-55700000D03*
X40510000Y-58240000D03*
X48130000Y-58240000D03*
X48130000Y-55700000D03*
X48130000Y-53160000D03*
X48130000Y-50620000D03*
X48130000Y-48080000D03*
X48130000Y-45540000D03*
X48130000Y-43000000D03*
%TD*%
%TO.C,R27*%
X52230000Y-25000000D03*
X52230000Y-22460000D03*
%TD*%
%TO.C,C37*%
X25000000Y-27000000D03*
X20000000Y-27000000D03*
%TD*%
D28*
%TO.C,C4*%
X70632323Y-80000000D03*
D29*
X75632323Y-80000000D03*
%TD*%
D22*
%TO.C,J8*%
X24000000Y-50500000D03*
D23*
X24000000Y-47960000D03*
X24000000Y-45420000D03*
%TD*%
D10*
%TO.C,R34*%
X33645000Y-14455000D03*
X33645000Y-16995000D03*
%TD*%
%TO.C,R35*%
X17000000Y-30630000D03*
X17000000Y-33170000D03*
%TD*%
%TO.C,R31*%
X25500000Y-37500000D03*
X22960000Y-37500000D03*
%TD*%
%TO.C,R8*%
X75587323Y-88545000D03*
X78127323Y-88545000D03*
%TD*%
D24*
%TO.C,H3*%
X105900000Y-17500000D03*
D25*
X105900000Y-17500000D03*
%TD*%
D10*
%TO.C,C14*%
X104000000Y-59000000D03*
X109000000Y-59000000D03*
%TD*%
%TO.C,R36*%
X25050000Y-23495000D03*
X25050000Y-20955000D03*
%TD*%
D24*
%TO.C,H1*%
X105900000Y-93400000D03*
D25*
X105900000Y-93400000D03*
%TD*%
D14*
%TO.C,Q6*%
X90766667Y-21210000D03*
D15*
X90766667Y-23500000D03*
X90766667Y-25790000D03*
%TD*%
D10*
%TO.C,R33*%
X29695000Y-28735000D03*
X29695000Y-26195000D03*
%TD*%
D38*
%TO.C,L1*%
X30000000Y-45500000D03*
D39*
X30000000Y-39500000D03*
X36000000Y-45500000D03*
D38*
X36000000Y-39500000D03*
D40*
X30000000Y-42500000D03*
X36000000Y-42500000D03*
D41*
X33000000Y-46300000D03*
X33000000Y-38700000D03*
%TD*%
D10*
%TO.C,C28*%
X68000000Y-38000000D03*
X73000000Y-38000000D03*
%TD*%
%TO.C,R3*%
X86132323Y-96045000D03*
X86132323Y-93505000D03*
%TD*%
%TO.C,C21*%
X100000000Y-77500000D03*
X100000000Y-72500000D03*
%TD*%
%TO.C,R18*%
X91106667Y-59700000D03*
X93646667Y-59700000D03*
%TD*%
%TO.C,R7*%
X91106667Y-73700000D03*
X93646667Y-73700000D03*
%TD*%
D17*
%TO.C,RX1*%
X36400000Y-86000000D03*
X34500000Y-86000000D03*
X32600000Y-86000000D03*
%TD*%
D11*
%TO.C,D4*%
X64460000Y-65000000D03*
D10*
X67000000Y-65000000D03*
%TD*%
D19*
%TO.C,D1*%
X89132323Y-93505000D03*
D10*
X89132323Y-96045000D03*
%TD*%
D22*
%TO.C,J14*%
X17012182Y-24052183D03*
D23*
X17012182Y-26592183D03*
%TD*%
D36*
%TO.C,D9*%
X27000000Y-54000000D03*
D21*
X24460000Y-54000000D03*
%TD*%
D29*
%TO.C,F1*%
X94460000Y-81000000D03*
X99540000Y-81010000D03*
%TD*%
D10*
%TO.C,C25*%
X36000000Y-54000000D03*
X31000000Y-54000000D03*
%TD*%
D22*
%TO.C,J5*%
X65040000Y-46540000D03*
D23*
X62500000Y-46540000D03*
X65040000Y-44000000D03*
X62500000Y-44000000D03*
X65040000Y-41460000D03*
X62500000Y-41460000D03*
%TD*%
D10*
%TO.C,R16*%
X28955000Y-79000000D03*
X31495000Y-79000000D03*
%TD*%
%TO.C,C12*%
X37500000Y-73315000D03*
X42500000Y-73315000D03*
%TD*%
%TO.C,C15*%
X82741667Y-57200000D03*
X77741667Y-57200000D03*
%TD*%
M02*
