%TF.GenerationSoftware,KiCad,Pcbnew,9.0.2*%
%TF.CreationDate,2025-08-17T10:41:56+03:30*%
%TF.ProjectId,drsstc-v1,64727373-7463-42d7-9631-2e6b69636164,rev?*%
%TF.SameCoordinates,Original*%
%TF.FileFunction,Drillmap*%
%TF.FilePolarity,Positive*%
%FSLAX45Y45*%
G04 Gerber Fmt 4.5, Leading zero omitted, Abs format (unit mm)*
G04 Created by KiCad (PCBNEW 9.0.2) date 2025-08-17 10:41:56*
%MOMM*%
%LPD*%
G01*
G04 APERTURE LIST*
%ADD10C,0.050000*%
%ADD11C,0.200000*%
%ADD12C,0.100000*%
%ADD13C,0.110000*%
%ADD14C,0.150000*%
%ADD15C,0.320000*%
G04 APERTURE END LIST*
D10*
X11200000Y-9650000D02*
G75*
G02*
X10900000Y-9950000I-300000J0D01*
G01*
X10900000Y-9950000D02*
X1500000Y-9950000D01*
X10900000Y-1200000D02*
G75*
G02*
X11200000Y-1500000I0J-300000D01*
G01*
X1200000Y-1500000D02*
G75*
G02*
X1500000Y-1200000I300000J0D01*
G01*
X1500000Y-1200000D02*
X10900000Y-1200000D01*
X11200000Y-1500000D02*
X11200000Y-9650000D01*
X1200000Y-9650000D02*
X1200000Y-1500000D01*
X1500000Y-9950000D02*
G75*
G02*
X1200000Y-9650000I0J300000D01*
G01*
D11*
X4342500Y-9045000D02*
G75*
G02*
X4142500Y-9045000I-100000J0D01*
G01*
X4142500Y-9045000D02*
G75*
G02*
X4342500Y-9045000I100000J0D01*
G01*
X4942500Y-9045000D02*
G75*
G02*
X4742500Y-9045000I-100000J0D01*
G01*
X4742500Y-9045000D02*
G75*
G02*
X4942500Y-9045000I100000J0D01*
G01*
D12*
X4072062Y-8044437D02*
X4102062Y-8074437D01*
X4102062Y-8044437D02*
X4072062Y-8074437D01*
X4285000Y-6335000D02*
X4315000Y-6365000D01*
X4315000Y-6335000D02*
X4285000Y-6365000D01*
X4535000Y-4785000D02*
X4565000Y-4815000D01*
X4565000Y-4785000D02*
X4535000Y-4815000D01*
X4635000Y-6335000D02*
X4665000Y-6365000D01*
X4665000Y-6335000D02*
X4635000Y-6365000D01*
X4685000Y-3385000D02*
X4715000Y-3415000D01*
X4715000Y-3385000D02*
X4685000Y-3415000D01*
X4858250Y-7258250D02*
X4888250Y-7288250D01*
X4888250Y-7258250D02*
X4858250Y-7288250D01*
X4935000Y-3435000D02*
X4965000Y-3465000D01*
X4965000Y-3435000D02*
X4935000Y-3465000D01*
X4935000Y-3585000D02*
X4965000Y-3615000D01*
X4965000Y-3585000D02*
X4935000Y-3615000D01*
X4985000Y-6335000D02*
X5015000Y-6365000D01*
X5015000Y-6335000D02*
X4985000Y-6365000D01*
X5154500Y-3615500D02*
X5184500Y-3645500D01*
X5184500Y-3615500D02*
X5154500Y-3645500D01*
X5235000Y-4035000D02*
X5265000Y-4065000D01*
X5265000Y-4035000D02*
X5235000Y-4065000D01*
X5285000Y-8285000D02*
X5315000Y-8315000D01*
X5315000Y-8285000D02*
X5285000Y-8315000D01*
X5385000Y-6335000D02*
X5415000Y-6365000D01*
X5415000Y-6335000D02*
X5385000Y-6365000D01*
X5597250Y-8597251D02*
X5627250Y-8627251D01*
X5627250Y-8597251D02*
X5597250Y-8627251D01*
X6235000Y-6185000D02*
X6265000Y-6215000D01*
X6265000Y-6185000D02*
X6235000Y-6215000D01*
X6235000Y-9137310D02*
X6265000Y-9167310D01*
X6265000Y-9137310D02*
X6235000Y-9167310D01*
X6235000Y-9635000D02*
X6265000Y-9665000D01*
X6265000Y-9635000D02*
X6235000Y-9665000D01*
X3038100Y-3950000D02*
G75*
G02*
X2961900Y-3950000I-38100J0D01*
G01*
X2961900Y-3950000D02*
G75*
G02*
X3038100Y-3950000I38100J0D01*
G01*
X2929289Y-3933171D02*
X3016829Y-4020711D01*
X3070711Y-3966829D02*
G75*
G02*
X3016829Y-4020711I-26941J-26941D01*
G01*
X3070711Y-3966829D02*
X2983171Y-3879289D01*
X2983171Y-3879289D02*
G75*
G03*
X2929289Y-3933171I-26941J-26941D01*
G01*
X3038100Y-4250000D02*
G75*
G02*
X2961900Y-4250000I-38100J0D01*
G01*
X2961900Y-4250000D02*
G75*
G02*
X3038100Y-4250000I38100J0D01*
G01*
X2948100Y-4288100D02*
X3051900Y-4288100D01*
X3051900Y-4211900D02*
G75*
G02*
X3051900Y-4288100I0J-38100D01*
G01*
X3051900Y-4211900D02*
X2948100Y-4211900D01*
X2948100Y-4211900D02*
G75*
G03*
X2948100Y-4288100I0J-38100D01*
G01*
X3038100Y-4550000D02*
G75*
G02*
X2961900Y-4550000I-38100J0D01*
G01*
X2961900Y-4550000D02*
G75*
G02*
X3038100Y-4550000I38100J0D01*
G01*
X2983171Y-4620711D02*
X3070711Y-4533171D01*
X3016829Y-4479289D02*
G75*
G02*
X3070711Y-4533171I26941J-26941D01*
G01*
X3016829Y-4479289D02*
X2929289Y-4566829D01*
X2929289Y-4566829D02*
G75*
G03*
X2983171Y-4620711I26941J-26941D01*
G01*
X3638100Y-3950000D02*
G75*
G02*
X3561900Y-3950000I-38100J0D01*
G01*
X3561900Y-3950000D02*
G75*
G02*
X3638100Y-3950000I38100J0D01*
G01*
X3583171Y-4020711D02*
X3670711Y-3933171D01*
X3616829Y-3879289D02*
G75*
G02*
X3670711Y-3933171I26941J-26941D01*
G01*
X3616829Y-3879289D02*
X3529289Y-3966829D01*
X3529289Y-3966829D02*
G75*
G03*
X3583171Y-4020711I26941J-26941D01*
G01*
X3638100Y-4250000D02*
G75*
G02*
X3561900Y-4250000I-38100J0D01*
G01*
X3561900Y-4250000D02*
G75*
G02*
X3638100Y-4250000I38100J0D01*
G01*
X3548100Y-4288100D02*
X3651900Y-4288100D01*
X3651900Y-4211900D02*
G75*
G02*
X3651900Y-4288100I0J-38100D01*
G01*
X3651900Y-4211900D02*
X3548100Y-4211900D01*
X3548100Y-4211900D02*
G75*
G03*
X3548100Y-4288100I0J-38100D01*
G01*
X3638100Y-4550000D02*
G75*
G02*
X3561900Y-4550000I-38100J0D01*
G01*
X3561900Y-4550000D02*
G75*
G02*
X3638100Y-4550000I38100J0D01*
G01*
X3529289Y-4533171D02*
X3616829Y-4620711D01*
X3670711Y-4566829D02*
G75*
G02*
X3616829Y-4620711I-26941J-26941D01*
G01*
X3670711Y-4566829D02*
X3583171Y-4479289D01*
X3583171Y-4479289D02*
G75*
G03*
X3529289Y-4533171I-26941J-26941D01*
G01*
X1550000Y-4410000D02*
X1550000Y-4490000D01*
X1510000Y-4450000D02*
X1590000Y-4450000D01*
X1600000Y-3611218D02*
X1600000Y-3691218D01*
X1560000Y-3651218D02*
X1640000Y-3651218D01*
X1600000Y-4111218D02*
X1600000Y-4191218D01*
X1560000Y-4151218D02*
X1640000Y-4151218D01*
X1700000Y-3023000D02*
X1700000Y-3103000D01*
X1660000Y-3063000D02*
X1740000Y-3063000D01*
X1700000Y-3277000D02*
X1700000Y-3357000D01*
X1660000Y-3317000D02*
X1740000Y-3317000D01*
X1750000Y-6937500D02*
X1750000Y-7017500D01*
X1710000Y-6977500D02*
X1790000Y-6977500D01*
X1750000Y-7191500D02*
X1750000Y-7271500D01*
X1710000Y-7231500D02*
X1790000Y-7231500D01*
X1750000Y-7445500D02*
X1750000Y-7525500D01*
X1710000Y-7485500D02*
X1790000Y-7485500D01*
X1950000Y-3857218D02*
X1950000Y-3937218D01*
X1910000Y-3897218D02*
X1990000Y-3897218D01*
X1950000Y-4111218D02*
X1950000Y-4191218D01*
X1910000Y-4151218D02*
X1990000Y-4151218D01*
X2000000Y-2660000D02*
X2000000Y-2740000D01*
X1960000Y-2700000D02*
X2040000Y-2700000D01*
X2000000Y-8541000D02*
X2000000Y-8621000D01*
X1960000Y-8581000D02*
X2040000Y-8581000D01*
X2000000Y-8795000D02*
X2000000Y-8875000D01*
X1960000Y-8835000D02*
X2040000Y-8835000D01*
X2050000Y-4410000D02*
X2050000Y-4490000D01*
X2010000Y-4450000D02*
X2090000Y-4450000D01*
X2200000Y-2105500D02*
X2200000Y-2185500D01*
X2160000Y-2145500D02*
X2240000Y-2145500D01*
X2200000Y-2359500D02*
X2200000Y-2439500D01*
X2160000Y-2399500D02*
X2240000Y-2399500D01*
X2296000Y-3710000D02*
X2296000Y-3790000D01*
X2256000Y-3750000D02*
X2336000Y-3750000D01*
X2296000Y-4110000D02*
X2296000Y-4190000D01*
X2256000Y-4150000D02*
X2336000Y-4150000D01*
X2354000Y-8541000D02*
X2354000Y-8621000D01*
X2314000Y-8581000D02*
X2394000Y-8581000D01*
X2354000Y-8795000D02*
X2354000Y-8875000D01*
X2314000Y-8835000D02*
X2394000Y-8835000D01*
X2369000Y-6829500D02*
X2369000Y-6909500D01*
X2329000Y-6869500D02*
X2409000Y-6869500D01*
X2369000Y-7591500D02*
X2369000Y-7671500D01*
X2329000Y-7631500D02*
X2409000Y-7631500D01*
X2500000Y-2660000D02*
X2500000Y-2740000D01*
X2460000Y-2700000D02*
X2540000Y-2700000D01*
X2505000Y-2055500D02*
X2505000Y-2135500D01*
X2465000Y-2095500D02*
X2545000Y-2095500D01*
X2505000Y-2309500D02*
X2505000Y-2389500D01*
X2465000Y-2349500D02*
X2545000Y-2349500D01*
X2550000Y-3710000D02*
X2550000Y-3790000D01*
X2510000Y-3750000D02*
X2590000Y-3750000D01*
X2550000Y-4110000D02*
X2550000Y-4190000D01*
X2510000Y-4150000D02*
X2590000Y-4150000D01*
X2623000Y-6829500D02*
X2623000Y-6909500D01*
X2583000Y-6869500D02*
X2663000Y-6869500D01*
X2623000Y-7591500D02*
X2623000Y-7671500D01*
X2583000Y-7631500D02*
X2663000Y-7631500D01*
X2642000Y-8560000D02*
X2642000Y-8640000D01*
X2602000Y-8600000D02*
X2682000Y-8600000D01*
X2642000Y-8814000D02*
X2642000Y-8894000D01*
X2602000Y-8854000D02*
X2682000Y-8854000D01*
X2642000Y-9068000D02*
X2642000Y-9148000D01*
X2602000Y-9108000D02*
X2682000Y-9108000D01*
X2642000Y-9322000D02*
X2642000Y-9402000D01*
X2602000Y-9362000D02*
X2682000Y-9362000D01*
X2877000Y-6829500D02*
X2877000Y-6909500D01*
X2837000Y-6869500D02*
X2917000Y-6869500D01*
X2877000Y-7591500D02*
X2877000Y-7671500D01*
X2837000Y-7631500D02*
X2917000Y-7631500D01*
X2895500Y-7860000D02*
X2895500Y-7940000D01*
X2855500Y-7900000D02*
X2935500Y-7900000D01*
X2896000Y-9660000D02*
X2896000Y-9740000D01*
X2856000Y-9700000D02*
X2936000Y-9700000D01*
X2904000Y-8191000D02*
X2904000Y-8271000D01*
X2864000Y-8231000D02*
X2944000Y-8231000D01*
X2969500Y-2579500D02*
X2969500Y-2659500D01*
X2929500Y-2619500D02*
X3009500Y-2619500D01*
X2969500Y-2833500D02*
X2969500Y-2913500D01*
X2929500Y-2873500D02*
X3009500Y-2873500D01*
X2969500Y-3134000D02*
X2969500Y-3214000D01*
X2929500Y-3174000D02*
X3009500Y-3174000D01*
X2969500Y-3388000D02*
X2969500Y-3468000D01*
X2929500Y-3428000D02*
X3009500Y-3428000D01*
X3100000Y-5360000D02*
X3100000Y-5440000D01*
X3060000Y-5400000D02*
X3140000Y-5400000D01*
X3100000Y-5710000D02*
X3100000Y-5790000D01*
X3060000Y-5750000D02*
X3140000Y-5750000D01*
X3131000Y-6829500D02*
X3131000Y-6909500D01*
X3091000Y-6869500D02*
X3171000Y-6869500D01*
X3131000Y-7591500D02*
X3131000Y-7671500D01*
X3091000Y-7631500D02*
X3171000Y-7631500D01*
X3149500Y-7860000D02*
X3149500Y-7940000D01*
X3109500Y-7900000D02*
X3189500Y-7900000D01*
X3150000Y-9660000D02*
X3150000Y-9740000D01*
X3110000Y-9700000D02*
X3190000Y-9700000D01*
X3319500Y-1960000D02*
X3319500Y-2040000D01*
X3279500Y-2000000D02*
X3359500Y-2000000D01*
X3319500Y-2279000D02*
X3319500Y-2359000D01*
X3279500Y-2319000D02*
X3359500Y-2319000D01*
X3319500Y-2629000D02*
X3319500Y-2709000D01*
X3279500Y-2669000D02*
X3359500Y-2669000D01*
X3319500Y-2883000D02*
X3319500Y-2963000D01*
X3279500Y-2923000D02*
X3359500Y-2923000D01*
X3319500Y-3137000D02*
X3319500Y-3217000D01*
X3279500Y-3177000D02*
X3359500Y-3177000D01*
X3319500Y-3391000D02*
X3319500Y-3471000D01*
X3279500Y-3431000D02*
X3359500Y-3431000D01*
X3346000Y-6060000D02*
X3346000Y-6140000D01*
X3306000Y-6100000D02*
X3386000Y-6100000D01*
X3346000Y-6415000D02*
X3346000Y-6495000D01*
X3306000Y-6455000D02*
X3386000Y-6455000D01*
X3364500Y-1405500D02*
X3364500Y-1485500D01*
X3324500Y-1445500D02*
X3404500Y-1445500D01*
X3364500Y-1659500D02*
X3364500Y-1739500D01*
X3324500Y-1699500D02*
X3404500Y-1699500D01*
X3404000Y-8191000D02*
X3404000Y-8271000D01*
X3364000Y-8231000D02*
X3444000Y-8231000D01*
X3404000Y-8560000D02*
X3404000Y-8640000D01*
X3364000Y-8600000D02*
X3444000Y-8600000D01*
X3404000Y-8814000D02*
X3404000Y-8894000D01*
X3364000Y-8854000D02*
X3444000Y-8854000D01*
X3404000Y-9068000D02*
X3404000Y-9148000D01*
X3364000Y-9108000D02*
X3444000Y-9108000D01*
X3404000Y-9322000D02*
X3404000Y-9402000D01*
X3364000Y-9362000D02*
X3444000Y-9362000D01*
X3450000Y-7091500D02*
X3450000Y-7171500D01*
X3410000Y-7131500D02*
X3490000Y-7131500D01*
X3450000Y-7591500D02*
X3450000Y-7671500D01*
X3410000Y-7631500D02*
X3490000Y-7631500D01*
X3600000Y-5360000D02*
X3600000Y-5440000D01*
X3560000Y-5400000D02*
X3640000Y-5400000D01*
X3600000Y-5710000D02*
X3600000Y-5790000D01*
X3560000Y-5750000D02*
X3640000Y-5750000D01*
X3600000Y-6060000D02*
X3600000Y-6140000D01*
X3560000Y-6100000D02*
X3640000Y-6100000D01*
X3600000Y-6415000D02*
X3600000Y-6495000D01*
X3560000Y-6455000D02*
X3640000Y-6455000D01*
X3722500Y-8610500D02*
X3722500Y-8690500D01*
X3682500Y-8650500D02*
X3762500Y-8650500D01*
X3722500Y-8864500D02*
X3722500Y-8944500D01*
X3682500Y-8904500D02*
X3762500Y-8904500D01*
X3722500Y-9210500D02*
X3722500Y-9290500D01*
X3682500Y-9250500D02*
X3762500Y-9250500D01*
X3722500Y-9464500D02*
X3722500Y-9544500D01*
X3682500Y-9504500D02*
X3762500Y-9504500D01*
X3750000Y-7291500D02*
X3750000Y-7371500D01*
X3710000Y-7331500D02*
X3790000Y-7331500D01*
X3750000Y-7591500D02*
X3750000Y-7671500D01*
X3710000Y-7631500D02*
X3790000Y-7631500D01*
X3774500Y-1405500D02*
X3774500Y-1485500D01*
X3734500Y-1445500D02*
X3814500Y-1445500D01*
X3774500Y-1659500D02*
X3774500Y-1739500D01*
X3734500Y-1699500D02*
X3814500Y-1699500D01*
X3819500Y-1960000D02*
X3819500Y-2040000D01*
X3779500Y-2000000D02*
X3859500Y-2000000D01*
X3819500Y-2279000D02*
X3819500Y-2359000D01*
X3779500Y-2319000D02*
X3859500Y-2319000D01*
X4004000Y-7591500D02*
X4004000Y-7671500D01*
X3964000Y-7631500D02*
X4044000Y-7631500D01*
X4051000Y-4241000D02*
X4051000Y-4321000D01*
X4011000Y-4281000D02*
X4091000Y-4281000D01*
X4051000Y-4495000D02*
X4051000Y-4575000D01*
X4011000Y-4535000D02*
X4091000Y-4535000D01*
X4051000Y-4749000D02*
X4051000Y-4829000D01*
X4011000Y-4789000D02*
X4091000Y-4789000D01*
X4051000Y-5003000D02*
X4051000Y-5083000D01*
X4011000Y-5043000D02*
X4091000Y-5043000D01*
X4051000Y-5257000D02*
X4051000Y-5337000D01*
X4011000Y-5297000D02*
X4091000Y-5297000D01*
X4051000Y-5511000D02*
X4051000Y-5591000D01*
X4011000Y-5551000D02*
X4091000Y-5551000D01*
X4051000Y-5765000D02*
X4051000Y-5845000D01*
X4011000Y-5805000D02*
X4091000Y-5805000D01*
X4081500Y-2629000D02*
X4081500Y-2709000D01*
X4041500Y-2669000D02*
X4121500Y-2669000D01*
X4081500Y-2883000D02*
X4081500Y-2963000D01*
X4041500Y-2923000D02*
X4121500Y-2923000D01*
X4081500Y-3137000D02*
X4081500Y-3217000D01*
X4041500Y-3177000D02*
X4121500Y-3177000D01*
X4081500Y-3391000D02*
X4081500Y-3471000D01*
X4041500Y-3431000D02*
X4121500Y-3431000D01*
X4192000Y-6098000D02*
X4192000Y-6178000D01*
X4152000Y-6138000D02*
X4232000Y-6138000D01*
X4192000Y-6598000D02*
X4192000Y-6678000D01*
X4152000Y-6638000D02*
X4232000Y-6638000D01*
X4250000Y-7291500D02*
X4250000Y-7371500D01*
X4210000Y-7331500D02*
X4290000Y-7331500D01*
X4313000Y-3910000D02*
X4313000Y-3990000D01*
X4273000Y-3950000D02*
X4353000Y-3950000D01*
X4428500Y-8440000D02*
X4428500Y-8520000D01*
X4388500Y-8480000D02*
X4468500Y-8480000D01*
X4538000Y-6098000D02*
X4538000Y-6178000D01*
X4498000Y-6138000D02*
X4578000Y-6138000D01*
X4538000Y-6860000D02*
X4538000Y-6940000D01*
X4498000Y-6900000D02*
X4578000Y-6900000D01*
X4600000Y-2510000D02*
X4600000Y-2590000D01*
X4560000Y-2550000D02*
X4640000Y-2550000D01*
X4600000Y-3010000D02*
X4600000Y-3090000D01*
X4560000Y-3050000D02*
X4640000Y-3050000D01*
X4682500Y-8440000D02*
X4682500Y-8520000D01*
X4642500Y-8480000D02*
X4722500Y-8480000D01*
X4792000Y-6098000D02*
X4792000Y-6178000D01*
X4752000Y-6138000D02*
X4832000Y-6138000D01*
X4792000Y-6860000D02*
X4792000Y-6940000D01*
X4752000Y-6900000D02*
X4832000Y-6900000D01*
X4813000Y-3910000D02*
X4813000Y-3990000D01*
X4773000Y-3950000D02*
X4853000Y-3950000D01*
X4813000Y-4241000D02*
X4813000Y-4321000D01*
X4773000Y-4281000D02*
X4853000Y-4281000D01*
X4813000Y-4495000D02*
X4813000Y-4575000D01*
X4773000Y-4535000D02*
X4853000Y-4535000D01*
X4813000Y-4749000D02*
X4813000Y-4829000D01*
X4773000Y-4789000D02*
X4853000Y-4789000D01*
X4813000Y-5003000D02*
X4813000Y-5083000D01*
X4773000Y-5043000D02*
X4853000Y-5043000D01*
X4813000Y-5257000D02*
X4813000Y-5337000D01*
X4773000Y-5297000D02*
X4853000Y-5297000D01*
X4813000Y-5511000D02*
X4813000Y-5591000D01*
X4773000Y-5551000D02*
X4853000Y-5551000D01*
X4813000Y-5765000D02*
X4813000Y-5845000D01*
X4773000Y-5805000D02*
X4853000Y-5805000D01*
X4950500Y-7910000D02*
X4950500Y-7990000D01*
X4910500Y-7950000D02*
X4990500Y-7950000D01*
X5046000Y-6098000D02*
X5046000Y-6178000D01*
X5006000Y-6138000D02*
X5086000Y-6138000D01*
X5046000Y-6860000D02*
X5046000Y-6940000D01*
X5006000Y-6900000D02*
X5086000Y-6900000D01*
X5169500Y-4241000D02*
X5169500Y-4321000D01*
X5129500Y-4281000D02*
X5209500Y-4281000D01*
X5169500Y-4495000D02*
X5169500Y-4575000D01*
X5129500Y-4535000D02*
X5209500Y-4535000D01*
X5169500Y-4749000D02*
X5169500Y-4829000D01*
X5129500Y-4789000D02*
X5209500Y-4789000D01*
X5169500Y-5003000D02*
X5169500Y-5083000D01*
X5129500Y-5043000D02*
X5209500Y-5043000D01*
X5169500Y-5257000D02*
X5169500Y-5337000D01*
X5129500Y-5297000D02*
X5209500Y-5297000D01*
X5169500Y-5511000D02*
X5169500Y-5591000D01*
X5129500Y-5551000D02*
X5209500Y-5551000D01*
X5169500Y-5765000D02*
X5169500Y-5845000D01*
X5129500Y-5805000D02*
X5209500Y-5805000D01*
X5204500Y-7910000D02*
X5204500Y-7990000D01*
X5164500Y-7950000D02*
X5244500Y-7950000D01*
X5223000Y-2206000D02*
X5223000Y-2286000D01*
X5183000Y-2246000D02*
X5263000Y-2246000D01*
X5223000Y-2460000D02*
X5223000Y-2540000D01*
X5183000Y-2500000D02*
X5263000Y-2500000D01*
X5300000Y-6098000D02*
X5300000Y-6178000D01*
X5260000Y-6138000D02*
X5340000Y-6138000D01*
X5300000Y-6860000D02*
X5300000Y-6940000D01*
X5260000Y-6900000D02*
X5340000Y-6900000D01*
X5413232Y-8760000D02*
X5413232Y-8840000D01*
X5373232Y-8800000D02*
X5453232Y-8800000D01*
X5431500Y-3910000D02*
X5431500Y-3990000D01*
X5391500Y-3950000D02*
X5471500Y-3950000D01*
X5523000Y-2206000D02*
X5523000Y-2286000D01*
X5483000Y-2246000D02*
X5563000Y-2246000D01*
X5523000Y-2460000D02*
X5523000Y-2540000D01*
X5483000Y-2500000D02*
X5563000Y-2500000D01*
X5546000Y-7160000D02*
X5546000Y-7240000D01*
X5506000Y-7200000D02*
X5586000Y-7200000D01*
X5554000Y-6098000D02*
X5554000Y-6178000D01*
X5514000Y-6138000D02*
X5594000Y-6138000D01*
X5554000Y-6860000D02*
X5554000Y-6940000D01*
X5514000Y-6900000D02*
X5594000Y-6900000D01*
X5800000Y-7160000D02*
X5800000Y-7240000D01*
X5760000Y-7200000D02*
X5840000Y-7200000D01*
X5808000Y-6098000D02*
X5808000Y-6178000D01*
X5768000Y-6138000D02*
X5848000Y-6138000D01*
X5808000Y-6860000D02*
X5808000Y-6940000D01*
X5768000Y-6900000D02*
X5848000Y-6900000D01*
X5823000Y-2206000D02*
X5823000Y-2286000D01*
X5783000Y-2246000D02*
X5863000Y-2246000D01*
X5823000Y-2460000D02*
X5823000Y-2540000D01*
X5783000Y-2500000D02*
X5863000Y-2500000D01*
X5913232Y-8760000D02*
X5913232Y-8840000D01*
X5873232Y-8800000D02*
X5953232Y-8800000D01*
X5931500Y-3910000D02*
X5931500Y-3990000D01*
X5891500Y-3950000D02*
X5971500Y-3950000D01*
X5931500Y-4241000D02*
X5931500Y-4321000D01*
X5891500Y-4281000D02*
X5971500Y-4281000D01*
X5931500Y-4495000D02*
X5931500Y-4575000D01*
X5891500Y-4535000D02*
X5971500Y-4535000D01*
X5931500Y-4749000D02*
X5931500Y-4829000D01*
X5891500Y-4789000D02*
X5971500Y-4789000D01*
X5931500Y-5003000D02*
X5931500Y-5083000D01*
X5891500Y-5043000D02*
X5971500Y-5043000D01*
X5931500Y-5257000D02*
X5931500Y-5337000D01*
X5891500Y-5297000D02*
X5971500Y-5297000D01*
X5931500Y-5511000D02*
X5931500Y-5591000D01*
X5891500Y-5551000D02*
X5971500Y-5551000D01*
X5931500Y-5765000D02*
X5931500Y-5845000D01*
X5891500Y-5805000D02*
X5971500Y-5805000D01*
X6062000Y-6098000D02*
X6062000Y-6178000D01*
X6022000Y-6138000D02*
X6102000Y-6138000D01*
X6062000Y-6860000D02*
X6062000Y-6940000D01*
X6022000Y-6900000D02*
X6102000Y-6900000D01*
X6123000Y-2206000D02*
X6123000Y-2286000D01*
X6083000Y-2246000D02*
X6163000Y-2246000D01*
X6123000Y-2460000D02*
X6123000Y-2540000D01*
X6083000Y-2500000D02*
X6163000Y-2500000D01*
X6446000Y-6460000D02*
X6446000Y-6540000D01*
X6406000Y-6500000D02*
X6486000Y-6500000D01*
X6450000Y-6755500D02*
X6450000Y-6835500D01*
X6410000Y-6795500D02*
X6490000Y-6795500D01*
X6613232Y-8760000D02*
X6613232Y-8840000D01*
X6573232Y-8800000D02*
X6653232Y-8800000D01*
X6688000Y-2602000D02*
X6688000Y-2682000D01*
X6648000Y-2642000D02*
X6728000Y-2642000D01*
X6688000Y-2856000D02*
X6688000Y-2936000D01*
X6648000Y-2896000D02*
X6728000Y-2896000D01*
X6688000Y-3110000D02*
X6688000Y-3190000D01*
X6648000Y-3150000D02*
X6728000Y-3150000D01*
X6688000Y-3364000D02*
X6688000Y-3444000D01*
X6648000Y-3404000D02*
X6728000Y-3404000D01*
X6688000Y-4982000D02*
X6688000Y-5062000D01*
X6648000Y-5022000D02*
X6728000Y-5022000D01*
X6688000Y-5236000D02*
X6688000Y-5316000D01*
X6648000Y-5276000D02*
X6728000Y-5276000D01*
X6688000Y-5490000D02*
X6688000Y-5570000D01*
X6648000Y-5530000D02*
X6728000Y-5530000D01*
X6688000Y-5744000D02*
X6688000Y-5824000D01*
X6648000Y-5784000D02*
X6728000Y-5784000D01*
X6700000Y-6460000D02*
X6700000Y-6540000D01*
X6660000Y-6500000D02*
X6740000Y-6500000D01*
X6704000Y-6755500D02*
X6704000Y-6835500D01*
X6664000Y-6795500D02*
X6744000Y-6795500D01*
X6800000Y-3760000D02*
X6800000Y-3840000D01*
X6760000Y-3800000D02*
X6840000Y-3800000D01*
X6800000Y-6110000D02*
X6800000Y-6190000D01*
X6760000Y-6150000D02*
X6840000Y-6150000D01*
X6850000Y-2010000D02*
X6850000Y-2090000D01*
X6810000Y-2050000D02*
X6890000Y-2050000D01*
X6850000Y-4390000D02*
X6850000Y-4470000D01*
X6810000Y-4430000D02*
X6890000Y-4430000D01*
X7000000Y-6460000D02*
X7000000Y-6540000D01*
X6960000Y-6500000D02*
X7040000Y-6500000D01*
X7000000Y-6960000D02*
X7000000Y-7040000D01*
X6960000Y-7000000D02*
X7040000Y-7000000D01*
X7113232Y-8760000D02*
X7113232Y-8840000D01*
X7073232Y-8800000D02*
X7153232Y-8800000D01*
X7300000Y-3760000D02*
X7300000Y-3840000D01*
X7260000Y-3800000D02*
X7340000Y-3800000D01*
X7300000Y-6110000D02*
X7300000Y-6190000D01*
X7260000Y-6150000D02*
X7340000Y-6150000D01*
X7350000Y-2010000D02*
X7350000Y-2090000D01*
X7310000Y-2050000D02*
X7390000Y-2050000D01*
X7350000Y-4390000D02*
X7350000Y-4470000D01*
X7310000Y-4430000D02*
X7390000Y-4430000D01*
X7450000Y-2602000D02*
X7450000Y-2682000D01*
X7410000Y-2642000D02*
X7490000Y-2642000D01*
X7450000Y-2856000D02*
X7450000Y-2936000D01*
X7410000Y-2896000D02*
X7490000Y-2896000D01*
X7450000Y-3110000D02*
X7450000Y-3190000D01*
X7410000Y-3150000D02*
X7490000Y-3150000D01*
X7450000Y-3364000D02*
X7450000Y-3444000D01*
X7410000Y-3404000D02*
X7490000Y-3404000D01*
X7450000Y-4982000D02*
X7450000Y-5062000D01*
X7410000Y-5022000D02*
X7490000Y-5022000D01*
X7450000Y-5236000D02*
X7450000Y-5316000D01*
X7410000Y-5276000D02*
X7490000Y-5276000D01*
X7450000Y-5490000D02*
X7450000Y-5570000D01*
X7410000Y-5530000D02*
X7490000Y-5530000D01*
X7450000Y-5744000D02*
X7450000Y-5824000D01*
X7410000Y-5784000D02*
X7490000Y-5784000D01*
X7558732Y-8814500D02*
X7558732Y-8894500D01*
X7518732Y-8854500D02*
X7598732Y-8854500D01*
X7663232Y-9114500D02*
X7663232Y-9194500D01*
X7623232Y-9154500D02*
X7703232Y-9154500D01*
X7663232Y-9614500D02*
X7663232Y-9694500D01*
X7623232Y-9654500D02*
X7703232Y-9654500D01*
X7774167Y-1760000D02*
X7774167Y-1840000D01*
X7734167Y-1800000D02*
X7814167Y-1800000D01*
X7774167Y-2860000D02*
X7774167Y-2940000D01*
X7734167Y-2900000D02*
X7814167Y-2900000D01*
X7774167Y-3160000D02*
X7774167Y-3240000D01*
X7734167Y-3200000D02*
X7814167Y-3200000D01*
X7774167Y-4260000D02*
X7774167Y-4340000D01*
X7734167Y-4300000D02*
X7814167Y-4300000D01*
X7774167Y-4580000D02*
X7774167Y-4660000D01*
X7734167Y-4620000D02*
X7814167Y-4620000D01*
X7774167Y-5680000D02*
X7774167Y-5760000D01*
X7734167Y-5720000D02*
X7814167Y-5720000D01*
X7774167Y-5980000D02*
X7774167Y-6060000D01*
X7734167Y-6020000D02*
X7814167Y-6020000D01*
X7774167Y-7080000D02*
X7774167Y-7160000D01*
X7734167Y-7120000D02*
X7814167Y-7120000D01*
X7812732Y-8814500D02*
X7812732Y-8894500D01*
X7772732Y-8854500D02*
X7852732Y-8854500D01*
X7963232Y-9360500D02*
X7963232Y-9440500D01*
X7923232Y-9400500D02*
X8003232Y-9400500D01*
X7963232Y-9614500D02*
X7963232Y-9694500D01*
X7923232Y-9654500D02*
X8003232Y-9654500D01*
X8213232Y-8560500D02*
X8213232Y-8640500D01*
X8173232Y-8600500D02*
X8253232Y-8600500D01*
X8213232Y-8814500D02*
X8213232Y-8894500D01*
X8173232Y-8854500D02*
X8253232Y-8854500D01*
X8213232Y-9068500D02*
X8213232Y-9148500D01*
X8173232Y-9108500D02*
X8253232Y-9108500D01*
X8263232Y-9310500D02*
X8263232Y-9390500D01*
X8223232Y-9350500D02*
X8303232Y-9350500D01*
X8263232Y-9564500D02*
X8263232Y-9644500D01*
X8223232Y-9604500D02*
X8303232Y-9604500D01*
X8274167Y-1760000D02*
X8274167Y-1840000D01*
X8234167Y-1800000D02*
X8314167Y-1800000D01*
X8274167Y-2860000D02*
X8274167Y-2940000D01*
X8234167Y-2900000D02*
X8314167Y-2900000D01*
X8274167Y-3160000D02*
X8274167Y-3240000D01*
X8234167Y-3200000D02*
X8314167Y-3200000D01*
X8274167Y-4260000D02*
X8274167Y-4340000D01*
X8234167Y-4300000D02*
X8314167Y-4300000D01*
X8274167Y-4580000D02*
X8274167Y-4660000D01*
X8234167Y-4620000D02*
X8314167Y-4620000D01*
X8274167Y-5680000D02*
X8274167Y-5760000D01*
X8234167Y-5720000D02*
X8314167Y-5720000D01*
X8274167Y-5980000D02*
X8274167Y-6060000D01*
X8234167Y-6020000D02*
X8314167Y-6020000D01*
X8274167Y-7080000D02*
X8274167Y-7160000D01*
X8234167Y-7120000D02*
X8314167Y-7120000D01*
X8613232Y-8764500D02*
X8613232Y-8844500D01*
X8573232Y-8804500D02*
X8653232Y-8804500D01*
X8613232Y-9018500D02*
X8613232Y-9098500D01*
X8573232Y-9058500D02*
X8653232Y-9058500D01*
X8613232Y-9310500D02*
X8613232Y-9390500D01*
X8573232Y-9350500D02*
X8653232Y-9350500D01*
X8613232Y-9564500D02*
X8613232Y-9644500D01*
X8573232Y-9604500D02*
X8653232Y-9604500D01*
X8913232Y-9310500D02*
X8913232Y-9390500D01*
X8873232Y-9350500D02*
X8953232Y-9350500D01*
X8913232Y-9564500D02*
X8913232Y-9644500D01*
X8873232Y-9604500D02*
X8953232Y-9604500D01*
X9065667Y-2810000D02*
X9065667Y-2890000D01*
X9025667Y-2850000D02*
X9105667Y-2850000D01*
X9065667Y-4210000D02*
X9065667Y-4290000D01*
X9025667Y-4250000D02*
X9105667Y-4250000D01*
X9065667Y-5630000D02*
X9065667Y-5710000D01*
X9025667Y-5670000D02*
X9105667Y-5670000D01*
X9065667Y-7030000D02*
X9065667Y-7110000D01*
X9025667Y-7070000D02*
X9105667Y-7070000D01*
X9110667Y-3110000D02*
X9110667Y-3190000D01*
X9070667Y-3150000D02*
X9150667Y-3150000D01*
X9110667Y-4510000D02*
X9110667Y-4590000D01*
X9070667Y-4550000D02*
X9150667Y-4550000D01*
X9110667Y-5930000D02*
X9110667Y-6010000D01*
X9070667Y-5970000D02*
X9150667Y-5970000D01*
X9110667Y-7330000D02*
X9110667Y-7410000D01*
X9070667Y-7370000D02*
X9150667Y-7370000D01*
X9319667Y-2810000D02*
X9319667Y-2890000D01*
X9279667Y-2850000D02*
X9359667Y-2850000D01*
X9319667Y-4210000D02*
X9319667Y-4290000D01*
X9279667Y-4250000D02*
X9359667Y-4250000D01*
X9319667Y-5630000D02*
X9319667Y-5710000D01*
X9279667Y-5670000D02*
X9359667Y-5670000D01*
X9319667Y-7030000D02*
X9319667Y-7110000D01*
X9279667Y-7070000D02*
X9359667Y-7070000D01*
X9364667Y-3110000D02*
X9364667Y-3190000D01*
X9324667Y-3150000D02*
X9404667Y-3150000D01*
X9364667Y-4510000D02*
X9364667Y-4590000D01*
X9324667Y-4550000D02*
X9404667Y-4550000D01*
X9364667Y-5930000D02*
X9364667Y-6010000D01*
X9324667Y-5970000D02*
X9404667Y-5970000D01*
X9364667Y-7330000D02*
X9364667Y-7410000D01*
X9324667Y-7370000D02*
X9404667Y-7370000D01*
X10393500Y-2640000D02*
X10393500Y-2720000D01*
X10353500Y-2680000D02*
X10433500Y-2680000D01*
X10393500Y-2940000D02*
X10393500Y-3020000D01*
X10353500Y-2980000D02*
X10433500Y-2980000D01*
X10393500Y-5460000D02*
X10393500Y-5540000D01*
X10353500Y-5500000D02*
X10433500Y-5500000D01*
X10393500Y-5760000D02*
X10393500Y-5840000D01*
X10353500Y-5800000D02*
X10433500Y-5800000D01*
X10473500Y-2290000D02*
X10473500Y-2370000D01*
X10433500Y-2330000D02*
X10513500Y-2330000D01*
X10473500Y-5110000D02*
X10473500Y-5190000D01*
X10433500Y-5150000D02*
X10513500Y-5150000D01*
X10727500Y-2290000D02*
X10727500Y-2370000D01*
X10687500Y-2330000D02*
X10767500Y-2330000D01*
X10727500Y-5110000D02*
X10727500Y-5190000D01*
X10687500Y-5150000D02*
X10767500Y-5150000D01*
X10893500Y-2640000D02*
X10893500Y-2720000D01*
X10853500Y-2680000D02*
X10933500Y-2680000D01*
X10893500Y-2940000D02*
X10893500Y-3020000D01*
X10853500Y-2980000D02*
X10933500Y-2980000D01*
X10893500Y-5460000D02*
X10893500Y-5540000D01*
X10853500Y-5500000D02*
X10933500Y-5500000D01*
X10893500Y-5760000D02*
X10893500Y-5840000D01*
X10853500Y-5800000D02*
X10933500Y-5800000D01*
X1736574Y-2440574D02*
X1736574Y-2369863D01*
X1665862Y-2369863D01*
X1665862Y-2440574D01*
X1736574Y-2440574D01*
X1736574Y-2694574D02*
X1736574Y-2623863D01*
X1665862Y-2623863D01*
X1665862Y-2694574D01*
X1736574Y-2694574D01*
X1885356Y-4935356D02*
X1885356Y-4864644D01*
X1814644Y-4864644D01*
X1814644Y-4935356D01*
X1885356Y-4935356D01*
X1885356Y-5185356D02*
X1885356Y-5114644D01*
X1814644Y-5114644D01*
X1814644Y-5185356D01*
X1885356Y-5185356D01*
X1885356Y-5860356D02*
X1885356Y-5789644D01*
X1814644Y-5789644D01*
X1814644Y-5860356D01*
X1885356Y-5860356D01*
X1885356Y-6110356D02*
X1885356Y-6039644D01*
X1814644Y-6039644D01*
X1814644Y-6110356D01*
X1885356Y-6110356D01*
X2435356Y-4577356D02*
X2435356Y-4506644D01*
X2364644Y-4506644D01*
X2364644Y-4577356D01*
X2435356Y-4577356D01*
X2435356Y-4831356D02*
X2435356Y-4760644D01*
X2364644Y-4760644D01*
X2364644Y-4831356D01*
X2435356Y-4831356D01*
X2435356Y-5085356D02*
X2435356Y-5014644D01*
X2364644Y-5014644D01*
X2364644Y-5085356D01*
X2435356Y-5085356D01*
X3181356Y-5085356D02*
X3181356Y-5014644D01*
X3110644Y-5014644D01*
X3110644Y-5085356D01*
X3181356Y-5085356D01*
X3435356Y-5085356D02*
X3435356Y-5014644D01*
X3364644Y-5014644D01*
X3364644Y-5085356D01*
X3435356Y-5085356D01*
X4285356Y-1507856D02*
X4285356Y-1437144D01*
X4214644Y-1437144D01*
X4214644Y-1507856D01*
X4285356Y-1507856D01*
X4285356Y-1761856D02*
X4285356Y-1691144D01*
X4214644Y-1691144D01*
X4214644Y-1761856D01*
X4285356Y-1761856D01*
X4581856Y-7635356D02*
X4581856Y-7564644D01*
X4511144Y-7564644D01*
X4511144Y-7635356D01*
X4581856Y-7635356D01*
X4835856Y-7635356D02*
X4835856Y-7564644D01*
X4765144Y-7564644D01*
X4765144Y-7635356D01*
X4835856Y-7635356D01*
X5089856Y-7635356D02*
X5089856Y-7564644D01*
X5019144Y-7564644D01*
X5019144Y-7635356D01*
X5089856Y-7635356D01*
X5343856Y-7635356D02*
X5343856Y-7564644D01*
X5273144Y-7564644D01*
X5273144Y-7635356D01*
X5343856Y-7635356D01*
X5354356Y-1677356D02*
X5354356Y-1606644D01*
X5283644Y-1606644D01*
X5283644Y-1677356D01*
X5354356Y-1677356D01*
X5354356Y-1931356D02*
X5354356Y-1860644D01*
X5283644Y-1860644D01*
X5283644Y-1931356D01*
X5354356Y-1931356D01*
X5608356Y-1677356D02*
X5608356Y-1606644D01*
X5537644Y-1606644D01*
X5537644Y-1677356D01*
X5608356Y-1677356D01*
X5608356Y-1931356D02*
X5608356Y-1860644D01*
X5537644Y-1860644D01*
X5537644Y-1931356D01*
X5608356Y-1931356D01*
X5861820Y-8035356D02*
X5861820Y-7964644D01*
X5791109Y-7964644D01*
X5791109Y-8035356D01*
X5861820Y-8035356D01*
X5862356Y-1677356D02*
X5862356Y-1606644D01*
X5791644Y-1606644D01*
X5791644Y-1677356D01*
X5862356Y-1677356D01*
X5862356Y-1931356D02*
X5862356Y-1860644D01*
X5791644Y-1860644D01*
X5791644Y-1931356D01*
X5862356Y-1931356D01*
X6116356Y-1677356D02*
X6116356Y-1606644D01*
X6045644Y-1606644D01*
X6045644Y-1677356D01*
X6116356Y-1677356D01*
X6116356Y-1931356D02*
X6116356Y-1860644D01*
X6045644Y-1860644D01*
X6045644Y-1931356D01*
X6116356Y-1931356D01*
X6285356Y-4181356D02*
X6285356Y-4110644D01*
X6214644Y-4110644D01*
X6214644Y-4181356D01*
X6285356Y-4181356D01*
X6285356Y-4435356D02*
X6285356Y-4364644D01*
X6214644Y-4364644D01*
X6214644Y-4435356D01*
X6285356Y-4435356D01*
X6285356Y-4689356D02*
X6285356Y-4618644D01*
X6214644Y-4618644D01*
X6214644Y-4689356D01*
X6285356Y-4689356D01*
X6285356Y-5335356D02*
X6285356Y-5264644D01*
X6214644Y-5264644D01*
X6214644Y-5335356D01*
X6285356Y-5335356D01*
X6285356Y-5589356D02*
X6285356Y-5518644D01*
X6214644Y-5518644D01*
X6214644Y-5589356D01*
X6285356Y-5589356D01*
X6285356Y-5843356D02*
X6285356Y-5772644D01*
X6214644Y-5772644D01*
X6214644Y-5843356D01*
X6285356Y-5843356D01*
X6361820Y-8035356D02*
X6361820Y-7964644D01*
X6291109Y-7964644D01*
X6291109Y-8035356D01*
X6361820Y-8035356D01*
X6539356Y-4181356D02*
X6539356Y-4110644D01*
X6468644Y-4110644D01*
X6468644Y-4181356D01*
X6539356Y-4181356D01*
X6539356Y-4435356D02*
X6539356Y-4364644D01*
X6468644Y-4364644D01*
X6468644Y-4435356D01*
X6539356Y-4435356D01*
X6539356Y-4689356D02*
X6539356Y-4618644D01*
X6468644Y-4618644D01*
X6468644Y-4689356D01*
X6539356Y-4689356D01*
X7098588Y-8035356D02*
X7098588Y-7964644D01*
X7027877Y-7964644D01*
X7027877Y-8035356D01*
X7098588Y-8035356D01*
X7598588Y-8035356D02*
X7598588Y-7964644D01*
X7527877Y-7964644D01*
X7527877Y-8035356D01*
X7598588Y-8035356D01*
X8361820Y-8035356D02*
X8361820Y-7964644D01*
X8291109Y-7964644D01*
X8291109Y-8035356D01*
X8361820Y-8035356D01*
X8861820Y-8035356D02*
X8861820Y-7964644D01*
X8791109Y-7964644D01*
X8791109Y-8035356D01*
X8861820Y-8035356D01*
X9481356Y-8135356D02*
X9481356Y-8064644D01*
X9410644Y-8064644D01*
X9410644Y-8135356D01*
X9481356Y-8135356D01*
X9639606Y-8585356D02*
X9639606Y-8514644D01*
X9568894Y-8514644D01*
X9568894Y-8585356D01*
X9639606Y-8585356D01*
X9504250Y-8600000D02*
X9704250Y-8600000D01*
X9704250Y-8500000D02*
G75*
G02*
X9704250Y-8600000I0J-50000D01*
G01*
X9704250Y-8500000D02*
X9504250Y-8500000D01*
X9504250Y-8500000D02*
G75*
G03*
X9504250Y-8600000I0J-50000D01*
G01*
X9639606Y-9185356D02*
X9639606Y-9114644D01*
X9568894Y-9114644D01*
X9568894Y-9185356D01*
X9639606Y-9185356D01*
X9504250Y-9200000D02*
X9704250Y-9200000D01*
X9704250Y-9100000D02*
G75*
G02*
X9704250Y-9200000I0J-50000D01*
G01*
X9704250Y-9100000D02*
X9504250Y-9100000D01*
X9504250Y-9100000D02*
G75*
G03*
X9504250Y-9200000I0J-50000D01*
G01*
X9989356Y-8136356D02*
X9989356Y-8065644D01*
X9918644Y-8065644D01*
X9918644Y-8136356D01*
X9989356Y-8136356D01*
X10109606Y-8885356D02*
X10109606Y-8814644D01*
X10038894Y-8814644D01*
X10038894Y-8885356D01*
X10109606Y-8885356D01*
X10124250Y-8950000D02*
X10124250Y-8750000D01*
X10024250Y-8750000D02*
G75*
G02*
X10124250Y-8750000I50000J0D01*
G01*
X10024250Y-8750000D02*
X10024250Y-8950000D01*
X10024250Y-8950000D02*
G75*
G03*
X10124250Y-8950000I50000J0D01*
G01*
X10713856Y-3565356D02*
X10713856Y-3494644D01*
X10643144Y-3494644D01*
X10643144Y-3565356D01*
X10713856Y-3565356D01*
X10713856Y-3815356D02*
X10713856Y-3744644D01*
X10643144Y-3744644D01*
X10643144Y-3815356D01*
X10713856Y-3815356D01*
X10713856Y-6385356D02*
X10713856Y-6314644D01*
X10643144Y-6314644D01*
X10643144Y-6385356D01*
X10713856Y-6385356D01*
X10713856Y-6635356D02*
X10713856Y-6564644D01*
X10643144Y-6564644D01*
X10643144Y-6635356D01*
X10713856Y-6635356D01*
X10735356Y-8485356D02*
X10735356Y-8414644D01*
X10664644Y-8414644D01*
X10664644Y-8485356D01*
X10735356Y-8485356D01*
X10735356Y-8735356D02*
X10735356Y-8664644D01*
X10664644Y-8664644D01*
X10664644Y-8735356D01*
X10735356Y-8735356D01*
D13*
X2100000Y-3151000D02*
X2155000Y-3096000D01*
X2100000Y-3041000D01*
X2045000Y-3096000D01*
X2100000Y-3151000D01*
X2100000Y-3405000D02*
X2155000Y-3350000D01*
X2100000Y-3295000D01*
X2045000Y-3350000D01*
X2100000Y-3405000D01*
X2396000Y-5817873D02*
X2451000Y-5762873D01*
X2396000Y-5707873D01*
X2341000Y-5762873D01*
X2396000Y-5817873D01*
X2396000Y-6180000D02*
X2451000Y-6125000D01*
X2396000Y-6070000D01*
X2341000Y-6125000D01*
X2396000Y-6180000D01*
X2446000Y-5455000D02*
X2501000Y-5400000D01*
X2446000Y-5345000D01*
X2391000Y-5400000D01*
X2446000Y-5455000D01*
X2446000Y-6505000D02*
X2501000Y-6450000D01*
X2446000Y-6395000D01*
X2391000Y-6450000D01*
X2446000Y-6505000D01*
X2500000Y-3156218D02*
X2555000Y-3101218D01*
X2500000Y-3046218D01*
X2445000Y-3101218D01*
X2500000Y-3156218D01*
X2500000Y-3410218D02*
X2555000Y-3355218D01*
X2500000Y-3300218D01*
X2445000Y-3355218D01*
X2500000Y-3410218D01*
X2650000Y-5817873D02*
X2705000Y-5762873D01*
X2650000Y-5707873D01*
X2595000Y-5762873D01*
X2650000Y-5817873D01*
X2650000Y-6180000D02*
X2705000Y-6125000D01*
X2650000Y-6070000D01*
X2595000Y-6125000D01*
X2650000Y-6180000D01*
X2700000Y-5455000D02*
X2755000Y-5400000D01*
X2700000Y-5345000D01*
X2645000Y-5400000D01*
X2700000Y-5455000D01*
X2700000Y-6505000D02*
X2755000Y-6450000D01*
X2700000Y-6395000D01*
X2645000Y-6450000D01*
X2700000Y-6505000D01*
X5409232Y-9360000D02*
X5464232Y-9305000D01*
X5409232Y-9250000D01*
X5354232Y-9305000D01*
X5409232Y-9360000D01*
X5663232Y-9360000D02*
X5718232Y-9305000D01*
X5663232Y-9250000D01*
X5608232Y-9305000D01*
X5663232Y-9360000D01*
X5917232Y-9360000D02*
X5972232Y-9305000D01*
X5917232Y-9250000D01*
X5862232Y-9305000D01*
X5917232Y-9360000D01*
X6609232Y-9360000D02*
X6664232Y-9305000D01*
X6609232Y-9250000D01*
X6554232Y-9305000D01*
X6609232Y-9360000D01*
X6863232Y-9360000D02*
X6918232Y-9305000D01*
X6863232Y-9250000D01*
X6808232Y-9305000D01*
X6863232Y-9360000D01*
X7117232Y-9360000D02*
X7172232Y-9305000D01*
X7117232Y-9250000D01*
X7062232Y-9305000D01*
X7117232Y-9360000D01*
X7785167Y-2176000D02*
X7840167Y-2121000D01*
X7785167Y-2066000D01*
X7730167Y-2121000D01*
X7785167Y-2176000D01*
X7785167Y-2405000D02*
X7840167Y-2350000D01*
X7785167Y-2295000D01*
X7730167Y-2350000D01*
X7785167Y-2405000D01*
X7785167Y-2634000D02*
X7840167Y-2579000D01*
X7785167Y-2524000D01*
X7730167Y-2579000D01*
X7785167Y-2634000D01*
X7785167Y-3576000D02*
X7840167Y-3521000D01*
X7785167Y-3466000D01*
X7730167Y-3521000D01*
X7785167Y-3576000D01*
X7785167Y-3805000D02*
X7840167Y-3750000D01*
X7785167Y-3695000D01*
X7730167Y-3750000D01*
X7785167Y-3805000D01*
X7785167Y-4034000D02*
X7840167Y-3979000D01*
X7785167Y-3924000D01*
X7730167Y-3979000D01*
X7785167Y-4034000D01*
X7785167Y-4996000D02*
X7840167Y-4941000D01*
X7785167Y-4886000D01*
X7730167Y-4941000D01*
X7785167Y-4996000D01*
X7785167Y-5225000D02*
X7840167Y-5170000D01*
X7785167Y-5115000D01*
X7730167Y-5170000D01*
X7785167Y-5225000D01*
X7785167Y-5454000D02*
X7840167Y-5399000D01*
X7785167Y-5344000D01*
X7730167Y-5399000D01*
X7785167Y-5454000D01*
X7785167Y-6396000D02*
X7840167Y-6341000D01*
X7785167Y-6286000D01*
X7730167Y-6341000D01*
X7785167Y-6396000D01*
X7785167Y-6625000D02*
X7840167Y-6570000D01*
X7785167Y-6515000D01*
X7730167Y-6570000D01*
X7785167Y-6625000D01*
X7785167Y-6854000D02*
X7840167Y-6799000D01*
X7785167Y-6744000D01*
X7730167Y-6799000D01*
X7785167Y-6854000D01*
X9076667Y-2176000D02*
X9131667Y-2121000D01*
X9076667Y-2066000D01*
X9021667Y-2121000D01*
X9076667Y-2176000D01*
X9076667Y-2405000D02*
X9131667Y-2350000D01*
X9076667Y-2295000D01*
X9021667Y-2350000D01*
X9076667Y-2405000D01*
X9076667Y-2634000D02*
X9131667Y-2579000D01*
X9076667Y-2524000D01*
X9021667Y-2579000D01*
X9076667Y-2634000D01*
X9076667Y-3576000D02*
X9131667Y-3521000D01*
X9076667Y-3466000D01*
X9021667Y-3521000D01*
X9076667Y-3576000D01*
X9076667Y-3805000D02*
X9131667Y-3750000D01*
X9076667Y-3695000D01*
X9021667Y-3750000D01*
X9076667Y-3805000D01*
X9076667Y-4034000D02*
X9131667Y-3979000D01*
X9076667Y-3924000D01*
X9021667Y-3979000D01*
X9076667Y-4034000D01*
X9076667Y-4996000D02*
X9131667Y-4941000D01*
X9076667Y-4886000D01*
X9021667Y-4941000D01*
X9076667Y-4996000D01*
X9076667Y-5225000D02*
X9131667Y-5170000D01*
X9076667Y-5115000D01*
X9021667Y-5170000D01*
X9076667Y-5225000D01*
X9076667Y-5454000D02*
X9131667Y-5399000D01*
X9076667Y-5344000D01*
X9021667Y-5399000D01*
X9076667Y-5454000D01*
X9076667Y-6396000D02*
X9131667Y-6341000D01*
X9076667Y-6286000D01*
X9021667Y-6341000D01*
X9076667Y-6396000D01*
X9076667Y-6625000D02*
X9131667Y-6570000D01*
X9076667Y-6515000D01*
X9021667Y-6570000D01*
X9076667Y-6625000D01*
X9076667Y-6854000D02*
X9131667Y-6799000D01*
X9076667Y-6744000D01*
X9021667Y-6799000D01*
X9076667Y-6854000D01*
D14*
X3225000Y-3795000D02*
X3375000Y-3945000D01*
X3375000Y-3795000D02*
X3225000Y-3945000D01*
X3375000Y-3870000D02*
G75*
G02*
X3225000Y-3870000I-75000J0D01*
G01*
X3225000Y-3870000D02*
G75*
G02*
X3375000Y-3870000I75000J0D01*
G01*
D12*
X3375000Y-3955000D02*
X3375000Y-3785000D01*
X3225000Y-3785000D02*
G75*
G02*
X3375000Y-3785000I75000J0D01*
G01*
X3225000Y-3785000D02*
X3225000Y-3955000D01*
X3225000Y-3955000D02*
G75*
G03*
X3375000Y-3955000I75000J0D01*
G01*
D14*
X3225000Y-4555000D02*
X3375000Y-4705000D01*
X3375000Y-4555000D02*
X3225000Y-4705000D01*
X3375000Y-4630000D02*
G75*
G02*
X3225000Y-4630000I-75000J0D01*
G01*
X3225000Y-4630000D02*
G75*
G02*
X3375000Y-4630000I75000J0D01*
G01*
D12*
X3375000Y-4715000D02*
X3375000Y-4545000D01*
X3225000Y-4545000D02*
G75*
G02*
X3375000Y-4545000I75000J0D01*
G01*
X3225000Y-4545000D02*
X3225000Y-4715000D01*
X3225000Y-4715000D02*
G75*
G03*
X3375000Y-4715000I75000J0D01*
G01*
D15*
X1590000Y-1590000D02*
X1910000Y-1910000D01*
X1910000Y-1590000D02*
X1590000Y-1910000D01*
X1750000Y-1590000D02*
X1750000Y-1910000D01*
X1590000Y-1750000D02*
X1910000Y-1750000D01*
X1590000Y-9180000D02*
X1910000Y-9500000D01*
X1910000Y-9180000D02*
X1590000Y-9500000D01*
X1750000Y-9180000D02*
X1750000Y-9500000D01*
X1590000Y-9340000D02*
X1910000Y-9340000D01*
X10430000Y-1590000D02*
X10750000Y-1910000D01*
X10750000Y-1590000D02*
X10430000Y-1910000D01*
X10590000Y-1590000D02*
X10590000Y-1910000D01*
X10430000Y-1750000D02*
X10750000Y-1750000D01*
X10430000Y-9180000D02*
X10750000Y-9500000D01*
X10750000Y-9180000D02*
X10430000Y-9500000D01*
X10590000Y-9180000D02*
X10590000Y-9500000D01*
X10430000Y-9340000D02*
X10750000Y-9340000D01*
D11*
X1458277Y-10263984D02*
X1458277Y-10063984D01*
X1458277Y-10063984D02*
X1505896Y-10063984D01*
X1505896Y-10063984D02*
X1534467Y-10073508D01*
X1534467Y-10073508D02*
X1553515Y-10092555D01*
X1553515Y-10092555D02*
X1563039Y-10111603D01*
X1563039Y-10111603D02*
X1572562Y-10149698D01*
X1572562Y-10149698D02*
X1572562Y-10178270D01*
X1572562Y-10178270D02*
X1563039Y-10216365D01*
X1563039Y-10216365D02*
X1553515Y-10235412D01*
X1553515Y-10235412D02*
X1534467Y-10254460D01*
X1534467Y-10254460D02*
X1505896Y-10263984D01*
X1505896Y-10263984D02*
X1458277Y-10263984D01*
X1658277Y-10263984D02*
X1658277Y-10130650D01*
X1658277Y-10168746D02*
X1667801Y-10149698D01*
X1667801Y-10149698D02*
X1677324Y-10140174D01*
X1677324Y-10140174D02*
X1696372Y-10130650D01*
X1696372Y-10130650D02*
X1715420Y-10130650D01*
X1782086Y-10263984D02*
X1782086Y-10130650D01*
X1782086Y-10063984D02*
X1772562Y-10073508D01*
X1772562Y-10073508D02*
X1782086Y-10083031D01*
X1782086Y-10083031D02*
X1791610Y-10073508D01*
X1791610Y-10073508D02*
X1782086Y-10063984D01*
X1782086Y-10063984D02*
X1782086Y-10083031D01*
X1905896Y-10263984D02*
X1886848Y-10254460D01*
X1886848Y-10254460D02*
X1877324Y-10235412D01*
X1877324Y-10235412D02*
X1877324Y-10063984D01*
X2010658Y-10263984D02*
X1991610Y-10254460D01*
X1991610Y-10254460D02*
X1982086Y-10235412D01*
X1982086Y-10235412D02*
X1982086Y-10063984D01*
X2239229Y-10263984D02*
X2239229Y-10063984D01*
X2239229Y-10063984D02*
X2305896Y-10206841D01*
X2305896Y-10206841D02*
X2372563Y-10063984D01*
X2372563Y-10063984D02*
X2372563Y-10263984D01*
X2553515Y-10263984D02*
X2553515Y-10159222D01*
X2553515Y-10159222D02*
X2543991Y-10140174D01*
X2543991Y-10140174D02*
X2524944Y-10130650D01*
X2524944Y-10130650D02*
X2486848Y-10130650D01*
X2486848Y-10130650D02*
X2467801Y-10140174D01*
X2553515Y-10254460D02*
X2534467Y-10263984D01*
X2534467Y-10263984D02*
X2486848Y-10263984D01*
X2486848Y-10263984D02*
X2467801Y-10254460D01*
X2467801Y-10254460D02*
X2458277Y-10235412D01*
X2458277Y-10235412D02*
X2458277Y-10216365D01*
X2458277Y-10216365D02*
X2467801Y-10197317D01*
X2467801Y-10197317D02*
X2486848Y-10187793D01*
X2486848Y-10187793D02*
X2534467Y-10187793D01*
X2534467Y-10187793D02*
X2553515Y-10178270D01*
X2648753Y-10130650D02*
X2648753Y-10330650D01*
X2648753Y-10140174D02*
X2667801Y-10130650D01*
X2667801Y-10130650D02*
X2705896Y-10130650D01*
X2705896Y-10130650D02*
X2724944Y-10140174D01*
X2724944Y-10140174D02*
X2734467Y-10149698D01*
X2734467Y-10149698D02*
X2743991Y-10168746D01*
X2743991Y-10168746D02*
X2743991Y-10225889D01*
X2743991Y-10225889D02*
X2734467Y-10244936D01*
X2734467Y-10244936D02*
X2724944Y-10254460D01*
X2724944Y-10254460D02*
X2705896Y-10263984D01*
X2705896Y-10263984D02*
X2667801Y-10263984D01*
X2667801Y-10263984D02*
X2648753Y-10254460D01*
X2829705Y-10244936D02*
X2839229Y-10254460D01*
X2839229Y-10254460D02*
X2829705Y-10263984D01*
X2829705Y-10263984D02*
X2820182Y-10254460D01*
X2820182Y-10254460D02*
X2829705Y-10244936D01*
X2829705Y-10244936D02*
X2829705Y-10263984D01*
X2829705Y-10140174D02*
X2839229Y-10149698D01*
X2839229Y-10149698D02*
X2829705Y-10159222D01*
X2829705Y-10159222D02*
X2820182Y-10149698D01*
X2820182Y-10149698D02*
X2829705Y-10140174D01*
X2829705Y-10140174D02*
X2829705Y-10159222D01*
D12*
X1167500Y-10577500D02*
X1197500Y-10607500D01*
X1197500Y-10577500D02*
X1167500Y-10607500D01*
D11*
X1496372Y-10483984D02*
X1515420Y-10483984D01*
X1515420Y-10483984D02*
X1534467Y-10493508D01*
X1534467Y-10493508D02*
X1543991Y-10503031D01*
X1543991Y-10503031D02*
X1553515Y-10522079D01*
X1553515Y-10522079D02*
X1563039Y-10560174D01*
X1563039Y-10560174D02*
X1563039Y-10607793D01*
X1563039Y-10607793D02*
X1553515Y-10645889D01*
X1553515Y-10645889D02*
X1543991Y-10664936D01*
X1543991Y-10664936D02*
X1534467Y-10674460D01*
X1534467Y-10674460D02*
X1515420Y-10683984D01*
X1515420Y-10683984D02*
X1496372Y-10683984D01*
X1496372Y-10683984D02*
X1477324Y-10674460D01*
X1477324Y-10674460D02*
X1467801Y-10664936D01*
X1467801Y-10664936D02*
X1458277Y-10645889D01*
X1458277Y-10645889D02*
X1448753Y-10607793D01*
X1448753Y-10607793D02*
X1448753Y-10560174D01*
X1448753Y-10560174D02*
X1458277Y-10522079D01*
X1458277Y-10522079D02*
X1467801Y-10503031D01*
X1467801Y-10503031D02*
X1477324Y-10493508D01*
X1477324Y-10493508D02*
X1496372Y-10483984D01*
X1648753Y-10664936D02*
X1658277Y-10674460D01*
X1658277Y-10674460D02*
X1648753Y-10683984D01*
X1648753Y-10683984D02*
X1639229Y-10674460D01*
X1639229Y-10674460D02*
X1648753Y-10664936D01*
X1648753Y-10664936D02*
X1648753Y-10683984D01*
X1724943Y-10483984D02*
X1848753Y-10483984D01*
X1848753Y-10483984D02*
X1782086Y-10560174D01*
X1782086Y-10560174D02*
X1810658Y-10560174D01*
X1810658Y-10560174D02*
X1829705Y-10569698D01*
X1829705Y-10569698D02*
X1839229Y-10579222D01*
X1839229Y-10579222D02*
X1848753Y-10598270D01*
X1848753Y-10598270D02*
X1848753Y-10645889D01*
X1848753Y-10645889D02*
X1839229Y-10664936D01*
X1839229Y-10664936D02*
X1829705Y-10674460D01*
X1829705Y-10674460D02*
X1810658Y-10683984D01*
X1810658Y-10683984D02*
X1753515Y-10683984D01*
X1753515Y-10683984D02*
X1734467Y-10674460D01*
X1734467Y-10674460D02*
X1724943Y-10664936D01*
X1972562Y-10483984D02*
X1991610Y-10483984D01*
X1991610Y-10483984D02*
X2010658Y-10493508D01*
X2010658Y-10493508D02*
X2020182Y-10503031D01*
X2020182Y-10503031D02*
X2029705Y-10522079D01*
X2029705Y-10522079D02*
X2039229Y-10560174D01*
X2039229Y-10560174D02*
X2039229Y-10607793D01*
X2039229Y-10607793D02*
X2029705Y-10645889D01*
X2029705Y-10645889D02*
X2020182Y-10664936D01*
X2020182Y-10664936D02*
X2010658Y-10674460D01*
X2010658Y-10674460D02*
X1991610Y-10683984D01*
X1991610Y-10683984D02*
X1972562Y-10683984D01*
X1972562Y-10683984D02*
X1953515Y-10674460D01*
X1953515Y-10674460D02*
X1943991Y-10664936D01*
X1943991Y-10664936D02*
X1934467Y-10645889D01*
X1934467Y-10645889D02*
X1924943Y-10607793D01*
X1924943Y-10607793D02*
X1924943Y-10560174D01*
X1924943Y-10560174D02*
X1934467Y-10522079D01*
X1934467Y-10522079D02*
X1943991Y-10503031D01*
X1943991Y-10503031D02*
X1953515Y-10493508D01*
X1953515Y-10493508D02*
X1972562Y-10483984D01*
X2163039Y-10483984D02*
X2182086Y-10483984D01*
X2182086Y-10483984D02*
X2201134Y-10493508D01*
X2201134Y-10493508D02*
X2210658Y-10503031D01*
X2210658Y-10503031D02*
X2220182Y-10522079D01*
X2220182Y-10522079D02*
X2229705Y-10560174D01*
X2229705Y-10560174D02*
X2229705Y-10607793D01*
X2229705Y-10607793D02*
X2220182Y-10645889D01*
X2220182Y-10645889D02*
X2210658Y-10664936D01*
X2210658Y-10664936D02*
X2201134Y-10674460D01*
X2201134Y-10674460D02*
X2182086Y-10683984D01*
X2182086Y-10683984D02*
X2163039Y-10683984D01*
X2163039Y-10683984D02*
X2143991Y-10674460D01*
X2143991Y-10674460D02*
X2134467Y-10664936D01*
X2134467Y-10664936D02*
X2124944Y-10645889D01*
X2124944Y-10645889D02*
X2115420Y-10607793D01*
X2115420Y-10607793D02*
X2115420Y-10560174D01*
X2115420Y-10560174D02*
X2124944Y-10522079D01*
X2124944Y-10522079D02*
X2134467Y-10503031D01*
X2134467Y-10503031D02*
X2143991Y-10493508D01*
X2143991Y-10493508D02*
X2163039Y-10483984D01*
X2315420Y-10683984D02*
X2315420Y-10550650D01*
X2315420Y-10569698D02*
X2324944Y-10560174D01*
X2324944Y-10560174D02*
X2343991Y-10550650D01*
X2343991Y-10550650D02*
X2372563Y-10550650D01*
X2372563Y-10550650D02*
X2391610Y-10560174D01*
X2391610Y-10560174D02*
X2401134Y-10579222D01*
X2401134Y-10579222D02*
X2401134Y-10683984D01*
X2401134Y-10579222D02*
X2410658Y-10560174D01*
X2410658Y-10560174D02*
X2429705Y-10550650D01*
X2429705Y-10550650D02*
X2458277Y-10550650D01*
X2458277Y-10550650D02*
X2477325Y-10560174D01*
X2477325Y-10560174D02*
X2486848Y-10579222D01*
X2486848Y-10579222D02*
X2486848Y-10683984D01*
X2582086Y-10683984D02*
X2582086Y-10550650D01*
X2582086Y-10569698D02*
X2591610Y-10560174D01*
X2591610Y-10560174D02*
X2610658Y-10550650D01*
X2610658Y-10550650D02*
X2639229Y-10550650D01*
X2639229Y-10550650D02*
X2658277Y-10560174D01*
X2658277Y-10560174D02*
X2667801Y-10579222D01*
X2667801Y-10579222D02*
X2667801Y-10683984D01*
X2667801Y-10579222D02*
X2677325Y-10560174D01*
X2677325Y-10560174D02*
X2696372Y-10550650D01*
X2696372Y-10550650D02*
X2724944Y-10550650D01*
X2724944Y-10550650D02*
X2743991Y-10560174D01*
X2743991Y-10560174D02*
X2753515Y-10579222D01*
X2753515Y-10579222D02*
X2753515Y-10683984D01*
X3143991Y-10474460D02*
X2972563Y-10731603D01*
X3401134Y-10483984D02*
X3420182Y-10483984D01*
X3420182Y-10483984D02*
X3439229Y-10493508D01*
X3439229Y-10493508D02*
X3448753Y-10503031D01*
X3448753Y-10503031D02*
X3458277Y-10522079D01*
X3458277Y-10522079D02*
X3467801Y-10560174D01*
X3467801Y-10560174D02*
X3467801Y-10607793D01*
X3467801Y-10607793D02*
X3458277Y-10645889D01*
X3458277Y-10645889D02*
X3448753Y-10664936D01*
X3448753Y-10664936D02*
X3439229Y-10674460D01*
X3439229Y-10674460D02*
X3420182Y-10683984D01*
X3420182Y-10683984D02*
X3401134Y-10683984D01*
X3401134Y-10683984D02*
X3382086Y-10674460D01*
X3382086Y-10674460D02*
X3372563Y-10664936D01*
X3372563Y-10664936D02*
X3363039Y-10645889D01*
X3363039Y-10645889D02*
X3353515Y-10607793D01*
X3353515Y-10607793D02*
X3353515Y-10560174D01*
X3353515Y-10560174D02*
X3363039Y-10522079D01*
X3363039Y-10522079D02*
X3372563Y-10503031D01*
X3372563Y-10503031D02*
X3382086Y-10493508D01*
X3382086Y-10493508D02*
X3401134Y-10483984D01*
X3553515Y-10664936D02*
X3563039Y-10674460D01*
X3563039Y-10674460D02*
X3553515Y-10683984D01*
X3553515Y-10683984D02*
X3543991Y-10674460D01*
X3543991Y-10674460D02*
X3553515Y-10664936D01*
X3553515Y-10664936D02*
X3553515Y-10683984D01*
X3686848Y-10483984D02*
X3705896Y-10483984D01*
X3705896Y-10483984D02*
X3724944Y-10493508D01*
X3724944Y-10493508D02*
X3734467Y-10503031D01*
X3734467Y-10503031D02*
X3743991Y-10522079D01*
X3743991Y-10522079D02*
X3753515Y-10560174D01*
X3753515Y-10560174D02*
X3753515Y-10607793D01*
X3753515Y-10607793D02*
X3743991Y-10645889D01*
X3743991Y-10645889D02*
X3734467Y-10664936D01*
X3734467Y-10664936D02*
X3724944Y-10674460D01*
X3724944Y-10674460D02*
X3705896Y-10683984D01*
X3705896Y-10683984D02*
X3686848Y-10683984D01*
X3686848Y-10683984D02*
X3667801Y-10674460D01*
X3667801Y-10674460D02*
X3658277Y-10664936D01*
X3658277Y-10664936D02*
X3648753Y-10645889D01*
X3648753Y-10645889D02*
X3639229Y-10607793D01*
X3639229Y-10607793D02*
X3639229Y-10560174D01*
X3639229Y-10560174D02*
X3648753Y-10522079D01*
X3648753Y-10522079D02*
X3658277Y-10503031D01*
X3658277Y-10503031D02*
X3667801Y-10493508D01*
X3667801Y-10493508D02*
X3686848Y-10483984D01*
X3943991Y-10683984D02*
X3829706Y-10683984D01*
X3886848Y-10683984D02*
X3886848Y-10483984D01*
X3886848Y-10483984D02*
X3867801Y-10512555D01*
X3867801Y-10512555D02*
X3848753Y-10531603D01*
X3848753Y-10531603D02*
X3829706Y-10541127D01*
X4134467Y-10683984D02*
X4020182Y-10683984D01*
X4077325Y-10683984D02*
X4077325Y-10483984D01*
X4077325Y-10483984D02*
X4058277Y-10512555D01*
X4058277Y-10512555D02*
X4039229Y-10531603D01*
X4039229Y-10531603D02*
X4020182Y-10541127D01*
X4248753Y-10569698D02*
X4229706Y-10560174D01*
X4229706Y-10560174D02*
X4220182Y-10550650D01*
X4220182Y-10550650D02*
X4210658Y-10531603D01*
X4210658Y-10531603D02*
X4210658Y-10522079D01*
X4210658Y-10522079D02*
X4220182Y-10503031D01*
X4220182Y-10503031D02*
X4229706Y-10493508D01*
X4229706Y-10493508D02*
X4248753Y-10483984D01*
X4248753Y-10483984D02*
X4286849Y-10483984D01*
X4286849Y-10483984D02*
X4305896Y-10493508D01*
X4305896Y-10493508D02*
X4315420Y-10503031D01*
X4315420Y-10503031D02*
X4324944Y-10522079D01*
X4324944Y-10522079D02*
X4324944Y-10531603D01*
X4324944Y-10531603D02*
X4315420Y-10550650D01*
X4315420Y-10550650D02*
X4305896Y-10560174D01*
X4305896Y-10560174D02*
X4286849Y-10569698D01*
X4286849Y-10569698D02*
X4248753Y-10569698D01*
X4248753Y-10569698D02*
X4229706Y-10579222D01*
X4229706Y-10579222D02*
X4220182Y-10588746D01*
X4220182Y-10588746D02*
X4210658Y-10607793D01*
X4210658Y-10607793D02*
X4210658Y-10645889D01*
X4210658Y-10645889D02*
X4220182Y-10664936D01*
X4220182Y-10664936D02*
X4229706Y-10674460D01*
X4229706Y-10674460D02*
X4248753Y-10683984D01*
X4248753Y-10683984D02*
X4286849Y-10683984D01*
X4286849Y-10683984D02*
X4305896Y-10674460D01*
X4305896Y-10674460D02*
X4315420Y-10664936D01*
X4315420Y-10664936D02*
X4324944Y-10645889D01*
X4324944Y-10645889D02*
X4324944Y-10607793D01*
X4324944Y-10607793D02*
X4315420Y-10588746D01*
X4315420Y-10588746D02*
X4305896Y-10579222D01*
X4305896Y-10579222D02*
X4286849Y-10569698D01*
X4401134Y-10483984D02*
X4401134Y-10522079D01*
X4477325Y-10483984D02*
X4477325Y-10522079D01*
X4772563Y-10760174D02*
X4763039Y-10750650D01*
X4763039Y-10750650D02*
X4743991Y-10722079D01*
X4743991Y-10722079D02*
X4734468Y-10703031D01*
X4734468Y-10703031D02*
X4724944Y-10674460D01*
X4724944Y-10674460D02*
X4715420Y-10626841D01*
X4715420Y-10626841D02*
X4715420Y-10588746D01*
X4715420Y-10588746D02*
X4724944Y-10541127D01*
X4724944Y-10541127D02*
X4734468Y-10512555D01*
X4734468Y-10512555D02*
X4743991Y-10493508D01*
X4743991Y-10493508D02*
X4763039Y-10464936D01*
X4763039Y-10464936D02*
X4772563Y-10455412D01*
X4953515Y-10683984D02*
X4839230Y-10683984D01*
X4896372Y-10683984D02*
X4896372Y-10483984D01*
X4896372Y-10483984D02*
X4877325Y-10512555D01*
X4877325Y-10512555D02*
X4858277Y-10531603D01*
X4858277Y-10531603D02*
X4839230Y-10541127D01*
X5020182Y-10483984D02*
X5153515Y-10483984D01*
X5153515Y-10483984D02*
X5067801Y-10683984D01*
X5382087Y-10683984D02*
X5382087Y-10483984D01*
X5467801Y-10683984D02*
X5467801Y-10579222D01*
X5467801Y-10579222D02*
X5458277Y-10560174D01*
X5458277Y-10560174D02*
X5439230Y-10550650D01*
X5439230Y-10550650D02*
X5410658Y-10550650D01*
X5410658Y-10550650D02*
X5391611Y-10560174D01*
X5391611Y-10560174D02*
X5382087Y-10569698D01*
X5591611Y-10683984D02*
X5572563Y-10674460D01*
X5572563Y-10674460D02*
X5563039Y-10664936D01*
X5563039Y-10664936D02*
X5553515Y-10645889D01*
X5553515Y-10645889D02*
X5553515Y-10588746D01*
X5553515Y-10588746D02*
X5563039Y-10569698D01*
X5563039Y-10569698D02*
X5572563Y-10560174D01*
X5572563Y-10560174D02*
X5591611Y-10550650D01*
X5591611Y-10550650D02*
X5620182Y-10550650D01*
X5620182Y-10550650D02*
X5639230Y-10560174D01*
X5639230Y-10560174D02*
X5648753Y-10569698D01*
X5648753Y-10569698D02*
X5658277Y-10588746D01*
X5658277Y-10588746D02*
X5658277Y-10645889D01*
X5658277Y-10645889D02*
X5648753Y-10664936D01*
X5648753Y-10664936D02*
X5639230Y-10674460D01*
X5639230Y-10674460D02*
X5620182Y-10683984D01*
X5620182Y-10683984D02*
X5591611Y-10683984D01*
X5772563Y-10683984D02*
X5753515Y-10674460D01*
X5753515Y-10674460D02*
X5743991Y-10655412D01*
X5743991Y-10655412D02*
X5743991Y-10483984D01*
X5924944Y-10674460D02*
X5905896Y-10683984D01*
X5905896Y-10683984D02*
X5867801Y-10683984D01*
X5867801Y-10683984D02*
X5848753Y-10674460D01*
X5848753Y-10674460D02*
X5839230Y-10655412D01*
X5839230Y-10655412D02*
X5839230Y-10579222D01*
X5839230Y-10579222D02*
X5848753Y-10560174D01*
X5848753Y-10560174D02*
X5867801Y-10550650D01*
X5867801Y-10550650D02*
X5905896Y-10550650D01*
X5905896Y-10550650D02*
X5924944Y-10560174D01*
X5924944Y-10560174D02*
X5934468Y-10579222D01*
X5934468Y-10579222D02*
X5934468Y-10598270D01*
X5934468Y-10598270D02*
X5839230Y-10617317D01*
X6010658Y-10674460D02*
X6029706Y-10683984D01*
X6029706Y-10683984D02*
X6067801Y-10683984D01*
X6067801Y-10683984D02*
X6086849Y-10674460D01*
X6086849Y-10674460D02*
X6096372Y-10655412D01*
X6096372Y-10655412D02*
X6096372Y-10645889D01*
X6096372Y-10645889D02*
X6086849Y-10626841D01*
X6086849Y-10626841D02*
X6067801Y-10617317D01*
X6067801Y-10617317D02*
X6039230Y-10617317D01*
X6039230Y-10617317D02*
X6020182Y-10607793D01*
X6020182Y-10607793D02*
X6010658Y-10588746D01*
X6010658Y-10588746D02*
X6010658Y-10579222D01*
X6010658Y-10579222D02*
X6020182Y-10560174D01*
X6020182Y-10560174D02*
X6039230Y-10550650D01*
X6039230Y-10550650D02*
X6067801Y-10550650D01*
X6067801Y-10550650D02*
X6086849Y-10560174D01*
X6163039Y-10760174D02*
X6172563Y-10750650D01*
X6172563Y-10750650D02*
X6191611Y-10722079D01*
X6191611Y-10722079D02*
X6201134Y-10703031D01*
X6201134Y-10703031D02*
X6210658Y-10674460D01*
X6210658Y-10674460D02*
X6220182Y-10626841D01*
X6220182Y-10626841D02*
X6220182Y-10588746D01*
X6220182Y-10588746D02*
X6210658Y-10541127D01*
X6210658Y-10541127D02*
X6201134Y-10512555D01*
X6201134Y-10512555D02*
X6191611Y-10493508D01*
X6191611Y-10493508D02*
X6172563Y-10464936D01*
X6172563Y-10464936D02*
X6163039Y-10455412D01*
D12*
X1197500Y-10856500D02*
G75*
G02*
X1121300Y-10856500I-38100J0D01*
G01*
X1121300Y-10856500D02*
G75*
G02*
X1197500Y-10856500I38100J0D01*
G01*
D11*
X1496372Y-10747984D02*
X1515420Y-10747984D01*
X1515420Y-10747984D02*
X1534467Y-10757508D01*
X1534467Y-10757508D02*
X1543991Y-10767031D01*
X1543991Y-10767031D02*
X1553515Y-10786079D01*
X1553515Y-10786079D02*
X1563039Y-10824174D01*
X1563039Y-10824174D02*
X1563039Y-10871793D01*
X1563039Y-10871793D02*
X1553515Y-10909889D01*
X1553515Y-10909889D02*
X1543991Y-10928936D01*
X1543991Y-10928936D02*
X1534467Y-10938460D01*
X1534467Y-10938460D02*
X1515420Y-10947984D01*
X1515420Y-10947984D02*
X1496372Y-10947984D01*
X1496372Y-10947984D02*
X1477324Y-10938460D01*
X1477324Y-10938460D02*
X1467801Y-10928936D01*
X1467801Y-10928936D02*
X1458277Y-10909889D01*
X1458277Y-10909889D02*
X1448753Y-10871793D01*
X1448753Y-10871793D02*
X1448753Y-10824174D01*
X1448753Y-10824174D02*
X1458277Y-10786079D01*
X1458277Y-10786079D02*
X1467801Y-10767031D01*
X1467801Y-10767031D02*
X1477324Y-10757508D01*
X1477324Y-10757508D02*
X1496372Y-10747984D01*
X1648753Y-10928936D02*
X1658277Y-10938460D01*
X1658277Y-10938460D02*
X1648753Y-10947984D01*
X1648753Y-10947984D02*
X1639229Y-10938460D01*
X1639229Y-10938460D02*
X1648753Y-10928936D01*
X1648753Y-10928936D02*
X1648753Y-10947984D01*
X1724943Y-10747984D02*
X1858277Y-10747984D01*
X1858277Y-10747984D02*
X1772562Y-10947984D01*
X2020182Y-10747984D02*
X1982086Y-10747984D01*
X1982086Y-10747984D02*
X1963039Y-10757508D01*
X1963039Y-10757508D02*
X1953515Y-10767031D01*
X1953515Y-10767031D02*
X1934467Y-10795603D01*
X1934467Y-10795603D02*
X1924943Y-10833698D01*
X1924943Y-10833698D02*
X1924943Y-10909889D01*
X1924943Y-10909889D02*
X1934467Y-10928936D01*
X1934467Y-10928936D02*
X1943991Y-10938460D01*
X1943991Y-10938460D02*
X1963039Y-10947984D01*
X1963039Y-10947984D02*
X2001134Y-10947984D01*
X2001134Y-10947984D02*
X2020182Y-10938460D01*
X2020182Y-10938460D02*
X2029705Y-10928936D01*
X2029705Y-10928936D02*
X2039229Y-10909889D01*
X2039229Y-10909889D02*
X2039229Y-10862270D01*
X2039229Y-10862270D02*
X2029705Y-10843222D01*
X2029705Y-10843222D02*
X2020182Y-10833698D01*
X2020182Y-10833698D02*
X2001134Y-10824174D01*
X2001134Y-10824174D02*
X1963039Y-10824174D01*
X1963039Y-10824174D02*
X1943991Y-10833698D01*
X1943991Y-10833698D02*
X1934467Y-10843222D01*
X1934467Y-10843222D02*
X1924943Y-10862270D01*
X2115420Y-10767031D02*
X2124944Y-10757508D01*
X2124944Y-10757508D02*
X2143991Y-10747984D01*
X2143991Y-10747984D02*
X2191610Y-10747984D01*
X2191610Y-10747984D02*
X2210658Y-10757508D01*
X2210658Y-10757508D02*
X2220182Y-10767031D01*
X2220182Y-10767031D02*
X2229705Y-10786079D01*
X2229705Y-10786079D02*
X2229705Y-10805127D01*
X2229705Y-10805127D02*
X2220182Y-10833698D01*
X2220182Y-10833698D02*
X2105896Y-10947984D01*
X2105896Y-10947984D02*
X2229705Y-10947984D01*
X2315420Y-10947984D02*
X2315420Y-10814650D01*
X2315420Y-10833698D02*
X2324944Y-10824174D01*
X2324944Y-10824174D02*
X2343991Y-10814650D01*
X2343991Y-10814650D02*
X2372563Y-10814650D01*
X2372563Y-10814650D02*
X2391610Y-10824174D01*
X2391610Y-10824174D02*
X2401134Y-10843222D01*
X2401134Y-10843222D02*
X2401134Y-10947984D01*
X2401134Y-10843222D02*
X2410658Y-10824174D01*
X2410658Y-10824174D02*
X2429705Y-10814650D01*
X2429705Y-10814650D02*
X2458277Y-10814650D01*
X2458277Y-10814650D02*
X2477325Y-10824174D01*
X2477325Y-10824174D02*
X2486848Y-10843222D01*
X2486848Y-10843222D02*
X2486848Y-10947984D01*
X2582086Y-10947984D02*
X2582086Y-10814650D01*
X2582086Y-10833698D02*
X2591610Y-10824174D01*
X2591610Y-10824174D02*
X2610658Y-10814650D01*
X2610658Y-10814650D02*
X2639229Y-10814650D01*
X2639229Y-10814650D02*
X2658277Y-10824174D01*
X2658277Y-10824174D02*
X2667801Y-10843222D01*
X2667801Y-10843222D02*
X2667801Y-10947984D01*
X2667801Y-10843222D02*
X2677325Y-10824174D01*
X2677325Y-10824174D02*
X2696372Y-10814650D01*
X2696372Y-10814650D02*
X2724944Y-10814650D01*
X2724944Y-10814650D02*
X2743991Y-10824174D01*
X2743991Y-10824174D02*
X2753515Y-10843222D01*
X2753515Y-10843222D02*
X2753515Y-10947984D01*
X3143991Y-10738460D02*
X2972563Y-10995603D01*
X3401134Y-10747984D02*
X3420182Y-10747984D01*
X3420182Y-10747984D02*
X3439229Y-10757508D01*
X3439229Y-10757508D02*
X3448753Y-10767031D01*
X3448753Y-10767031D02*
X3458277Y-10786079D01*
X3458277Y-10786079D02*
X3467801Y-10824174D01*
X3467801Y-10824174D02*
X3467801Y-10871793D01*
X3467801Y-10871793D02*
X3458277Y-10909889D01*
X3458277Y-10909889D02*
X3448753Y-10928936D01*
X3448753Y-10928936D02*
X3439229Y-10938460D01*
X3439229Y-10938460D02*
X3420182Y-10947984D01*
X3420182Y-10947984D02*
X3401134Y-10947984D01*
X3401134Y-10947984D02*
X3382086Y-10938460D01*
X3382086Y-10938460D02*
X3372563Y-10928936D01*
X3372563Y-10928936D02*
X3363039Y-10909889D01*
X3363039Y-10909889D02*
X3353515Y-10871793D01*
X3353515Y-10871793D02*
X3353515Y-10824174D01*
X3353515Y-10824174D02*
X3363039Y-10786079D01*
X3363039Y-10786079D02*
X3372563Y-10767031D01*
X3372563Y-10767031D02*
X3382086Y-10757508D01*
X3382086Y-10757508D02*
X3401134Y-10747984D01*
X3553515Y-10928936D02*
X3563039Y-10938460D01*
X3563039Y-10938460D02*
X3553515Y-10947984D01*
X3553515Y-10947984D02*
X3543991Y-10938460D01*
X3543991Y-10938460D02*
X3553515Y-10928936D01*
X3553515Y-10928936D02*
X3553515Y-10947984D01*
X3686848Y-10747984D02*
X3705896Y-10747984D01*
X3705896Y-10747984D02*
X3724944Y-10757508D01*
X3724944Y-10757508D02*
X3734467Y-10767031D01*
X3734467Y-10767031D02*
X3743991Y-10786079D01*
X3743991Y-10786079D02*
X3753515Y-10824174D01*
X3753515Y-10824174D02*
X3753515Y-10871793D01*
X3753515Y-10871793D02*
X3743991Y-10909889D01*
X3743991Y-10909889D02*
X3734467Y-10928936D01*
X3734467Y-10928936D02*
X3724944Y-10938460D01*
X3724944Y-10938460D02*
X3705896Y-10947984D01*
X3705896Y-10947984D02*
X3686848Y-10947984D01*
X3686848Y-10947984D02*
X3667801Y-10938460D01*
X3667801Y-10938460D02*
X3658277Y-10928936D01*
X3658277Y-10928936D02*
X3648753Y-10909889D01*
X3648753Y-10909889D02*
X3639229Y-10871793D01*
X3639229Y-10871793D02*
X3639229Y-10824174D01*
X3639229Y-10824174D02*
X3648753Y-10786079D01*
X3648753Y-10786079D02*
X3658277Y-10767031D01*
X3658277Y-10767031D02*
X3667801Y-10757508D01*
X3667801Y-10757508D02*
X3686848Y-10747984D01*
X3820182Y-10747984D02*
X3943991Y-10747984D01*
X3943991Y-10747984D02*
X3877325Y-10824174D01*
X3877325Y-10824174D02*
X3905896Y-10824174D01*
X3905896Y-10824174D02*
X3924944Y-10833698D01*
X3924944Y-10833698D02*
X3934467Y-10843222D01*
X3934467Y-10843222D02*
X3943991Y-10862270D01*
X3943991Y-10862270D02*
X3943991Y-10909889D01*
X3943991Y-10909889D02*
X3934467Y-10928936D01*
X3934467Y-10928936D02*
X3924944Y-10938460D01*
X3924944Y-10938460D02*
X3905896Y-10947984D01*
X3905896Y-10947984D02*
X3848753Y-10947984D01*
X3848753Y-10947984D02*
X3829706Y-10938460D01*
X3829706Y-10938460D02*
X3820182Y-10928936D01*
X4067801Y-10747984D02*
X4086848Y-10747984D01*
X4086848Y-10747984D02*
X4105896Y-10757508D01*
X4105896Y-10757508D02*
X4115420Y-10767031D01*
X4115420Y-10767031D02*
X4124944Y-10786079D01*
X4124944Y-10786079D02*
X4134467Y-10824174D01*
X4134467Y-10824174D02*
X4134467Y-10871793D01*
X4134467Y-10871793D02*
X4124944Y-10909889D01*
X4124944Y-10909889D02*
X4115420Y-10928936D01*
X4115420Y-10928936D02*
X4105896Y-10938460D01*
X4105896Y-10938460D02*
X4086848Y-10947984D01*
X4086848Y-10947984D02*
X4067801Y-10947984D01*
X4067801Y-10947984D02*
X4048753Y-10938460D01*
X4048753Y-10938460D02*
X4039229Y-10928936D01*
X4039229Y-10928936D02*
X4029706Y-10909889D01*
X4029706Y-10909889D02*
X4020182Y-10871793D01*
X4020182Y-10871793D02*
X4020182Y-10824174D01*
X4020182Y-10824174D02*
X4029706Y-10786079D01*
X4029706Y-10786079D02*
X4039229Y-10767031D01*
X4039229Y-10767031D02*
X4048753Y-10757508D01*
X4048753Y-10757508D02*
X4067801Y-10747984D01*
X4258277Y-10747984D02*
X4277325Y-10747984D01*
X4277325Y-10747984D02*
X4296372Y-10757508D01*
X4296372Y-10757508D02*
X4305896Y-10767031D01*
X4305896Y-10767031D02*
X4315420Y-10786079D01*
X4315420Y-10786079D02*
X4324944Y-10824174D01*
X4324944Y-10824174D02*
X4324944Y-10871793D01*
X4324944Y-10871793D02*
X4315420Y-10909889D01*
X4315420Y-10909889D02*
X4305896Y-10928936D01*
X4305896Y-10928936D02*
X4296372Y-10938460D01*
X4296372Y-10938460D02*
X4277325Y-10947984D01*
X4277325Y-10947984D02*
X4258277Y-10947984D01*
X4258277Y-10947984D02*
X4239229Y-10938460D01*
X4239229Y-10938460D02*
X4229706Y-10928936D01*
X4229706Y-10928936D02*
X4220182Y-10909889D01*
X4220182Y-10909889D02*
X4210658Y-10871793D01*
X4210658Y-10871793D02*
X4210658Y-10824174D01*
X4210658Y-10824174D02*
X4220182Y-10786079D01*
X4220182Y-10786079D02*
X4229706Y-10767031D01*
X4229706Y-10767031D02*
X4239229Y-10757508D01*
X4239229Y-10757508D02*
X4258277Y-10747984D01*
X4401134Y-10747984D02*
X4401134Y-10786079D01*
X4477325Y-10747984D02*
X4477325Y-10786079D01*
X4772563Y-11024174D02*
X4763039Y-11014650D01*
X4763039Y-11014650D02*
X4743991Y-10986079D01*
X4743991Y-10986079D02*
X4734468Y-10967031D01*
X4734468Y-10967031D02*
X4724944Y-10938460D01*
X4724944Y-10938460D02*
X4715420Y-10890841D01*
X4715420Y-10890841D02*
X4715420Y-10852746D01*
X4715420Y-10852746D02*
X4724944Y-10805127D01*
X4724944Y-10805127D02*
X4734468Y-10776555D01*
X4734468Y-10776555D02*
X4743991Y-10757508D01*
X4743991Y-10757508D02*
X4763039Y-10728936D01*
X4763039Y-10728936D02*
X4772563Y-10719412D01*
X4886849Y-10747984D02*
X4905896Y-10747984D01*
X4905896Y-10747984D02*
X4924944Y-10757508D01*
X4924944Y-10757508D02*
X4934468Y-10767031D01*
X4934468Y-10767031D02*
X4943991Y-10786079D01*
X4943991Y-10786079D02*
X4953515Y-10824174D01*
X4953515Y-10824174D02*
X4953515Y-10871793D01*
X4953515Y-10871793D02*
X4943991Y-10909889D01*
X4943991Y-10909889D02*
X4934468Y-10928936D01*
X4934468Y-10928936D02*
X4924944Y-10938460D01*
X4924944Y-10938460D02*
X4905896Y-10947984D01*
X4905896Y-10947984D02*
X4886849Y-10947984D01*
X4886849Y-10947984D02*
X4867801Y-10938460D01*
X4867801Y-10938460D02*
X4858277Y-10928936D01*
X4858277Y-10928936D02*
X4848753Y-10909889D01*
X4848753Y-10909889D02*
X4839230Y-10871793D01*
X4839230Y-10871793D02*
X4839230Y-10824174D01*
X4839230Y-10824174D02*
X4848753Y-10786079D01*
X4848753Y-10786079D02*
X4858277Y-10767031D01*
X4858277Y-10767031D02*
X4867801Y-10757508D01*
X4867801Y-10757508D02*
X4886849Y-10747984D01*
X5191611Y-10947984D02*
X5191611Y-10747984D01*
X5277325Y-10947984D02*
X5277325Y-10843222D01*
X5277325Y-10843222D02*
X5267801Y-10824174D01*
X5267801Y-10824174D02*
X5248753Y-10814650D01*
X5248753Y-10814650D02*
X5220182Y-10814650D01*
X5220182Y-10814650D02*
X5201134Y-10824174D01*
X5201134Y-10824174D02*
X5191611Y-10833698D01*
X5401134Y-10947984D02*
X5382087Y-10938460D01*
X5382087Y-10938460D02*
X5372563Y-10928936D01*
X5372563Y-10928936D02*
X5363039Y-10909889D01*
X5363039Y-10909889D02*
X5363039Y-10852746D01*
X5363039Y-10852746D02*
X5372563Y-10833698D01*
X5372563Y-10833698D02*
X5382087Y-10824174D01*
X5382087Y-10824174D02*
X5401134Y-10814650D01*
X5401134Y-10814650D02*
X5429706Y-10814650D01*
X5429706Y-10814650D02*
X5448753Y-10824174D01*
X5448753Y-10824174D02*
X5458277Y-10833698D01*
X5458277Y-10833698D02*
X5467801Y-10852746D01*
X5467801Y-10852746D02*
X5467801Y-10909889D01*
X5467801Y-10909889D02*
X5458277Y-10928936D01*
X5458277Y-10928936D02*
X5448753Y-10938460D01*
X5448753Y-10938460D02*
X5429706Y-10947984D01*
X5429706Y-10947984D02*
X5401134Y-10947984D01*
X5582087Y-10947984D02*
X5563039Y-10938460D01*
X5563039Y-10938460D02*
X5553515Y-10919412D01*
X5553515Y-10919412D02*
X5553515Y-10747984D01*
X5734468Y-10938460D02*
X5715420Y-10947984D01*
X5715420Y-10947984D02*
X5677325Y-10947984D01*
X5677325Y-10947984D02*
X5658277Y-10938460D01*
X5658277Y-10938460D02*
X5648753Y-10919412D01*
X5648753Y-10919412D02*
X5648753Y-10843222D01*
X5648753Y-10843222D02*
X5658277Y-10824174D01*
X5658277Y-10824174D02*
X5677325Y-10814650D01*
X5677325Y-10814650D02*
X5715420Y-10814650D01*
X5715420Y-10814650D02*
X5734468Y-10824174D01*
X5734468Y-10824174D02*
X5743991Y-10843222D01*
X5743991Y-10843222D02*
X5743991Y-10862270D01*
X5743991Y-10862270D02*
X5648753Y-10881317D01*
X5820182Y-10938460D02*
X5839230Y-10947984D01*
X5839230Y-10947984D02*
X5877325Y-10947984D01*
X5877325Y-10947984D02*
X5896372Y-10938460D01*
X5896372Y-10938460D02*
X5905896Y-10919412D01*
X5905896Y-10919412D02*
X5905896Y-10909889D01*
X5905896Y-10909889D02*
X5896372Y-10890841D01*
X5896372Y-10890841D02*
X5877325Y-10881317D01*
X5877325Y-10881317D02*
X5848753Y-10881317D01*
X5848753Y-10881317D02*
X5829706Y-10871793D01*
X5829706Y-10871793D02*
X5820182Y-10852746D01*
X5820182Y-10852746D02*
X5820182Y-10843222D01*
X5820182Y-10843222D02*
X5829706Y-10824174D01*
X5829706Y-10824174D02*
X5848753Y-10814650D01*
X5848753Y-10814650D02*
X5877325Y-10814650D01*
X5877325Y-10814650D02*
X5896372Y-10824174D01*
X6143992Y-10871793D02*
X6296373Y-10871793D01*
X6220182Y-10947984D02*
X6220182Y-10795603D01*
X6629706Y-10747984D02*
X6591611Y-10747984D01*
X6591611Y-10747984D02*
X6572563Y-10757508D01*
X6572563Y-10757508D02*
X6563039Y-10767031D01*
X6563039Y-10767031D02*
X6543992Y-10795603D01*
X6543992Y-10795603D02*
X6534468Y-10833698D01*
X6534468Y-10833698D02*
X6534468Y-10909889D01*
X6534468Y-10909889D02*
X6543992Y-10928936D01*
X6543992Y-10928936D02*
X6553515Y-10938460D01*
X6553515Y-10938460D02*
X6572563Y-10947984D01*
X6572563Y-10947984D02*
X6610658Y-10947984D01*
X6610658Y-10947984D02*
X6629706Y-10938460D01*
X6629706Y-10938460D02*
X6639230Y-10928936D01*
X6639230Y-10928936D02*
X6648753Y-10909889D01*
X6648753Y-10909889D02*
X6648753Y-10862270D01*
X6648753Y-10862270D02*
X6639230Y-10843222D01*
X6639230Y-10843222D02*
X6629706Y-10833698D01*
X6629706Y-10833698D02*
X6610658Y-10824174D01*
X6610658Y-10824174D02*
X6572563Y-10824174D01*
X6572563Y-10824174D02*
X6553515Y-10833698D01*
X6553515Y-10833698D02*
X6543992Y-10843222D01*
X6543992Y-10843222D02*
X6534468Y-10862270D01*
X6877325Y-10938460D02*
X6896373Y-10947984D01*
X6896373Y-10947984D02*
X6934468Y-10947984D01*
X6934468Y-10947984D02*
X6953515Y-10938460D01*
X6953515Y-10938460D02*
X6963039Y-10919412D01*
X6963039Y-10919412D02*
X6963039Y-10909889D01*
X6963039Y-10909889D02*
X6953515Y-10890841D01*
X6953515Y-10890841D02*
X6934468Y-10881317D01*
X6934468Y-10881317D02*
X6905896Y-10881317D01*
X6905896Y-10881317D02*
X6886849Y-10871793D01*
X6886849Y-10871793D02*
X6877325Y-10852746D01*
X6877325Y-10852746D02*
X6877325Y-10843222D01*
X6877325Y-10843222D02*
X6886849Y-10824174D01*
X6886849Y-10824174D02*
X6905896Y-10814650D01*
X6905896Y-10814650D02*
X6934468Y-10814650D01*
X6934468Y-10814650D02*
X6953515Y-10824174D01*
X7077325Y-10947984D02*
X7058277Y-10938460D01*
X7058277Y-10938460D02*
X7048754Y-10919412D01*
X7048754Y-10919412D02*
X7048754Y-10747984D01*
X7182087Y-10947984D02*
X7163039Y-10938460D01*
X7163039Y-10938460D02*
X7153515Y-10928936D01*
X7153515Y-10928936D02*
X7143992Y-10909889D01*
X7143992Y-10909889D02*
X7143992Y-10852746D01*
X7143992Y-10852746D02*
X7153515Y-10833698D01*
X7153515Y-10833698D02*
X7163039Y-10824174D01*
X7163039Y-10824174D02*
X7182087Y-10814650D01*
X7182087Y-10814650D02*
X7210658Y-10814650D01*
X7210658Y-10814650D02*
X7229706Y-10824174D01*
X7229706Y-10824174D02*
X7239230Y-10833698D01*
X7239230Y-10833698D02*
X7248754Y-10852746D01*
X7248754Y-10852746D02*
X7248754Y-10909889D01*
X7248754Y-10909889D02*
X7239230Y-10928936D01*
X7239230Y-10928936D02*
X7229706Y-10938460D01*
X7229706Y-10938460D02*
X7210658Y-10947984D01*
X7210658Y-10947984D02*
X7182087Y-10947984D01*
X7305896Y-10814650D02*
X7382087Y-10814650D01*
X7334468Y-10747984D02*
X7334468Y-10919412D01*
X7334468Y-10919412D02*
X7343992Y-10938460D01*
X7343992Y-10938460D02*
X7363039Y-10947984D01*
X7363039Y-10947984D02*
X7382087Y-10947984D01*
X7439230Y-10938460D02*
X7458277Y-10947984D01*
X7458277Y-10947984D02*
X7496373Y-10947984D01*
X7496373Y-10947984D02*
X7515420Y-10938460D01*
X7515420Y-10938460D02*
X7524944Y-10919412D01*
X7524944Y-10919412D02*
X7524944Y-10909889D01*
X7524944Y-10909889D02*
X7515420Y-10890841D01*
X7515420Y-10890841D02*
X7496373Y-10881317D01*
X7496373Y-10881317D02*
X7467801Y-10881317D01*
X7467801Y-10881317D02*
X7448754Y-10871793D01*
X7448754Y-10871793D02*
X7439230Y-10852746D01*
X7439230Y-10852746D02*
X7439230Y-10843222D01*
X7439230Y-10843222D02*
X7448754Y-10824174D01*
X7448754Y-10824174D02*
X7467801Y-10814650D01*
X7467801Y-10814650D02*
X7496373Y-10814650D01*
X7496373Y-10814650D02*
X7515420Y-10824174D01*
X7591611Y-11024174D02*
X7601135Y-11014650D01*
X7601135Y-11014650D02*
X7620182Y-10986079D01*
X7620182Y-10986079D02*
X7629706Y-10967031D01*
X7629706Y-10967031D02*
X7639230Y-10938460D01*
X7639230Y-10938460D02*
X7648754Y-10890841D01*
X7648754Y-10890841D02*
X7648754Y-10852746D01*
X7648754Y-10852746D02*
X7639230Y-10805127D01*
X7639230Y-10805127D02*
X7629706Y-10776555D01*
X7629706Y-10776555D02*
X7620182Y-10757508D01*
X7620182Y-10757508D02*
X7601135Y-10728936D01*
X7601135Y-10728936D02*
X7591611Y-10719412D01*
D12*
X1157500Y-11080500D02*
X1157500Y-11160500D01*
X1117500Y-11120500D02*
X1197500Y-11120500D01*
D11*
X1496372Y-11011984D02*
X1515420Y-11011984D01*
X1515420Y-11011984D02*
X1534467Y-11021508D01*
X1534467Y-11021508D02*
X1543991Y-11031031D01*
X1543991Y-11031031D02*
X1553515Y-11050079D01*
X1553515Y-11050079D02*
X1563039Y-11088174D01*
X1563039Y-11088174D02*
X1563039Y-11135793D01*
X1563039Y-11135793D02*
X1553515Y-11173889D01*
X1553515Y-11173889D02*
X1543991Y-11192936D01*
X1543991Y-11192936D02*
X1534467Y-11202460D01*
X1534467Y-11202460D02*
X1515420Y-11211984D01*
X1515420Y-11211984D02*
X1496372Y-11211984D01*
X1496372Y-11211984D02*
X1477324Y-11202460D01*
X1477324Y-11202460D02*
X1467801Y-11192936D01*
X1467801Y-11192936D02*
X1458277Y-11173889D01*
X1458277Y-11173889D02*
X1448753Y-11135793D01*
X1448753Y-11135793D02*
X1448753Y-11088174D01*
X1448753Y-11088174D02*
X1458277Y-11050079D01*
X1458277Y-11050079D02*
X1467801Y-11031031D01*
X1467801Y-11031031D02*
X1477324Y-11021508D01*
X1477324Y-11021508D02*
X1496372Y-11011984D01*
X1648753Y-11192936D02*
X1658277Y-11202460D01*
X1658277Y-11202460D02*
X1648753Y-11211984D01*
X1648753Y-11211984D02*
X1639229Y-11202460D01*
X1639229Y-11202460D02*
X1648753Y-11192936D01*
X1648753Y-11192936D02*
X1648753Y-11211984D01*
X1772562Y-11097698D02*
X1753515Y-11088174D01*
X1753515Y-11088174D02*
X1743991Y-11078650D01*
X1743991Y-11078650D02*
X1734467Y-11059603D01*
X1734467Y-11059603D02*
X1734467Y-11050079D01*
X1734467Y-11050079D02*
X1743991Y-11031031D01*
X1743991Y-11031031D02*
X1753515Y-11021508D01*
X1753515Y-11021508D02*
X1772562Y-11011984D01*
X1772562Y-11011984D02*
X1810658Y-11011984D01*
X1810658Y-11011984D02*
X1829705Y-11021508D01*
X1829705Y-11021508D02*
X1839229Y-11031031D01*
X1839229Y-11031031D02*
X1848753Y-11050079D01*
X1848753Y-11050079D02*
X1848753Y-11059603D01*
X1848753Y-11059603D02*
X1839229Y-11078650D01*
X1839229Y-11078650D02*
X1829705Y-11088174D01*
X1829705Y-11088174D02*
X1810658Y-11097698D01*
X1810658Y-11097698D02*
X1772562Y-11097698D01*
X1772562Y-11097698D02*
X1753515Y-11107222D01*
X1753515Y-11107222D02*
X1743991Y-11116746D01*
X1743991Y-11116746D02*
X1734467Y-11135793D01*
X1734467Y-11135793D02*
X1734467Y-11173889D01*
X1734467Y-11173889D02*
X1743991Y-11192936D01*
X1743991Y-11192936D02*
X1753515Y-11202460D01*
X1753515Y-11202460D02*
X1772562Y-11211984D01*
X1772562Y-11211984D02*
X1810658Y-11211984D01*
X1810658Y-11211984D02*
X1829705Y-11202460D01*
X1829705Y-11202460D02*
X1839229Y-11192936D01*
X1839229Y-11192936D02*
X1848753Y-11173889D01*
X1848753Y-11173889D02*
X1848753Y-11135793D01*
X1848753Y-11135793D02*
X1839229Y-11116746D01*
X1839229Y-11116746D02*
X1829705Y-11107222D01*
X1829705Y-11107222D02*
X1810658Y-11097698D01*
X1972562Y-11011984D02*
X1991610Y-11011984D01*
X1991610Y-11011984D02*
X2010658Y-11021508D01*
X2010658Y-11021508D02*
X2020182Y-11031031D01*
X2020182Y-11031031D02*
X2029705Y-11050079D01*
X2029705Y-11050079D02*
X2039229Y-11088174D01*
X2039229Y-11088174D02*
X2039229Y-11135793D01*
X2039229Y-11135793D02*
X2029705Y-11173889D01*
X2029705Y-11173889D02*
X2020182Y-11192936D01*
X2020182Y-11192936D02*
X2010658Y-11202460D01*
X2010658Y-11202460D02*
X1991610Y-11211984D01*
X1991610Y-11211984D02*
X1972562Y-11211984D01*
X1972562Y-11211984D02*
X1953515Y-11202460D01*
X1953515Y-11202460D02*
X1943991Y-11192936D01*
X1943991Y-11192936D02*
X1934467Y-11173889D01*
X1934467Y-11173889D02*
X1924943Y-11135793D01*
X1924943Y-11135793D02*
X1924943Y-11088174D01*
X1924943Y-11088174D02*
X1934467Y-11050079D01*
X1934467Y-11050079D02*
X1943991Y-11031031D01*
X1943991Y-11031031D02*
X1953515Y-11021508D01*
X1953515Y-11021508D02*
X1972562Y-11011984D01*
X2163039Y-11011984D02*
X2182086Y-11011984D01*
X2182086Y-11011984D02*
X2201134Y-11021508D01*
X2201134Y-11021508D02*
X2210658Y-11031031D01*
X2210658Y-11031031D02*
X2220182Y-11050079D01*
X2220182Y-11050079D02*
X2229705Y-11088174D01*
X2229705Y-11088174D02*
X2229705Y-11135793D01*
X2229705Y-11135793D02*
X2220182Y-11173889D01*
X2220182Y-11173889D02*
X2210658Y-11192936D01*
X2210658Y-11192936D02*
X2201134Y-11202460D01*
X2201134Y-11202460D02*
X2182086Y-11211984D01*
X2182086Y-11211984D02*
X2163039Y-11211984D01*
X2163039Y-11211984D02*
X2143991Y-11202460D01*
X2143991Y-11202460D02*
X2134467Y-11192936D01*
X2134467Y-11192936D02*
X2124944Y-11173889D01*
X2124944Y-11173889D02*
X2115420Y-11135793D01*
X2115420Y-11135793D02*
X2115420Y-11088174D01*
X2115420Y-11088174D02*
X2124944Y-11050079D01*
X2124944Y-11050079D02*
X2134467Y-11031031D01*
X2134467Y-11031031D02*
X2143991Y-11021508D01*
X2143991Y-11021508D02*
X2163039Y-11011984D01*
X2315420Y-11211984D02*
X2315420Y-11078650D01*
X2315420Y-11097698D02*
X2324944Y-11088174D01*
X2324944Y-11088174D02*
X2343991Y-11078650D01*
X2343991Y-11078650D02*
X2372563Y-11078650D01*
X2372563Y-11078650D02*
X2391610Y-11088174D01*
X2391610Y-11088174D02*
X2401134Y-11107222D01*
X2401134Y-11107222D02*
X2401134Y-11211984D01*
X2401134Y-11107222D02*
X2410658Y-11088174D01*
X2410658Y-11088174D02*
X2429705Y-11078650D01*
X2429705Y-11078650D02*
X2458277Y-11078650D01*
X2458277Y-11078650D02*
X2477325Y-11088174D01*
X2477325Y-11088174D02*
X2486848Y-11107222D01*
X2486848Y-11107222D02*
X2486848Y-11211984D01*
X2582086Y-11211984D02*
X2582086Y-11078650D01*
X2582086Y-11097698D02*
X2591610Y-11088174D01*
X2591610Y-11088174D02*
X2610658Y-11078650D01*
X2610658Y-11078650D02*
X2639229Y-11078650D01*
X2639229Y-11078650D02*
X2658277Y-11088174D01*
X2658277Y-11088174D02*
X2667801Y-11107222D01*
X2667801Y-11107222D02*
X2667801Y-11211984D01*
X2667801Y-11107222D02*
X2677325Y-11088174D01*
X2677325Y-11088174D02*
X2696372Y-11078650D01*
X2696372Y-11078650D02*
X2724944Y-11078650D01*
X2724944Y-11078650D02*
X2743991Y-11088174D01*
X2743991Y-11088174D02*
X2753515Y-11107222D01*
X2753515Y-11107222D02*
X2753515Y-11211984D01*
X3143991Y-11002460D02*
X2972563Y-11259603D01*
X3401134Y-11011984D02*
X3420182Y-11011984D01*
X3420182Y-11011984D02*
X3439229Y-11021508D01*
X3439229Y-11021508D02*
X3448753Y-11031031D01*
X3448753Y-11031031D02*
X3458277Y-11050079D01*
X3458277Y-11050079D02*
X3467801Y-11088174D01*
X3467801Y-11088174D02*
X3467801Y-11135793D01*
X3467801Y-11135793D02*
X3458277Y-11173889D01*
X3458277Y-11173889D02*
X3448753Y-11192936D01*
X3448753Y-11192936D02*
X3439229Y-11202460D01*
X3439229Y-11202460D02*
X3420182Y-11211984D01*
X3420182Y-11211984D02*
X3401134Y-11211984D01*
X3401134Y-11211984D02*
X3382086Y-11202460D01*
X3382086Y-11202460D02*
X3372563Y-11192936D01*
X3372563Y-11192936D02*
X3363039Y-11173889D01*
X3363039Y-11173889D02*
X3353515Y-11135793D01*
X3353515Y-11135793D02*
X3353515Y-11088174D01*
X3353515Y-11088174D02*
X3363039Y-11050079D01*
X3363039Y-11050079D02*
X3372563Y-11031031D01*
X3372563Y-11031031D02*
X3382086Y-11021508D01*
X3382086Y-11021508D02*
X3401134Y-11011984D01*
X3553515Y-11192936D02*
X3563039Y-11202460D01*
X3563039Y-11202460D02*
X3553515Y-11211984D01*
X3553515Y-11211984D02*
X3543991Y-11202460D01*
X3543991Y-11202460D02*
X3553515Y-11192936D01*
X3553515Y-11192936D02*
X3553515Y-11211984D01*
X3686848Y-11011984D02*
X3705896Y-11011984D01*
X3705896Y-11011984D02*
X3724944Y-11021508D01*
X3724944Y-11021508D02*
X3734467Y-11031031D01*
X3734467Y-11031031D02*
X3743991Y-11050079D01*
X3743991Y-11050079D02*
X3753515Y-11088174D01*
X3753515Y-11088174D02*
X3753515Y-11135793D01*
X3753515Y-11135793D02*
X3743991Y-11173889D01*
X3743991Y-11173889D02*
X3734467Y-11192936D01*
X3734467Y-11192936D02*
X3724944Y-11202460D01*
X3724944Y-11202460D02*
X3705896Y-11211984D01*
X3705896Y-11211984D02*
X3686848Y-11211984D01*
X3686848Y-11211984D02*
X3667801Y-11202460D01*
X3667801Y-11202460D02*
X3658277Y-11192936D01*
X3658277Y-11192936D02*
X3648753Y-11173889D01*
X3648753Y-11173889D02*
X3639229Y-11135793D01*
X3639229Y-11135793D02*
X3639229Y-11088174D01*
X3639229Y-11088174D02*
X3648753Y-11050079D01*
X3648753Y-11050079D02*
X3658277Y-11031031D01*
X3658277Y-11031031D02*
X3667801Y-11021508D01*
X3667801Y-11021508D02*
X3686848Y-11011984D01*
X3820182Y-11011984D02*
X3943991Y-11011984D01*
X3943991Y-11011984D02*
X3877325Y-11088174D01*
X3877325Y-11088174D02*
X3905896Y-11088174D01*
X3905896Y-11088174D02*
X3924944Y-11097698D01*
X3924944Y-11097698D02*
X3934467Y-11107222D01*
X3934467Y-11107222D02*
X3943991Y-11126270D01*
X3943991Y-11126270D02*
X3943991Y-11173889D01*
X3943991Y-11173889D02*
X3934467Y-11192936D01*
X3934467Y-11192936D02*
X3924944Y-11202460D01*
X3924944Y-11202460D02*
X3905896Y-11211984D01*
X3905896Y-11211984D02*
X3848753Y-11211984D01*
X3848753Y-11211984D02*
X3829706Y-11202460D01*
X3829706Y-11202460D02*
X3820182Y-11192936D01*
X4134467Y-11211984D02*
X4020182Y-11211984D01*
X4077325Y-11211984D02*
X4077325Y-11011984D01*
X4077325Y-11011984D02*
X4058277Y-11040555D01*
X4058277Y-11040555D02*
X4039229Y-11059603D01*
X4039229Y-11059603D02*
X4020182Y-11069127D01*
X4315420Y-11011984D02*
X4220182Y-11011984D01*
X4220182Y-11011984D02*
X4210658Y-11107222D01*
X4210658Y-11107222D02*
X4220182Y-11097698D01*
X4220182Y-11097698D02*
X4239229Y-11088174D01*
X4239229Y-11088174D02*
X4286849Y-11088174D01*
X4286849Y-11088174D02*
X4305896Y-11097698D01*
X4305896Y-11097698D02*
X4315420Y-11107222D01*
X4315420Y-11107222D02*
X4324944Y-11126270D01*
X4324944Y-11126270D02*
X4324944Y-11173889D01*
X4324944Y-11173889D02*
X4315420Y-11192936D01*
X4315420Y-11192936D02*
X4305896Y-11202460D01*
X4305896Y-11202460D02*
X4286849Y-11211984D01*
X4286849Y-11211984D02*
X4239229Y-11211984D01*
X4239229Y-11211984D02*
X4220182Y-11202460D01*
X4220182Y-11202460D02*
X4210658Y-11192936D01*
X4401134Y-11011984D02*
X4401134Y-11050079D01*
X4477325Y-11011984D02*
X4477325Y-11050079D01*
X4772563Y-11288174D02*
X4763039Y-11278650D01*
X4763039Y-11278650D02*
X4743991Y-11250079D01*
X4743991Y-11250079D02*
X4734468Y-11231031D01*
X4734468Y-11231031D02*
X4724944Y-11202460D01*
X4724944Y-11202460D02*
X4715420Y-11154841D01*
X4715420Y-11154841D02*
X4715420Y-11116746D01*
X4715420Y-11116746D02*
X4724944Y-11069127D01*
X4724944Y-11069127D02*
X4734468Y-11040555D01*
X4734468Y-11040555D02*
X4743991Y-11021508D01*
X4743991Y-11021508D02*
X4763039Y-10992936D01*
X4763039Y-10992936D02*
X4772563Y-10983412D01*
X4839230Y-11031031D02*
X4848753Y-11021508D01*
X4848753Y-11021508D02*
X4867801Y-11011984D01*
X4867801Y-11011984D02*
X4915420Y-11011984D01*
X4915420Y-11011984D02*
X4934468Y-11021508D01*
X4934468Y-11021508D02*
X4943991Y-11031031D01*
X4943991Y-11031031D02*
X4953515Y-11050079D01*
X4953515Y-11050079D02*
X4953515Y-11069127D01*
X4953515Y-11069127D02*
X4943991Y-11097698D01*
X4943991Y-11097698D02*
X4829706Y-11211984D01*
X4829706Y-11211984D02*
X4953515Y-11211984D01*
X5124944Y-11078650D02*
X5124944Y-11211984D01*
X5077325Y-11002460D02*
X5029706Y-11145317D01*
X5029706Y-11145317D02*
X5153515Y-11145317D01*
X5315420Y-11078650D02*
X5315420Y-11211984D01*
X5267801Y-11002460D02*
X5220182Y-11145317D01*
X5220182Y-11145317D02*
X5343991Y-11145317D01*
X5572563Y-11211984D02*
X5572563Y-11011984D01*
X5658277Y-11211984D02*
X5658277Y-11107222D01*
X5658277Y-11107222D02*
X5648753Y-11088174D01*
X5648753Y-11088174D02*
X5629706Y-11078650D01*
X5629706Y-11078650D02*
X5601134Y-11078650D01*
X5601134Y-11078650D02*
X5582087Y-11088174D01*
X5582087Y-11088174D02*
X5572563Y-11097698D01*
X5782087Y-11211984D02*
X5763039Y-11202460D01*
X5763039Y-11202460D02*
X5753515Y-11192936D01*
X5753515Y-11192936D02*
X5743991Y-11173889D01*
X5743991Y-11173889D02*
X5743991Y-11116746D01*
X5743991Y-11116746D02*
X5753515Y-11097698D01*
X5753515Y-11097698D02*
X5763039Y-11088174D01*
X5763039Y-11088174D02*
X5782087Y-11078650D01*
X5782087Y-11078650D02*
X5810658Y-11078650D01*
X5810658Y-11078650D02*
X5829706Y-11088174D01*
X5829706Y-11088174D02*
X5839230Y-11097698D01*
X5839230Y-11097698D02*
X5848753Y-11116746D01*
X5848753Y-11116746D02*
X5848753Y-11173889D01*
X5848753Y-11173889D02*
X5839230Y-11192936D01*
X5839230Y-11192936D02*
X5829706Y-11202460D01*
X5829706Y-11202460D02*
X5810658Y-11211984D01*
X5810658Y-11211984D02*
X5782087Y-11211984D01*
X5963039Y-11211984D02*
X5943991Y-11202460D01*
X5943991Y-11202460D02*
X5934468Y-11183412D01*
X5934468Y-11183412D02*
X5934468Y-11011984D01*
X6115420Y-11202460D02*
X6096372Y-11211984D01*
X6096372Y-11211984D02*
X6058277Y-11211984D01*
X6058277Y-11211984D02*
X6039230Y-11202460D01*
X6039230Y-11202460D02*
X6029706Y-11183412D01*
X6029706Y-11183412D02*
X6029706Y-11107222D01*
X6029706Y-11107222D02*
X6039230Y-11088174D01*
X6039230Y-11088174D02*
X6058277Y-11078650D01*
X6058277Y-11078650D02*
X6096372Y-11078650D01*
X6096372Y-11078650D02*
X6115420Y-11088174D01*
X6115420Y-11088174D02*
X6124944Y-11107222D01*
X6124944Y-11107222D02*
X6124944Y-11126270D01*
X6124944Y-11126270D02*
X6029706Y-11145317D01*
X6201134Y-11202460D02*
X6220182Y-11211984D01*
X6220182Y-11211984D02*
X6258277Y-11211984D01*
X6258277Y-11211984D02*
X6277325Y-11202460D01*
X6277325Y-11202460D02*
X6286849Y-11183412D01*
X6286849Y-11183412D02*
X6286849Y-11173889D01*
X6286849Y-11173889D02*
X6277325Y-11154841D01*
X6277325Y-11154841D02*
X6258277Y-11145317D01*
X6258277Y-11145317D02*
X6229706Y-11145317D01*
X6229706Y-11145317D02*
X6210658Y-11135793D01*
X6210658Y-11135793D02*
X6201134Y-11116746D01*
X6201134Y-11116746D02*
X6201134Y-11107222D01*
X6201134Y-11107222D02*
X6210658Y-11088174D01*
X6210658Y-11088174D02*
X6229706Y-11078650D01*
X6229706Y-11078650D02*
X6258277Y-11078650D01*
X6258277Y-11078650D02*
X6277325Y-11088174D01*
X6353515Y-11288174D02*
X6363039Y-11278650D01*
X6363039Y-11278650D02*
X6382087Y-11250079D01*
X6382087Y-11250079D02*
X6391611Y-11231031D01*
X6391611Y-11231031D02*
X6401134Y-11202460D01*
X6401134Y-11202460D02*
X6410658Y-11154841D01*
X6410658Y-11154841D02*
X6410658Y-11116746D01*
X6410658Y-11116746D02*
X6401134Y-11069127D01*
X6401134Y-11069127D02*
X6391611Y-11040555D01*
X6391611Y-11040555D02*
X6382087Y-11021508D01*
X6382087Y-11021508D02*
X6363039Y-10992936D01*
X6363039Y-10992936D02*
X6353515Y-10983412D01*
D12*
X1182856Y-11419856D02*
X1182856Y-11349144D01*
X1112144Y-11349144D01*
X1112144Y-11419856D01*
X1182856Y-11419856D01*
D11*
X1563039Y-11475984D02*
X1448753Y-11475984D01*
X1505896Y-11475984D02*
X1505896Y-11275984D01*
X1505896Y-11275984D02*
X1486848Y-11304555D01*
X1486848Y-11304555D02*
X1467801Y-11323603D01*
X1467801Y-11323603D02*
X1448753Y-11333127D01*
X1648753Y-11456936D02*
X1658277Y-11466460D01*
X1658277Y-11466460D02*
X1648753Y-11475984D01*
X1648753Y-11475984D02*
X1639229Y-11466460D01*
X1639229Y-11466460D02*
X1648753Y-11456936D01*
X1648753Y-11456936D02*
X1648753Y-11475984D01*
X1782086Y-11275984D02*
X1801134Y-11275984D01*
X1801134Y-11275984D02*
X1820182Y-11285508D01*
X1820182Y-11285508D02*
X1829705Y-11295031D01*
X1829705Y-11295031D02*
X1839229Y-11314079D01*
X1839229Y-11314079D02*
X1848753Y-11352174D01*
X1848753Y-11352174D02*
X1848753Y-11399793D01*
X1848753Y-11399793D02*
X1839229Y-11437888D01*
X1839229Y-11437888D02*
X1829705Y-11456936D01*
X1829705Y-11456936D02*
X1820182Y-11466460D01*
X1820182Y-11466460D02*
X1801134Y-11475984D01*
X1801134Y-11475984D02*
X1782086Y-11475984D01*
X1782086Y-11475984D02*
X1763039Y-11466460D01*
X1763039Y-11466460D02*
X1753515Y-11456936D01*
X1753515Y-11456936D02*
X1743991Y-11437888D01*
X1743991Y-11437888D02*
X1734467Y-11399793D01*
X1734467Y-11399793D02*
X1734467Y-11352174D01*
X1734467Y-11352174D02*
X1743991Y-11314079D01*
X1743991Y-11314079D02*
X1753515Y-11295031D01*
X1753515Y-11295031D02*
X1763039Y-11285508D01*
X1763039Y-11285508D02*
X1782086Y-11275984D01*
X1972562Y-11275984D02*
X1991610Y-11275984D01*
X1991610Y-11275984D02*
X2010658Y-11285508D01*
X2010658Y-11285508D02*
X2020182Y-11295031D01*
X2020182Y-11295031D02*
X2029705Y-11314079D01*
X2029705Y-11314079D02*
X2039229Y-11352174D01*
X2039229Y-11352174D02*
X2039229Y-11399793D01*
X2039229Y-11399793D02*
X2029705Y-11437888D01*
X2029705Y-11437888D02*
X2020182Y-11456936D01*
X2020182Y-11456936D02*
X2010658Y-11466460D01*
X2010658Y-11466460D02*
X1991610Y-11475984D01*
X1991610Y-11475984D02*
X1972562Y-11475984D01*
X1972562Y-11475984D02*
X1953515Y-11466460D01*
X1953515Y-11466460D02*
X1943991Y-11456936D01*
X1943991Y-11456936D02*
X1934467Y-11437888D01*
X1934467Y-11437888D02*
X1924943Y-11399793D01*
X1924943Y-11399793D02*
X1924943Y-11352174D01*
X1924943Y-11352174D02*
X1934467Y-11314079D01*
X1934467Y-11314079D02*
X1943991Y-11295031D01*
X1943991Y-11295031D02*
X1953515Y-11285508D01*
X1953515Y-11285508D02*
X1972562Y-11275984D01*
X2163039Y-11275984D02*
X2182086Y-11275984D01*
X2182086Y-11275984D02*
X2201134Y-11285508D01*
X2201134Y-11285508D02*
X2210658Y-11295031D01*
X2210658Y-11295031D02*
X2220182Y-11314079D01*
X2220182Y-11314079D02*
X2229705Y-11352174D01*
X2229705Y-11352174D02*
X2229705Y-11399793D01*
X2229705Y-11399793D02*
X2220182Y-11437888D01*
X2220182Y-11437888D02*
X2210658Y-11456936D01*
X2210658Y-11456936D02*
X2201134Y-11466460D01*
X2201134Y-11466460D02*
X2182086Y-11475984D01*
X2182086Y-11475984D02*
X2163039Y-11475984D01*
X2163039Y-11475984D02*
X2143991Y-11466460D01*
X2143991Y-11466460D02*
X2134467Y-11456936D01*
X2134467Y-11456936D02*
X2124944Y-11437888D01*
X2124944Y-11437888D02*
X2115420Y-11399793D01*
X2115420Y-11399793D02*
X2115420Y-11352174D01*
X2115420Y-11352174D02*
X2124944Y-11314079D01*
X2124944Y-11314079D02*
X2134467Y-11295031D01*
X2134467Y-11295031D02*
X2143991Y-11285508D01*
X2143991Y-11285508D02*
X2163039Y-11275984D01*
X2315420Y-11475984D02*
X2315420Y-11342650D01*
X2315420Y-11361698D02*
X2324944Y-11352174D01*
X2324944Y-11352174D02*
X2343991Y-11342650D01*
X2343991Y-11342650D02*
X2372563Y-11342650D01*
X2372563Y-11342650D02*
X2391610Y-11352174D01*
X2391610Y-11352174D02*
X2401134Y-11371222D01*
X2401134Y-11371222D02*
X2401134Y-11475984D01*
X2401134Y-11371222D02*
X2410658Y-11352174D01*
X2410658Y-11352174D02*
X2429705Y-11342650D01*
X2429705Y-11342650D02*
X2458277Y-11342650D01*
X2458277Y-11342650D02*
X2477325Y-11352174D01*
X2477325Y-11352174D02*
X2486848Y-11371222D01*
X2486848Y-11371222D02*
X2486848Y-11475984D01*
X2582086Y-11475984D02*
X2582086Y-11342650D01*
X2582086Y-11361698D02*
X2591610Y-11352174D01*
X2591610Y-11352174D02*
X2610658Y-11342650D01*
X2610658Y-11342650D02*
X2639229Y-11342650D01*
X2639229Y-11342650D02*
X2658277Y-11352174D01*
X2658277Y-11352174D02*
X2667801Y-11371222D01*
X2667801Y-11371222D02*
X2667801Y-11475984D01*
X2667801Y-11371222D02*
X2677325Y-11352174D01*
X2677325Y-11352174D02*
X2696372Y-11342650D01*
X2696372Y-11342650D02*
X2724944Y-11342650D01*
X2724944Y-11342650D02*
X2743991Y-11352174D01*
X2743991Y-11352174D02*
X2753515Y-11371222D01*
X2753515Y-11371222D02*
X2753515Y-11475984D01*
X3143991Y-11266460D02*
X2972563Y-11523603D01*
X3401134Y-11275984D02*
X3420182Y-11275984D01*
X3420182Y-11275984D02*
X3439229Y-11285508D01*
X3439229Y-11285508D02*
X3448753Y-11295031D01*
X3448753Y-11295031D02*
X3458277Y-11314079D01*
X3458277Y-11314079D02*
X3467801Y-11352174D01*
X3467801Y-11352174D02*
X3467801Y-11399793D01*
X3467801Y-11399793D02*
X3458277Y-11437888D01*
X3458277Y-11437888D02*
X3448753Y-11456936D01*
X3448753Y-11456936D02*
X3439229Y-11466460D01*
X3439229Y-11466460D02*
X3420182Y-11475984D01*
X3420182Y-11475984D02*
X3401134Y-11475984D01*
X3401134Y-11475984D02*
X3382086Y-11466460D01*
X3382086Y-11466460D02*
X3372563Y-11456936D01*
X3372563Y-11456936D02*
X3363039Y-11437888D01*
X3363039Y-11437888D02*
X3353515Y-11399793D01*
X3353515Y-11399793D02*
X3353515Y-11352174D01*
X3353515Y-11352174D02*
X3363039Y-11314079D01*
X3363039Y-11314079D02*
X3372563Y-11295031D01*
X3372563Y-11295031D02*
X3382086Y-11285508D01*
X3382086Y-11285508D02*
X3401134Y-11275984D01*
X3553515Y-11456936D02*
X3563039Y-11466460D01*
X3563039Y-11466460D02*
X3553515Y-11475984D01*
X3553515Y-11475984D02*
X3543991Y-11466460D01*
X3543991Y-11466460D02*
X3553515Y-11456936D01*
X3553515Y-11456936D02*
X3553515Y-11475984D01*
X3686848Y-11275984D02*
X3705896Y-11275984D01*
X3705896Y-11275984D02*
X3724944Y-11285508D01*
X3724944Y-11285508D02*
X3734467Y-11295031D01*
X3734467Y-11295031D02*
X3743991Y-11314079D01*
X3743991Y-11314079D02*
X3753515Y-11352174D01*
X3753515Y-11352174D02*
X3753515Y-11399793D01*
X3753515Y-11399793D02*
X3743991Y-11437888D01*
X3743991Y-11437888D02*
X3734467Y-11456936D01*
X3734467Y-11456936D02*
X3724944Y-11466460D01*
X3724944Y-11466460D02*
X3705896Y-11475984D01*
X3705896Y-11475984D02*
X3686848Y-11475984D01*
X3686848Y-11475984D02*
X3667801Y-11466460D01*
X3667801Y-11466460D02*
X3658277Y-11456936D01*
X3658277Y-11456936D02*
X3648753Y-11437888D01*
X3648753Y-11437888D02*
X3639229Y-11399793D01*
X3639229Y-11399793D02*
X3639229Y-11352174D01*
X3639229Y-11352174D02*
X3648753Y-11314079D01*
X3648753Y-11314079D02*
X3658277Y-11295031D01*
X3658277Y-11295031D02*
X3667801Y-11285508D01*
X3667801Y-11285508D02*
X3686848Y-11275984D01*
X3820182Y-11275984D02*
X3943991Y-11275984D01*
X3943991Y-11275984D02*
X3877325Y-11352174D01*
X3877325Y-11352174D02*
X3905896Y-11352174D01*
X3905896Y-11352174D02*
X3924944Y-11361698D01*
X3924944Y-11361698D02*
X3934467Y-11371222D01*
X3934467Y-11371222D02*
X3943991Y-11390269D01*
X3943991Y-11390269D02*
X3943991Y-11437888D01*
X3943991Y-11437888D02*
X3934467Y-11456936D01*
X3934467Y-11456936D02*
X3924944Y-11466460D01*
X3924944Y-11466460D02*
X3905896Y-11475984D01*
X3905896Y-11475984D02*
X3848753Y-11475984D01*
X3848753Y-11475984D02*
X3829706Y-11466460D01*
X3829706Y-11466460D02*
X3820182Y-11456936D01*
X4039229Y-11475984D02*
X4077325Y-11475984D01*
X4077325Y-11475984D02*
X4096372Y-11466460D01*
X4096372Y-11466460D02*
X4105896Y-11456936D01*
X4105896Y-11456936D02*
X4124944Y-11428365D01*
X4124944Y-11428365D02*
X4134467Y-11390269D01*
X4134467Y-11390269D02*
X4134467Y-11314079D01*
X4134467Y-11314079D02*
X4124944Y-11295031D01*
X4124944Y-11295031D02*
X4115420Y-11285508D01*
X4115420Y-11285508D02*
X4096372Y-11275984D01*
X4096372Y-11275984D02*
X4058277Y-11275984D01*
X4058277Y-11275984D02*
X4039229Y-11285508D01*
X4039229Y-11285508D02*
X4029706Y-11295031D01*
X4029706Y-11295031D02*
X4020182Y-11314079D01*
X4020182Y-11314079D02*
X4020182Y-11361698D01*
X4020182Y-11361698D02*
X4029706Y-11380746D01*
X4029706Y-11380746D02*
X4039229Y-11390269D01*
X4039229Y-11390269D02*
X4058277Y-11399793D01*
X4058277Y-11399793D02*
X4096372Y-11399793D01*
X4096372Y-11399793D02*
X4115420Y-11390269D01*
X4115420Y-11390269D02*
X4124944Y-11380746D01*
X4124944Y-11380746D02*
X4134467Y-11361698D01*
X4305896Y-11342650D02*
X4305896Y-11475984D01*
X4258277Y-11266460D02*
X4210658Y-11409317D01*
X4210658Y-11409317D02*
X4334468Y-11409317D01*
X4401134Y-11275984D02*
X4401134Y-11314079D01*
X4477325Y-11275984D02*
X4477325Y-11314079D01*
X4772563Y-11552174D02*
X4763039Y-11542650D01*
X4763039Y-11542650D02*
X4743991Y-11514079D01*
X4743991Y-11514079D02*
X4734468Y-11495031D01*
X4734468Y-11495031D02*
X4724944Y-11466460D01*
X4724944Y-11466460D02*
X4715420Y-11418841D01*
X4715420Y-11418841D02*
X4715420Y-11380746D01*
X4715420Y-11380746D02*
X4724944Y-11333127D01*
X4724944Y-11333127D02*
X4734468Y-11304555D01*
X4734468Y-11304555D02*
X4743991Y-11285508D01*
X4743991Y-11285508D02*
X4763039Y-11256936D01*
X4763039Y-11256936D02*
X4772563Y-11247412D01*
X4934468Y-11342650D02*
X4934468Y-11475984D01*
X4886849Y-11266460D02*
X4839230Y-11409317D01*
X4839230Y-11409317D02*
X4963039Y-11409317D01*
X5067801Y-11361698D02*
X5048753Y-11352174D01*
X5048753Y-11352174D02*
X5039230Y-11342650D01*
X5039230Y-11342650D02*
X5029706Y-11323603D01*
X5029706Y-11323603D02*
X5029706Y-11314079D01*
X5029706Y-11314079D02*
X5039230Y-11295031D01*
X5039230Y-11295031D02*
X5048753Y-11285508D01*
X5048753Y-11285508D02*
X5067801Y-11275984D01*
X5067801Y-11275984D02*
X5105896Y-11275984D01*
X5105896Y-11275984D02*
X5124944Y-11285508D01*
X5124944Y-11285508D02*
X5134468Y-11295031D01*
X5134468Y-11295031D02*
X5143991Y-11314079D01*
X5143991Y-11314079D02*
X5143991Y-11323603D01*
X5143991Y-11323603D02*
X5134468Y-11342650D01*
X5134468Y-11342650D02*
X5124944Y-11352174D01*
X5124944Y-11352174D02*
X5105896Y-11361698D01*
X5105896Y-11361698D02*
X5067801Y-11361698D01*
X5067801Y-11361698D02*
X5048753Y-11371222D01*
X5048753Y-11371222D02*
X5039230Y-11380746D01*
X5039230Y-11380746D02*
X5029706Y-11399793D01*
X5029706Y-11399793D02*
X5029706Y-11437888D01*
X5029706Y-11437888D02*
X5039230Y-11456936D01*
X5039230Y-11456936D02*
X5048753Y-11466460D01*
X5048753Y-11466460D02*
X5067801Y-11475984D01*
X5067801Y-11475984D02*
X5105896Y-11475984D01*
X5105896Y-11475984D02*
X5124944Y-11466460D01*
X5124944Y-11466460D02*
X5134468Y-11456936D01*
X5134468Y-11456936D02*
X5143991Y-11437888D01*
X5143991Y-11437888D02*
X5143991Y-11399793D01*
X5143991Y-11399793D02*
X5134468Y-11380746D01*
X5134468Y-11380746D02*
X5124944Y-11371222D01*
X5124944Y-11371222D02*
X5105896Y-11361698D01*
X5382087Y-11475984D02*
X5382087Y-11275984D01*
X5467801Y-11475984D02*
X5467801Y-11371222D01*
X5467801Y-11371222D02*
X5458277Y-11352174D01*
X5458277Y-11352174D02*
X5439230Y-11342650D01*
X5439230Y-11342650D02*
X5410658Y-11342650D01*
X5410658Y-11342650D02*
X5391611Y-11352174D01*
X5391611Y-11352174D02*
X5382087Y-11361698D01*
X5591611Y-11475984D02*
X5572563Y-11466460D01*
X5572563Y-11466460D02*
X5563039Y-11456936D01*
X5563039Y-11456936D02*
X5553515Y-11437888D01*
X5553515Y-11437888D02*
X5553515Y-11380746D01*
X5553515Y-11380746D02*
X5563039Y-11361698D01*
X5563039Y-11361698D02*
X5572563Y-11352174D01*
X5572563Y-11352174D02*
X5591611Y-11342650D01*
X5591611Y-11342650D02*
X5620182Y-11342650D01*
X5620182Y-11342650D02*
X5639230Y-11352174D01*
X5639230Y-11352174D02*
X5648753Y-11361698D01*
X5648753Y-11361698D02*
X5658277Y-11380746D01*
X5658277Y-11380746D02*
X5658277Y-11437888D01*
X5658277Y-11437888D02*
X5648753Y-11456936D01*
X5648753Y-11456936D02*
X5639230Y-11466460D01*
X5639230Y-11466460D02*
X5620182Y-11475984D01*
X5620182Y-11475984D02*
X5591611Y-11475984D01*
X5772563Y-11475984D02*
X5753515Y-11466460D01*
X5753515Y-11466460D02*
X5743991Y-11447412D01*
X5743991Y-11447412D02*
X5743991Y-11275984D01*
X5924944Y-11466460D02*
X5905896Y-11475984D01*
X5905896Y-11475984D02*
X5867801Y-11475984D01*
X5867801Y-11475984D02*
X5848753Y-11466460D01*
X5848753Y-11466460D02*
X5839230Y-11447412D01*
X5839230Y-11447412D02*
X5839230Y-11371222D01*
X5839230Y-11371222D02*
X5848753Y-11352174D01*
X5848753Y-11352174D02*
X5867801Y-11342650D01*
X5867801Y-11342650D02*
X5905896Y-11342650D01*
X5905896Y-11342650D02*
X5924944Y-11352174D01*
X5924944Y-11352174D02*
X5934468Y-11371222D01*
X5934468Y-11371222D02*
X5934468Y-11390269D01*
X5934468Y-11390269D02*
X5839230Y-11409317D01*
X6010658Y-11466460D02*
X6029706Y-11475984D01*
X6029706Y-11475984D02*
X6067801Y-11475984D01*
X6067801Y-11475984D02*
X6086849Y-11466460D01*
X6086849Y-11466460D02*
X6096372Y-11447412D01*
X6096372Y-11447412D02*
X6096372Y-11437888D01*
X6096372Y-11437888D02*
X6086849Y-11418841D01*
X6086849Y-11418841D02*
X6067801Y-11409317D01*
X6067801Y-11409317D02*
X6039230Y-11409317D01*
X6039230Y-11409317D02*
X6020182Y-11399793D01*
X6020182Y-11399793D02*
X6010658Y-11380746D01*
X6010658Y-11380746D02*
X6010658Y-11371222D01*
X6010658Y-11371222D02*
X6020182Y-11352174D01*
X6020182Y-11352174D02*
X6039230Y-11342650D01*
X6039230Y-11342650D02*
X6067801Y-11342650D01*
X6067801Y-11342650D02*
X6086849Y-11352174D01*
X6334468Y-11399793D02*
X6486849Y-11399793D01*
X6410658Y-11475984D02*
X6410658Y-11323603D01*
X6715420Y-11275984D02*
X6839230Y-11275984D01*
X6839230Y-11275984D02*
X6772563Y-11352174D01*
X6772563Y-11352174D02*
X6801134Y-11352174D01*
X6801134Y-11352174D02*
X6820182Y-11361698D01*
X6820182Y-11361698D02*
X6829706Y-11371222D01*
X6829706Y-11371222D02*
X6839230Y-11390269D01*
X6839230Y-11390269D02*
X6839230Y-11437888D01*
X6839230Y-11437888D02*
X6829706Y-11456936D01*
X6829706Y-11456936D02*
X6820182Y-11466460D01*
X6820182Y-11466460D02*
X6801134Y-11475984D01*
X6801134Y-11475984D02*
X6743992Y-11475984D01*
X6743992Y-11475984D02*
X6724944Y-11466460D01*
X6724944Y-11466460D02*
X6715420Y-11456936D01*
X7067801Y-11466460D02*
X7086849Y-11475984D01*
X7086849Y-11475984D02*
X7124944Y-11475984D01*
X7124944Y-11475984D02*
X7143992Y-11466460D01*
X7143992Y-11466460D02*
X7153515Y-11447412D01*
X7153515Y-11447412D02*
X7153515Y-11437888D01*
X7153515Y-11437888D02*
X7143992Y-11418841D01*
X7143992Y-11418841D02*
X7124944Y-11409317D01*
X7124944Y-11409317D02*
X7096373Y-11409317D01*
X7096373Y-11409317D02*
X7077325Y-11399793D01*
X7077325Y-11399793D02*
X7067801Y-11380746D01*
X7067801Y-11380746D02*
X7067801Y-11371222D01*
X7067801Y-11371222D02*
X7077325Y-11352174D01*
X7077325Y-11352174D02*
X7096373Y-11342650D01*
X7096373Y-11342650D02*
X7124944Y-11342650D01*
X7124944Y-11342650D02*
X7143992Y-11352174D01*
X7267801Y-11475984D02*
X7248754Y-11466460D01*
X7248754Y-11466460D02*
X7239230Y-11447412D01*
X7239230Y-11447412D02*
X7239230Y-11275984D01*
X7372563Y-11475984D02*
X7353515Y-11466460D01*
X7353515Y-11466460D02*
X7343992Y-11456936D01*
X7343992Y-11456936D02*
X7334468Y-11437888D01*
X7334468Y-11437888D02*
X7334468Y-11380746D01*
X7334468Y-11380746D02*
X7343992Y-11361698D01*
X7343992Y-11361698D02*
X7353515Y-11352174D01*
X7353515Y-11352174D02*
X7372563Y-11342650D01*
X7372563Y-11342650D02*
X7401135Y-11342650D01*
X7401135Y-11342650D02*
X7420182Y-11352174D01*
X7420182Y-11352174D02*
X7429706Y-11361698D01*
X7429706Y-11361698D02*
X7439230Y-11380746D01*
X7439230Y-11380746D02*
X7439230Y-11437888D01*
X7439230Y-11437888D02*
X7429706Y-11456936D01*
X7429706Y-11456936D02*
X7420182Y-11466460D01*
X7420182Y-11466460D02*
X7401135Y-11475984D01*
X7401135Y-11475984D02*
X7372563Y-11475984D01*
X7496373Y-11342650D02*
X7572563Y-11342650D01*
X7524944Y-11275984D02*
X7524944Y-11447412D01*
X7524944Y-11447412D02*
X7534468Y-11466460D01*
X7534468Y-11466460D02*
X7553515Y-11475984D01*
X7553515Y-11475984D02*
X7572563Y-11475984D01*
X7629706Y-11466460D02*
X7648754Y-11475984D01*
X7648754Y-11475984D02*
X7686849Y-11475984D01*
X7686849Y-11475984D02*
X7705896Y-11466460D01*
X7705896Y-11466460D02*
X7715420Y-11447412D01*
X7715420Y-11447412D02*
X7715420Y-11437888D01*
X7715420Y-11437888D02*
X7705896Y-11418841D01*
X7705896Y-11418841D02*
X7686849Y-11409317D01*
X7686849Y-11409317D02*
X7658277Y-11409317D01*
X7658277Y-11409317D02*
X7639230Y-11399793D01*
X7639230Y-11399793D02*
X7629706Y-11380746D01*
X7629706Y-11380746D02*
X7629706Y-11371222D01*
X7629706Y-11371222D02*
X7639230Y-11352174D01*
X7639230Y-11352174D02*
X7658277Y-11342650D01*
X7658277Y-11342650D02*
X7686849Y-11342650D01*
X7686849Y-11342650D02*
X7705896Y-11352174D01*
X7782087Y-11552174D02*
X7791611Y-11542650D01*
X7791611Y-11542650D02*
X7810658Y-11514079D01*
X7810658Y-11514079D02*
X7820182Y-11495031D01*
X7820182Y-11495031D02*
X7829706Y-11466460D01*
X7829706Y-11466460D02*
X7839230Y-11418841D01*
X7839230Y-11418841D02*
X7839230Y-11380746D01*
X7839230Y-11380746D02*
X7829706Y-11333127D01*
X7829706Y-11333127D02*
X7820182Y-11304555D01*
X7820182Y-11304555D02*
X7810658Y-11285508D01*
X7810658Y-11285508D02*
X7791611Y-11256936D01*
X7791611Y-11256936D02*
X7782087Y-11247412D01*
D13*
X1142500Y-11703500D02*
X1197500Y-11648500D01*
X1142500Y-11593500D01*
X1087500Y-11648500D01*
X1142500Y-11703500D01*
D11*
X1563039Y-11739984D02*
X1448753Y-11739984D01*
X1505896Y-11739984D02*
X1505896Y-11539984D01*
X1505896Y-11539984D02*
X1486848Y-11568555D01*
X1486848Y-11568555D02*
X1467801Y-11587603D01*
X1467801Y-11587603D02*
X1448753Y-11597127D01*
X1648753Y-11720936D02*
X1658277Y-11730460D01*
X1658277Y-11730460D02*
X1648753Y-11739984D01*
X1648753Y-11739984D02*
X1639229Y-11730460D01*
X1639229Y-11730460D02*
X1648753Y-11720936D01*
X1648753Y-11720936D02*
X1648753Y-11739984D01*
X1848753Y-11739984D02*
X1734467Y-11739984D01*
X1791610Y-11739984D02*
X1791610Y-11539984D01*
X1791610Y-11539984D02*
X1772562Y-11568555D01*
X1772562Y-11568555D02*
X1753515Y-11587603D01*
X1753515Y-11587603D02*
X1734467Y-11597127D01*
X1972562Y-11539984D02*
X1991610Y-11539984D01*
X1991610Y-11539984D02*
X2010658Y-11549508D01*
X2010658Y-11549508D02*
X2020182Y-11559031D01*
X2020182Y-11559031D02*
X2029705Y-11578079D01*
X2029705Y-11578079D02*
X2039229Y-11616174D01*
X2039229Y-11616174D02*
X2039229Y-11663793D01*
X2039229Y-11663793D02*
X2029705Y-11701888D01*
X2029705Y-11701888D02*
X2020182Y-11720936D01*
X2020182Y-11720936D02*
X2010658Y-11730460D01*
X2010658Y-11730460D02*
X1991610Y-11739984D01*
X1991610Y-11739984D02*
X1972562Y-11739984D01*
X1972562Y-11739984D02*
X1953515Y-11730460D01*
X1953515Y-11730460D02*
X1943991Y-11720936D01*
X1943991Y-11720936D02*
X1934467Y-11701888D01*
X1934467Y-11701888D02*
X1924943Y-11663793D01*
X1924943Y-11663793D02*
X1924943Y-11616174D01*
X1924943Y-11616174D02*
X1934467Y-11578079D01*
X1934467Y-11578079D02*
X1943991Y-11559031D01*
X1943991Y-11559031D02*
X1953515Y-11549508D01*
X1953515Y-11549508D02*
X1972562Y-11539984D01*
X2163039Y-11539984D02*
X2182086Y-11539984D01*
X2182086Y-11539984D02*
X2201134Y-11549508D01*
X2201134Y-11549508D02*
X2210658Y-11559031D01*
X2210658Y-11559031D02*
X2220182Y-11578079D01*
X2220182Y-11578079D02*
X2229705Y-11616174D01*
X2229705Y-11616174D02*
X2229705Y-11663793D01*
X2229705Y-11663793D02*
X2220182Y-11701888D01*
X2220182Y-11701888D02*
X2210658Y-11720936D01*
X2210658Y-11720936D02*
X2201134Y-11730460D01*
X2201134Y-11730460D02*
X2182086Y-11739984D01*
X2182086Y-11739984D02*
X2163039Y-11739984D01*
X2163039Y-11739984D02*
X2143991Y-11730460D01*
X2143991Y-11730460D02*
X2134467Y-11720936D01*
X2134467Y-11720936D02*
X2124944Y-11701888D01*
X2124944Y-11701888D02*
X2115420Y-11663793D01*
X2115420Y-11663793D02*
X2115420Y-11616174D01*
X2115420Y-11616174D02*
X2124944Y-11578079D01*
X2124944Y-11578079D02*
X2134467Y-11559031D01*
X2134467Y-11559031D02*
X2143991Y-11549508D01*
X2143991Y-11549508D02*
X2163039Y-11539984D01*
X2315420Y-11739984D02*
X2315420Y-11606650D01*
X2315420Y-11625698D02*
X2324944Y-11616174D01*
X2324944Y-11616174D02*
X2343991Y-11606650D01*
X2343991Y-11606650D02*
X2372563Y-11606650D01*
X2372563Y-11606650D02*
X2391610Y-11616174D01*
X2391610Y-11616174D02*
X2401134Y-11635222D01*
X2401134Y-11635222D02*
X2401134Y-11739984D01*
X2401134Y-11635222D02*
X2410658Y-11616174D01*
X2410658Y-11616174D02*
X2429705Y-11606650D01*
X2429705Y-11606650D02*
X2458277Y-11606650D01*
X2458277Y-11606650D02*
X2477325Y-11616174D01*
X2477325Y-11616174D02*
X2486848Y-11635222D01*
X2486848Y-11635222D02*
X2486848Y-11739984D01*
X2582086Y-11739984D02*
X2582086Y-11606650D01*
X2582086Y-11625698D02*
X2591610Y-11616174D01*
X2591610Y-11616174D02*
X2610658Y-11606650D01*
X2610658Y-11606650D02*
X2639229Y-11606650D01*
X2639229Y-11606650D02*
X2658277Y-11616174D01*
X2658277Y-11616174D02*
X2667801Y-11635222D01*
X2667801Y-11635222D02*
X2667801Y-11739984D01*
X2667801Y-11635222D02*
X2677325Y-11616174D01*
X2677325Y-11616174D02*
X2696372Y-11606650D01*
X2696372Y-11606650D02*
X2724944Y-11606650D01*
X2724944Y-11606650D02*
X2743991Y-11616174D01*
X2743991Y-11616174D02*
X2753515Y-11635222D01*
X2753515Y-11635222D02*
X2753515Y-11739984D01*
X3143991Y-11530460D02*
X2972563Y-11787603D01*
X3401134Y-11539984D02*
X3420182Y-11539984D01*
X3420182Y-11539984D02*
X3439229Y-11549508D01*
X3439229Y-11549508D02*
X3448753Y-11559031D01*
X3448753Y-11559031D02*
X3458277Y-11578079D01*
X3458277Y-11578079D02*
X3467801Y-11616174D01*
X3467801Y-11616174D02*
X3467801Y-11663793D01*
X3467801Y-11663793D02*
X3458277Y-11701888D01*
X3458277Y-11701888D02*
X3448753Y-11720936D01*
X3448753Y-11720936D02*
X3439229Y-11730460D01*
X3439229Y-11730460D02*
X3420182Y-11739984D01*
X3420182Y-11739984D02*
X3401134Y-11739984D01*
X3401134Y-11739984D02*
X3382086Y-11730460D01*
X3382086Y-11730460D02*
X3372563Y-11720936D01*
X3372563Y-11720936D02*
X3363039Y-11701888D01*
X3363039Y-11701888D02*
X3353515Y-11663793D01*
X3353515Y-11663793D02*
X3353515Y-11616174D01*
X3353515Y-11616174D02*
X3363039Y-11578079D01*
X3363039Y-11578079D02*
X3372563Y-11559031D01*
X3372563Y-11559031D02*
X3382086Y-11549508D01*
X3382086Y-11549508D02*
X3401134Y-11539984D01*
X3553515Y-11720936D02*
X3563039Y-11730460D01*
X3563039Y-11730460D02*
X3553515Y-11739984D01*
X3553515Y-11739984D02*
X3543991Y-11730460D01*
X3543991Y-11730460D02*
X3553515Y-11720936D01*
X3553515Y-11720936D02*
X3553515Y-11739984D01*
X3686848Y-11539984D02*
X3705896Y-11539984D01*
X3705896Y-11539984D02*
X3724944Y-11549508D01*
X3724944Y-11549508D02*
X3734467Y-11559031D01*
X3734467Y-11559031D02*
X3743991Y-11578079D01*
X3743991Y-11578079D02*
X3753515Y-11616174D01*
X3753515Y-11616174D02*
X3753515Y-11663793D01*
X3753515Y-11663793D02*
X3743991Y-11701888D01*
X3743991Y-11701888D02*
X3734467Y-11720936D01*
X3734467Y-11720936D02*
X3724944Y-11730460D01*
X3724944Y-11730460D02*
X3705896Y-11739984D01*
X3705896Y-11739984D02*
X3686848Y-11739984D01*
X3686848Y-11739984D02*
X3667801Y-11730460D01*
X3667801Y-11730460D02*
X3658277Y-11720936D01*
X3658277Y-11720936D02*
X3648753Y-11701888D01*
X3648753Y-11701888D02*
X3639229Y-11663793D01*
X3639229Y-11663793D02*
X3639229Y-11616174D01*
X3639229Y-11616174D02*
X3648753Y-11578079D01*
X3648753Y-11578079D02*
X3658277Y-11559031D01*
X3658277Y-11559031D02*
X3667801Y-11549508D01*
X3667801Y-11549508D02*
X3686848Y-11539984D01*
X3924944Y-11606650D02*
X3924944Y-11739984D01*
X3877325Y-11530460D02*
X3829706Y-11673317D01*
X3829706Y-11673317D02*
X3953515Y-11673317D01*
X4010658Y-11539984D02*
X4134467Y-11539984D01*
X4134467Y-11539984D02*
X4067801Y-11616174D01*
X4067801Y-11616174D02*
X4096372Y-11616174D01*
X4096372Y-11616174D02*
X4115420Y-11625698D01*
X4115420Y-11625698D02*
X4124944Y-11635222D01*
X4124944Y-11635222D02*
X4134467Y-11654269D01*
X4134467Y-11654269D02*
X4134467Y-11701888D01*
X4134467Y-11701888D02*
X4124944Y-11720936D01*
X4124944Y-11720936D02*
X4115420Y-11730460D01*
X4115420Y-11730460D02*
X4096372Y-11739984D01*
X4096372Y-11739984D02*
X4039229Y-11739984D01*
X4039229Y-11739984D02*
X4020182Y-11730460D01*
X4020182Y-11730460D02*
X4010658Y-11720936D01*
X4201134Y-11539984D02*
X4324944Y-11539984D01*
X4324944Y-11539984D02*
X4258277Y-11616174D01*
X4258277Y-11616174D02*
X4286849Y-11616174D01*
X4286849Y-11616174D02*
X4305896Y-11625698D01*
X4305896Y-11625698D02*
X4315420Y-11635222D01*
X4315420Y-11635222D02*
X4324944Y-11654269D01*
X4324944Y-11654269D02*
X4324944Y-11701888D01*
X4324944Y-11701888D02*
X4315420Y-11720936D01*
X4315420Y-11720936D02*
X4305896Y-11730460D01*
X4305896Y-11730460D02*
X4286849Y-11739984D01*
X4286849Y-11739984D02*
X4229706Y-11739984D01*
X4229706Y-11739984D02*
X4210658Y-11730460D01*
X4210658Y-11730460D02*
X4201134Y-11720936D01*
X4401134Y-11539984D02*
X4401134Y-11578079D01*
X4477325Y-11539984D02*
X4477325Y-11578079D01*
X4772563Y-11816174D02*
X4763039Y-11806650D01*
X4763039Y-11806650D02*
X4743991Y-11778079D01*
X4743991Y-11778079D02*
X4734468Y-11759031D01*
X4734468Y-11759031D02*
X4724944Y-11730460D01*
X4724944Y-11730460D02*
X4715420Y-11682841D01*
X4715420Y-11682841D02*
X4715420Y-11644746D01*
X4715420Y-11644746D02*
X4724944Y-11597127D01*
X4724944Y-11597127D02*
X4734468Y-11568555D01*
X4734468Y-11568555D02*
X4743991Y-11549508D01*
X4743991Y-11549508D02*
X4763039Y-11520936D01*
X4763039Y-11520936D02*
X4772563Y-11511412D01*
X4934468Y-11606650D02*
X4934468Y-11739984D01*
X4886849Y-11530460D02*
X4839230Y-11673317D01*
X4839230Y-11673317D02*
X4963039Y-11673317D01*
X5029706Y-11559031D02*
X5039230Y-11549508D01*
X5039230Y-11549508D02*
X5058277Y-11539984D01*
X5058277Y-11539984D02*
X5105896Y-11539984D01*
X5105896Y-11539984D02*
X5124944Y-11549508D01*
X5124944Y-11549508D02*
X5134468Y-11559031D01*
X5134468Y-11559031D02*
X5143991Y-11578079D01*
X5143991Y-11578079D02*
X5143991Y-11597127D01*
X5143991Y-11597127D02*
X5134468Y-11625698D01*
X5134468Y-11625698D02*
X5020182Y-11739984D01*
X5020182Y-11739984D02*
X5143991Y-11739984D01*
X5382087Y-11739984D02*
X5382087Y-11539984D01*
X5467801Y-11739984D02*
X5467801Y-11635222D01*
X5467801Y-11635222D02*
X5458277Y-11616174D01*
X5458277Y-11616174D02*
X5439230Y-11606650D01*
X5439230Y-11606650D02*
X5410658Y-11606650D01*
X5410658Y-11606650D02*
X5391611Y-11616174D01*
X5391611Y-11616174D02*
X5382087Y-11625698D01*
X5591611Y-11739984D02*
X5572563Y-11730460D01*
X5572563Y-11730460D02*
X5563039Y-11720936D01*
X5563039Y-11720936D02*
X5553515Y-11701888D01*
X5553515Y-11701888D02*
X5553515Y-11644746D01*
X5553515Y-11644746D02*
X5563039Y-11625698D01*
X5563039Y-11625698D02*
X5572563Y-11616174D01*
X5572563Y-11616174D02*
X5591611Y-11606650D01*
X5591611Y-11606650D02*
X5620182Y-11606650D01*
X5620182Y-11606650D02*
X5639230Y-11616174D01*
X5639230Y-11616174D02*
X5648753Y-11625698D01*
X5648753Y-11625698D02*
X5658277Y-11644746D01*
X5658277Y-11644746D02*
X5658277Y-11701888D01*
X5658277Y-11701888D02*
X5648753Y-11720936D01*
X5648753Y-11720936D02*
X5639230Y-11730460D01*
X5639230Y-11730460D02*
X5620182Y-11739984D01*
X5620182Y-11739984D02*
X5591611Y-11739984D01*
X5772563Y-11739984D02*
X5753515Y-11730460D01*
X5753515Y-11730460D02*
X5743991Y-11711412D01*
X5743991Y-11711412D02*
X5743991Y-11539984D01*
X5924944Y-11730460D02*
X5905896Y-11739984D01*
X5905896Y-11739984D02*
X5867801Y-11739984D01*
X5867801Y-11739984D02*
X5848753Y-11730460D01*
X5848753Y-11730460D02*
X5839230Y-11711412D01*
X5839230Y-11711412D02*
X5839230Y-11635222D01*
X5839230Y-11635222D02*
X5848753Y-11616174D01*
X5848753Y-11616174D02*
X5867801Y-11606650D01*
X5867801Y-11606650D02*
X5905896Y-11606650D01*
X5905896Y-11606650D02*
X5924944Y-11616174D01*
X5924944Y-11616174D02*
X5934468Y-11635222D01*
X5934468Y-11635222D02*
X5934468Y-11654269D01*
X5934468Y-11654269D02*
X5839230Y-11673317D01*
X6010658Y-11730460D02*
X6029706Y-11739984D01*
X6029706Y-11739984D02*
X6067801Y-11739984D01*
X6067801Y-11739984D02*
X6086849Y-11730460D01*
X6086849Y-11730460D02*
X6096372Y-11711412D01*
X6096372Y-11711412D02*
X6096372Y-11701888D01*
X6096372Y-11701888D02*
X6086849Y-11682841D01*
X6086849Y-11682841D02*
X6067801Y-11673317D01*
X6067801Y-11673317D02*
X6039230Y-11673317D01*
X6039230Y-11673317D02*
X6020182Y-11663793D01*
X6020182Y-11663793D02*
X6010658Y-11644746D01*
X6010658Y-11644746D02*
X6010658Y-11635222D01*
X6010658Y-11635222D02*
X6020182Y-11616174D01*
X6020182Y-11616174D02*
X6039230Y-11606650D01*
X6039230Y-11606650D02*
X6067801Y-11606650D01*
X6067801Y-11606650D02*
X6086849Y-11616174D01*
X6163039Y-11816174D02*
X6172563Y-11806650D01*
X6172563Y-11806650D02*
X6191611Y-11778079D01*
X6191611Y-11778079D02*
X6201134Y-11759031D01*
X6201134Y-11759031D02*
X6210658Y-11730460D01*
X6210658Y-11730460D02*
X6220182Y-11682841D01*
X6220182Y-11682841D02*
X6220182Y-11644746D01*
X6220182Y-11644746D02*
X6210658Y-11597127D01*
X6210658Y-11597127D02*
X6201134Y-11568555D01*
X6201134Y-11568555D02*
X6191611Y-11549508D01*
X6191611Y-11549508D02*
X6172563Y-11520936D01*
X6172563Y-11520936D02*
X6163039Y-11511412D01*
D14*
X1047500Y-11837500D02*
X1197500Y-11987500D01*
X1197500Y-11837500D02*
X1047500Y-11987500D01*
X1197500Y-11912500D02*
G75*
G02*
X1047500Y-11912500I-75000J0D01*
G01*
X1047500Y-11912500D02*
G75*
G02*
X1197500Y-11912500I75000J0D01*
G01*
D11*
X1563039Y-12003984D02*
X1448753Y-12003984D01*
X1505896Y-12003984D02*
X1505896Y-11803984D01*
X1505896Y-11803984D02*
X1486848Y-11832555D01*
X1486848Y-11832555D02*
X1467801Y-11851603D01*
X1467801Y-11851603D02*
X1448753Y-11861127D01*
X1648753Y-11984936D02*
X1658277Y-11994460D01*
X1658277Y-11994460D02*
X1648753Y-12003984D01*
X1648753Y-12003984D02*
X1639229Y-11994460D01*
X1639229Y-11994460D02*
X1648753Y-11984936D01*
X1648753Y-11984936D02*
X1648753Y-12003984D01*
X1839229Y-11803984D02*
X1743991Y-11803984D01*
X1743991Y-11803984D02*
X1734467Y-11899222D01*
X1734467Y-11899222D02*
X1743991Y-11889698D01*
X1743991Y-11889698D02*
X1763039Y-11880174D01*
X1763039Y-11880174D02*
X1810658Y-11880174D01*
X1810658Y-11880174D02*
X1829705Y-11889698D01*
X1829705Y-11889698D02*
X1839229Y-11899222D01*
X1839229Y-11899222D02*
X1848753Y-11918269D01*
X1848753Y-11918269D02*
X1848753Y-11965888D01*
X1848753Y-11965888D02*
X1839229Y-11984936D01*
X1839229Y-11984936D02*
X1829705Y-11994460D01*
X1829705Y-11994460D02*
X1810658Y-12003984D01*
X1810658Y-12003984D02*
X1763039Y-12003984D01*
X1763039Y-12003984D02*
X1743991Y-11994460D01*
X1743991Y-11994460D02*
X1734467Y-11984936D01*
X1972562Y-11803984D02*
X1991610Y-11803984D01*
X1991610Y-11803984D02*
X2010658Y-11813508D01*
X2010658Y-11813508D02*
X2020182Y-11823031D01*
X2020182Y-11823031D02*
X2029705Y-11842079D01*
X2029705Y-11842079D02*
X2039229Y-11880174D01*
X2039229Y-11880174D02*
X2039229Y-11927793D01*
X2039229Y-11927793D02*
X2029705Y-11965888D01*
X2029705Y-11965888D02*
X2020182Y-11984936D01*
X2020182Y-11984936D02*
X2010658Y-11994460D01*
X2010658Y-11994460D02*
X1991610Y-12003984D01*
X1991610Y-12003984D02*
X1972562Y-12003984D01*
X1972562Y-12003984D02*
X1953515Y-11994460D01*
X1953515Y-11994460D02*
X1943991Y-11984936D01*
X1943991Y-11984936D02*
X1934467Y-11965888D01*
X1934467Y-11965888D02*
X1924943Y-11927793D01*
X1924943Y-11927793D02*
X1924943Y-11880174D01*
X1924943Y-11880174D02*
X1934467Y-11842079D01*
X1934467Y-11842079D02*
X1943991Y-11823031D01*
X1943991Y-11823031D02*
X1953515Y-11813508D01*
X1953515Y-11813508D02*
X1972562Y-11803984D01*
X2163039Y-11803984D02*
X2182086Y-11803984D01*
X2182086Y-11803984D02*
X2201134Y-11813508D01*
X2201134Y-11813508D02*
X2210658Y-11823031D01*
X2210658Y-11823031D02*
X2220182Y-11842079D01*
X2220182Y-11842079D02*
X2229705Y-11880174D01*
X2229705Y-11880174D02*
X2229705Y-11927793D01*
X2229705Y-11927793D02*
X2220182Y-11965888D01*
X2220182Y-11965888D02*
X2210658Y-11984936D01*
X2210658Y-11984936D02*
X2201134Y-11994460D01*
X2201134Y-11994460D02*
X2182086Y-12003984D01*
X2182086Y-12003984D02*
X2163039Y-12003984D01*
X2163039Y-12003984D02*
X2143991Y-11994460D01*
X2143991Y-11994460D02*
X2134467Y-11984936D01*
X2134467Y-11984936D02*
X2124944Y-11965888D01*
X2124944Y-11965888D02*
X2115420Y-11927793D01*
X2115420Y-11927793D02*
X2115420Y-11880174D01*
X2115420Y-11880174D02*
X2124944Y-11842079D01*
X2124944Y-11842079D02*
X2134467Y-11823031D01*
X2134467Y-11823031D02*
X2143991Y-11813508D01*
X2143991Y-11813508D02*
X2163039Y-11803984D01*
X2315420Y-12003984D02*
X2315420Y-11870650D01*
X2315420Y-11889698D02*
X2324944Y-11880174D01*
X2324944Y-11880174D02*
X2343991Y-11870650D01*
X2343991Y-11870650D02*
X2372563Y-11870650D01*
X2372563Y-11870650D02*
X2391610Y-11880174D01*
X2391610Y-11880174D02*
X2401134Y-11899222D01*
X2401134Y-11899222D02*
X2401134Y-12003984D01*
X2401134Y-11899222D02*
X2410658Y-11880174D01*
X2410658Y-11880174D02*
X2429705Y-11870650D01*
X2429705Y-11870650D02*
X2458277Y-11870650D01*
X2458277Y-11870650D02*
X2477325Y-11880174D01*
X2477325Y-11880174D02*
X2486848Y-11899222D01*
X2486848Y-11899222D02*
X2486848Y-12003984D01*
X2582086Y-12003984D02*
X2582086Y-11870650D01*
X2582086Y-11889698D02*
X2591610Y-11880174D01*
X2591610Y-11880174D02*
X2610658Y-11870650D01*
X2610658Y-11870650D02*
X2639229Y-11870650D01*
X2639229Y-11870650D02*
X2658277Y-11880174D01*
X2658277Y-11880174D02*
X2667801Y-11899222D01*
X2667801Y-11899222D02*
X2667801Y-12003984D01*
X2667801Y-11899222D02*
X2677325Y-11880174D01*
X2677325Y-11880174D02*
X2696372Y-11870650D01*
X2696372Y-11870650D02*
X2724944Y-11870650D01*
X2724944Y-11870650D02*
X2743991Y-11880174D01*
X2743991Y-11880174D02*
X2753515Y-11899222D01*
X2753515Y-11899222D02*
X2753515Y-12003984D01*
X3143991Y-11794460D02*
X2972563Y-12051603D01*
X3401134Y-11803984D02*
X3420182Y-11803984D01*
X3420182Y-11803984D02*
X3439229Y-11813508D01*
X3439229Y-11813508D02*
X3448753Y-11823031D01*
X3448753Y-11823031D02*
X3458277Y-11842079D01*
X3458277Y-11842079D02*
X3467801Y-11880174D01*
X3467801Y-11880174D02*
X3467801Y-11927793D01*
X3467801Y-11927793D02*
X3458277Y-11965888D01*
X3458277Y-11965888D02*
X3448753Y-11984936D01*
X3448753Y-11984936D02*
X3439229Y-11994460D01*
X3439229Y-11994460D02*
X3420182Y-12003984D01*
X3420182Y-12003984D02*
X3401134Y-12003984D01*
X3401134Y-12003984D02*
X3382086Y-11994460D01*
X3382086Y-11994460D02*
X3372563Y-11984936D01*
X3372563Y-11984936D02*
X3363039Y-11965888D01*
X3363039Y-11965888D02*
X3353515Y-11927793D01*
X3353515Y-11927793D02*
X3353515Y-11880174D01*
X3353515Y-11880174D02*
X3363039Y-11842079D01*
X3363039Y-11842079D02*
X3372563Y-11823031D01*
X3372563Y-11823031D02*
X3382086Y-11813508D01*
X3382086Y-11813508D02*
X3401134Y-11803984D01*
X3553515Y-11984936D02*
X3563039Y-11994460D01*
X3563039Y-11994460D02*
X3553515Y-12003984D01*
X3553515Y-12003984D02*
X3543991Y-11994460D01*
X3543991Y-11994460D02*
X3553515Y-11984936D01*
X3553515Y-11984936D02*
X3553515Y-12003984D01*
X3686848Y-11803984D02*
X3705896Y-11803984D01*
X3705896Y-11803984D02*
X3724944Y-11813508D01*
X3724944Y-11813508D02*
X3734467Y-11823031D01*
X3734467Y-11823031D02*
X3743991Y-11842079D01*
X3743991Y-11842079D02*
X3753515Y-11880174D01*
X3753515Y-11880174D02*
X3753515Y-11927793D01*
X3753515Y-11927793D02*
X3743991Y-11965888D01*
X3743991Y-11965888D02*
X3734467Y-11984936D01*
X3734467Y-11984936D02*
X3724944Y-11994460D01*
X3724944Y-11994460D02*
X3705896Y-12003984D01*
X3705896Y-12003984D02*
X3686848Y-12003984D01*
X3686848Y-12003984D02*
X3667801Y-11994460D01*
X3667801Y-11994460D02*
X3658277Y-11984936D01*
X3658277Y-11984936D02*
X3648753Y-11965888D01*
X3648753Y-11965888D02*
X3639229Y-11927793D01*
X3639229Y-11927793D02*
X3639229Y-11880174D01*
X3639229Y-11880174D02*
X3648753Y-11842079D01*
X3648753Y-11842079D02*
X3658277Y-11823031D01*
X3658277Y-11823031D02*
X3667801Y-11813508D01*
X3667801Y-11813508D02*
X3686848Y-11803984D01*
X3934467Y-11803984D02*
X3839229Y-11803984D01*
X3839229Y-11803984D02*
X3829706Y-11899222D01*
X3829706Y-11899222D02*
X3839229Y-11889698D01*
X3839229Y-11889698D02*
X3858277Y-11880174D01*
X3858277Y-11880174D02*
X3905896Y-11880174D01*
X3905896Y-11880174D02*
X3924944Y-11889698D01*
X3924944Y-11889698D02*
X3934467Y-11899222D01*
X3934467Y-11899222D02*
X3943991Y-11918269D01*
X3943991Y-11918269D02*
X3943991Y-11965888D01*
X3943991Y-11965888D02*
X3934467Y-11984936D01*
X3934467Y-11984936D02*
X3924944Y-11994460D01*
X3924944Y-11994460D02*
X3905896Y-12003984D01*
X3905896Y-12003984D02*
X3858277Y-12003984D01*
X3858277Y-12003984D02*
X3839229Y-11994460D01*
X3839229Y-11994460D02*
X3829706Y-11984936D01*
X4039229Y-12003984D02*
X4077325Y-12003984D01*
X4077325Y-12003984D02*
X4096372Y-11994460D01*
X4096372Y-11994460D02*
X4105896Y-11984936D01*
X4105896Y-11984936D02*
X4124944Y-11956365D01*
X4124944Y-11956365D02*
X4134467Y-11918269D01*
X4134467Y-11918269D02*
X4134467Y-11842079D01*
X4134467Y-11842079D02*
X4124944Y-11823031D01*
X4124944Y-11823031D02*
X4115420Y-11813508D01*
X4115420Y-11813508D02*
X4096372Y-11803984D01*
X4096372Y-11803984D02*
X4058277Y-11803984D01*
X4058277Y-11803984D02*
X4039229Y-11813508D01*
X4039229Y-11813508D02*
X4029706Y-11823031D01*
X4029706Y-11823031D02*
X4020182Y-11842079D01*
X4020182Y-11842079D02*
X4020182Y-11889698D01*
X4020182Y-11889698D02*
X4029706Y-11908746D01*
X4029706Y-11908746D02*
X4039229Y-11918269D01*
X4039229Y-11918269D02*
X4058277Y-11927793D01*
X4058277Y-11927793D02*
X4096372Y-11927793D01*
X4096372Y-11927793D02*
X4115420Y-11918269D01*
X4115420Y-11918269D02*
X4124944Y-11908746D01*
X4124944Y-11908746D02*
X4134467Y-11889698D01*
X4324944Y-12003984D02*
X4210658Y-12003984D01*
X4267801Y-12003984D02*
X4267801Y-11803984D01*
X4267801Y-11803984D02*
X4248753Y-11832555D01*
X4248753Y-11832555D02*
X4229706Y-11851603D01*
X4229706Y-11851603D02*
X4210658Y-11861127D01*
X4401134Y-11803984D02*
X4401134Y-11842079D01*
X4477325Y-11803984D02*
X4477325Y-11842079D01*
X4772563Y-12080174D02*
X4763039Y-12070650D01*
X4763039Y-12070650D02*
X4743991Y-12042079D01*
X4743991Y-12042079D02*
X4734468Y-12023031D01*
X4734468Y-12023031D02*
X4724944Y-11994460D01*
X4724944Y-11994460D02*
X4715420Y-11946841D01*
X4715420Y-11946841D02*
X4715420Y-11908746D01*
X4715420Y-11908746D02*
X4724944Y-11861127D01*
X4724944Y-11861127D02*
X4734468Y-11832555D01*
X4734468Y-11832555D02*
X4743991Y-11813508D01*
X4743991Y-11813508D02*
X4763039Y-11784936D01*
X4763039Y-11784936D02*
X4772563Y-11775412D01*
X4886849Y-11803984D02*
X4905896Y-11803984D01*
X4905896Y-11803984D02*
X4924944Y-11813508D01*
X4924944Y-11813508D02*
X4934468Y-11823031D01*
X4934468Y-11823031D02*
X4943991Y-11842079D01*
X4943991Y-11842079D02*
X4953515Y-11880174D01*
X4953515Y-11880174D02*
X4953515Y-11927793D01*
X4953515Y-11927793D02*
X4943991Y-11965888D01*
X4943991Y-11965888D02*
X4934468Y-11984936D01*
X4934468Y-11984936D02*
X4924944Y-11994460D01*
X4924944Y-11994460D02*
X4905896Y-12003984D01*
X4905896Y-12003984D02*
X4886849Y-12003984D01*
X4886849Y-12003984D02*
X4867801Y-11994460D01*
X4867801Y-11994460D02*
X4858277Y-11984936D01*
X4858277Y-11984936D02*
X4848753Y-11965888D01*
X4848753Y-11965888D02*
X4839230Y-11927793D01*
X4839230Y-11927793D02*
X4839230Y-11880174D01*
X4839230Y-11880174D02*
X4848753Y-11842079D01*
X4848753Y-11842079D02*
X4858277Y-11823031D01*
X4858277Y-11823031D02*
X4867801Y-11813508D01*
X4867801Y-11813508D02*
X4886849Y-11803984D01*
X5191611Y-12003984D02*
X5191611Y-11803984D01*
X5277325Y-12003984D02*
X5277325Y-11899222D01*
X5277325Y-11899222D02*
X5267801Y-11880174D01*
X5267801Y-11880174D02*
X5248753Y-11870650D01*
X5248753Y-11870650D02*
X5220182Y-11870650D01*
X5220182Y-11870650D02*
X5201134Y-11880174D01*
X5201134Y-11880174D02*
X5191611Y-11889698D01*
X5401134Y-12003984D02*
X5382087Y-11994460D01*
X5382087Y-11994460D02*
X5372563Y-11984936D01*
X5372563Y-11984936D02*
X5363039Y-11965888D01*
X5363039Y-11965888D02*
X5363039Y-11908746D01*
X5363039Y-11908746D02*
X5372563Y-11889698D01*
X5372563Y-11889698D02*
X5382087Y-11880174D01*
X5382087Y-11880174D02*
X5401134Y-11870650D01*
X5401134Y-11870650D02*
X5429706Y-11870650D01*
X5429706Y-11870650D02*
X5448753Y-11880174D01*
X5448753Y-11880174D02*
X5458277Y-11889698D01*
X5458277Y-11889698D02*
X5467801Y-11908746D01*
X5467801Y-11908746D02*
X5467801Y-11965888D01*
X5467801Y-11965888D02*
X5458277Y-11984936D01*
X5458277Y-11984936D02*
X5448753Y-11994460D01*
X5448753Y-11994460D02*
X5429706Y-12003984D01*
X5429706Y-12003984D02*
X5401134Y-12003984D01*
X5582087Y-12003984D02*
X5563039Y-11994460D01*
X5563039Y-11994460D02*
X5553515Y-11975412D01*
X5553515Y-11975412D02*
X5553515Y-11803984D01*
X5734468Y-11994460D02*
X5715420Y-12003984D01*
X5715420Y-12003984D02*
X5677325Y-12003984D01*
X5677325Y-12003984D02*
X5658277Y-11994460D01*
X5658277Y-11994460D02*
X5648753Y-11975412D01*
X5648753Y-11975412D02*
X5648753Y-11899222D01*
X5648753Y-11899222D02*
X5658277Y-11880174D01*
X5658277Y-11880174D02*
X5677325Y-11870650D01*
X5677325Y-11870650D02*
X5715420Y-11870650D01*
X5715420Y-11870650D02*
X5734468Y-11880174D01*
X5734468Y-11880174D02*
X5743991Y-11899222D01*
X5743991Y-11899222D02*
X5743991Y-11918269D01*
X5743991Y-11918269D02*
X5648753Y-11937317D01*
X5820182Y-11994460D02*
X5839230Y-12003984D01*
X5839230Y-12003984D02*
X5877325Y-12003984D01*
X5877325Y-12003984D02*
X5896372Y-11994460D01*
X5896372Y-11994460D02*
X5905896Y-11975412D01*
X5905896Y-11975412D02*
X5905896Y-11965888D01*
X5905896Y-11965888D02*
X5896372Y-11946841D01*
X5896372Y-11946841D02*
X5877325Y-11937317D01*
X5877325Y-11937317D02*
X5848753Y-11937317D01*
X5848753Y-11937317D02*
X5829706Y-11927793D01*
X5829706Y-11927793D02*
X5820182Y-11908746D01*
X5820182Y-11908746D02*
X5820182Y-11899222D01*
X5820182Y-11899222D02*
X5829706Y-11880174D01*
X5829706Y-11880174D02*
X5848753Y-11870650D01*
X5848753Y-11870650D02*
X5877325Y-11870650D01*
X5877325Y-11870650D02*
X5896372Y-11880174D01*
X6143992Y-11927793D02*
X6296373Y-11927793D01*
X6220182Y-12003984D02*
X6220182Y-11851603D01*
X6534468Y-11823031D02*
X6543992Y-11813508D01*
X6543992Y-11813508D02*
X6563039Y-11803984D01*
X6563039Y-11803984D02*
X6610658Y-11803984D01*
X6610658Y-11803984D02*
X6629706Y-11813508D01*
X6629706Y-11813508D02*
X6639230Y-11823031D01*
X6639230Y-11823031D02*
X6648753Y-11842079D01*
X6648753Y-11842079D02*
X6648753Y-11861127D01*
X6648753Y-11861127D02*
X6639230Y-11889698D01*
X6639230Y-11889698D02*
X6524944Y-12003984D01*
X6524944Y-12003984D02*
X6648753Y-12003984D01*
X6877325Y-11994460D02*
X6896373Y-12003984D01*
X6896373Y-12003984D02*
X6934468Y-12003984D01*
X6934468Y-12003984D02*
X6953515Y-11994460D01*
X6953515Y-11994460D02*
X6963039Y-11975412D01*
X6963039Y-11975412D02*
X6963039Y-11965888D01*
X6963039Y-11965888D02*
X6953515Y-11946841D01*
X6953515Y-11946841D02*
X6934468Y-11937317D01*
X6934468Y-11937317D02*
X6905896Y-11937317D01*
X6905896Y-11937317D02*
X6886849Y-11927793D01*
X6886849Y-11927793D02*
X6877325Y-11908746D01*
X6877325Y-11908746D02*
X6877325Y-11899222D01*
X6877325Y-11899222D02*
X6886849Y-11880174D01*
X6886849Y-11880174D02*
X6905896Y-11870650D01*
X6905896Y-11870650D02*
X6934468Y-11870650D01*
X6934468Y-11870650D02*
X6953515Y-11880174D01*
X7077325Y-12003984D02*
X7058277Y-11994460D01*
X7058277Y-11994460D02*
X7048754Y-11975412D01*
X7048754Y-11975412D02*
X7048754Y-11803984D01*
X7182087Y-12003984D02*
X7163039Y-11994460D01*
X7163039Y-11994460D02*
X7153515Y-11984936D01*
X7153515Y-11984936D02*
X7143992Y-11965888D01*
X7143992Y-11965888D02*
X7143992Y-11908746D01*
X7143992Y-11908746D02*
X7153515Y-11889698D01*
X7153515Y-11889698D02*
X7163039Y-11880174D01*
X7163039Y-11880174D02*
X7182087Y-11870650D01*
X7182087Y-11870650D02*
X7210658Y-11870650D01*
X7210658Y-11870650D02*
X7229706Y-11880174D01*
X7229706Y-11880174D02*
X7239230Y-11889698D01*
X7239230Y-11889698D02*
X7248754Y-11908746D01*
X7248754Y-11908746D02*
X7248754Y-11965888D01*
X7248754Y-11965888D02*
X7239230Y-11984936D01*
X7239230Y-11984936D02*
X7229706Y-11994460D01*
X7229706Y-11994460D02*
X7210658Y-12003984D01*
X7210658Y-12003984D02*
X7182087Y-12003984D01*
X7305896Y-11870650D02*
X7382087Y-11870650D01*
X7334468Y-11803984D02*
X7334468Y-11975412D01*
X7334468Y-11975412D02*
X7343992Y-11994460D01*
X7343992Y-11994460D02*
X7363039Y-12003984D01*
X7363039Y-12003984D02*
X7382087Y-12003984D01*
X7439230Y-11994460D02*
X7458277Y-12003984D01*
X7458277Y-12003984D02*
X7496373Y-12003984D01*
X7496373Y-12003984D02*
X7515420Y-11994460D01*
X7515420Y-11994460D02*
X7524944Y-11975412D01*
X7524944Y-11975412D02*
X7524944Y-11965888D01*
X7524944Y-11965888D02*
X7515420Y-11946841D01*
X7515420Y-11946841D02*
X7496373Y-11937317D01*
X7496373Y-11937317D02*
X7467801Y-11937317D01*
X7467801Y-11937317D02*
X7448754Y-11927793D01*
X7448754Y-11927793D02*
X7439230Y-11908746D01*
X7439230Y-11908746D02*
X7439230Y-11899222D01*
X7439230Y-11899222D02*
X7448754Y-11880174D01*
X7448754Y-11880174D02*
X7467801Y-11870650D01*
X7467801Y-11870650D02*
X7496373Y-11870650D01*
X7496373Y-11870650D02*
X7515420Y-11880174D01*
X7591611Y-12080174D02*
X7601135Y-12070650D01*
X7601135Y-12070650D02*
X7620182Y-12042079D01*
X7620182Y-12042079D02*
X7629706Y-12023031D01*
X7629706Y-12023031D02*
X7639230Y-11994460D01*
X7639230Y-11994460D02*
X7648754Y-11946841D01*
X7648754Y-11946841D02*
X7648754Y-11908746D01*
X7648754Y-11908746D02*
X7639230Y-11861127D01*
X7639230Y-11861127D02*
X7629706Y-11832555D01*
X7629706Y-11832555D02*
X7620182Y-11813508D01*
X7620182Y-11813508D02*
X7601135Y-11784936D01*
X7601135Y-11784936D02*
X7591611Y-11775412D01*
X997500Y-12082500D02*
X1197500Y-12282500D01*
X1197500Y-12082500D02*
X997500Y-12282500D01*
X1097500Y-12082500D02*
X1097500Y-12282500D01*
X997500Y-12182500D02*
X1197500Y-12182500D01*
X1439229Y-12073984D02*
X1563039Y-12073984D01*
X1563039Y-12073984D02*
X1496372Y-12150174D01*
X1496372Y-12150174D02*
X1524943Y-12150174D01*
X1524943Y-12150174D02*
X1543991Y-12159698D01*
X1543991Y-12159698D02*
X1553515Y-12169222D01*
X1553515Y-12169222D02*
X1563039Y-12188269D01*
X1563039Y-12188269D02*
X1563039Y-12235888D01*
X1563039Y-12235888D02*
X1553515Y-12254936D01*
X1553515Y-12254936D02*
X1543991Y-12264460D01*
X1543991Y-12264460D02*
X1524943Y-12273984D01*
X1524943Y-12273984D02*
X1467801Y-12273984D01*
X1467801Y-12273984D02*
X1448753Y-12264460D01*
X1448753Y-12264460D02*
X1439229Y-12254936D01*
X1648753Y-12254936D02*
X1658277Y-12264460D01*
X1658277Y-12264460D02*
X1648753Y-12273984D01*
X1648753Y-12273984D02*
X1639229Y-12264460D01*
X1639229Y-12264460D02*
X1648753Y-12254936D01*
X1648753Y-12254936D02*
X1648753Y-12273984D01*
X1734467Y-12093031D02*
X1743991Y-12083508D01*
X1743991Y-12083508D02*
X1763039Y-12073984D01*
X1763039Y-12073984D02*
X1810658Y-12073984D01*
X1810658Y-12073984D02*
X1829705Y-12083508D01*
X1829705Y-12083508D02*
X1839229Y-12093031D01*
X1839229Y-12093031D02*
X1848753Y-12112079D01*
X1848753Y-12112079D02*
X1848753Y-12131127D01*
X1848753Y-12131127D02*
X1839229Y-12159698D01*
X1839229Y-12159698D02*
X1724943Y-12273984D01*
X1724943Y-12273984D02*
X1848753Y-12273984D01*
X1972562Y-12073984D02*
X1991610Y-12073984D01*
X1991610Y-12073984D02*
X2010658Y-12083508D01*
X2010658Y-12083508D02*
X2020182Y-12093031D01*
X2020182Y-12093031D02*
X2029705Y-12112079D01*
X2029705Y-12112079D02*
X2039229Y-12150174D01*
X2039229Y-12150174D02*
X2039229Y-12197793D01*
X2039229Y-12197793D02*
X2029705Y-12235888D01*
X2029705Y-12235888D02*
X2020182Y-12254936D01*
X2020182Y-12254936D02*
X2010658Y-12264460D01*
X2010658Y-12264460D02*
X1991610Y-12273984D01*
X1991610Y-12273984D02*
X1972562Y-12273984D01*
X1972562Y-12273984D02*
X1953515Y-12264460D01*
X1953515Y-12264460D02*
X1943991Y-12254936D01*
X1943991Y-12254936D02*
X1934467Y-12235888D01*
X1934467Y-12235888D02*
X1924943Y-12197793D01*
X1924943Y-12197793D02*
X1924943Y-12150174D01*
X1924943Y-12150174D02*
X1934467Y-12112079D01*
X1934467Y-12112079D02*
X1943991Y-12093031D01*
X1943991Y-12093031D02*
X1953515Y-12083508D01*
X1953515Y-12083508D02*
X1972562Y-12073984D01*
X2163039Y-12073984D02*
X2182086Y-12073984D01*
X2182086Y-12073984D02*
X2201134Y-12083508D01*
X2201134Y-12083508D02*
X2210658Y-12093031D01*
X2210658Y-12093031D02*
X2220182Y-12112079D01*
X2220182Y-12112079D02*
X2229705Y-12150174D01*
X2229705Y-12150174D02*
X2229705Y-12197793D01*
X2229705Y-12197793D02*
X2220182Y-12235888D01*
X2220182Y-12235888D02*
X2210658Y-12254936D01*
X2210658Y-12254936D02*
X2201134Y-12264460D01*
X2201134Y-12264460D02*
X2182086Y-12273984D01*
X2182086Y-12273984D02*
X2163039Y-12273984D01*
X2163039Y-12273984D02*
X2143991Y-12264460D01*
X2143991Y-12264460D02*
X2134467Y-12254936D01*
X2134467Y-12254936D02*
X2124944Y-12235888D01*
X2124944Y-12235888D02*
X2115420Y-12197793D01*
X2115420Y-12197793D02*
X2115420Y-12150174D01*
X2115420Y-12150174D02*
X2124944Y-12112079D01*
X2124944Y-12112079D02*
X2134467Y-12093031D01*
X2134467Y-12093031D02*
X2143991Y-12083508D01*
X2143991Y-12083508D02*
X2163039Y-12073984D01*
X2315420Y-12273984D02*
X2315420Y-12140650D01*
X2315420Y-12159698D02*
X2324944Y-12150174D01*
X2324944Y-12150174D02*
X2343991Y-12140650D01*
X2343991Y-12140650D02*
X2372563Y-12140650D01*
X2372563Y-12140650D02*
X2391610Y-12150174D01*
X2391610Y-12150174D02*
X2401134Y-12169222D01*
X2401134Y-12169222D02*
X2401134Y-12273984D01*
X2401134Y-12169222D02*
X2410658Y-12150174D01*
X2410658Y-12150174D02*
X2429705Y-12140650D01*
X2429705Y-12140650D02*
X2458277Y-12140650D01*
X2458277Y-12140650D02*
X2477325Y-12150174D01*
X2477325Y-12150174D02*
X2486848Y-12169222D01*
X2486848Y-12169222D02*
X2486848Y-12273984D01*
X2582086Y-12273984D02*
X2582086Y-12140650D01*
X2582086Y-12159698D02*
X2591610Y-12150174D01*
X2591610Y-12150174D02*
X2610658Y-12140650D01*
X2610658Y-12140650D02*
X2639229Y-12140650D01*
X2639229Y-12140650D02*
X2658277Y-12150174D01*
X2658277Y-12150174D02*
X2667801Y-12169222D01*
X2667801Y-12169222D02*
X2667801Y-12273984D01*
X2667801Y-12169222D02*
X2677325Y-12150174D01*
X2677325Y-12150174D02*
X2696372Y-12140650D01*
X2696372Y-12140650D02*
X2724944Y-12140650D01*
X2724944Y-12140650D02*
X2743991Y-12150174D01*
X2743991Y-12150174D02*
X2753515Y-12169222D01*
X2753515Y-12169222D02*
X2753515Y-12273984D01*
X3143991Y-12064460D02*
X2972563Y-12321603D01*
X3401134Y-12073984D02*
X3420182Y-12073984D01*
X3420182Y-12073984D02*
X3439229Y-12083508D01*
X3439229Y-12083508D02*
X3448753Y-12093031D01*
X3448753Y-12093031D02*
X3458277Y-12112079D01*
X3458277Y-12112079D02*
X3467801Y-12150174D01*
X3467801Y-12150174D02*
X3467801Y-12197793D01*
X3467801Y-12197793D02*
X3458277Y-12235888D01*
X3458277Y-12235888D02*
X3448753Y-12254936D01*
X3448753Y-12254936D02*
X3439229Y-12264460D01*
X3439229Y-12264460D02*
X3420182Y-12273984D01*
X3420182Y-12273984D02*
X3401134Y-12273984D01*
X3401134Y-12273984D02*
X3382086Y-12264460D01*
X3382086Y-12264460D02*
X3372563Y-12254936D01*
X3372563Y-12254936D02*
X3363039Y-12235888D01*
X3363039Y-12235888D02*
X3353515Y-12197793D01*
X3353515Y-12197793D02*
X3353515Y-12150174D01*
X3353515Y-12150174D02*
X3363039Y-12112079D01*
X3363039Y-12112079D02*
X3372563Y-12093031D01*
X3372563Y-12093031D02*
X3382086Y-12083508D01*
X3382086Y-12083508D02*
X3401134Y-12073984D01*
X3553515Y-12254936D02*
X3563039Y-12264460D01*
X3563039Y-12264460D02*
X3553515Y-12273984D01*
X3553515Y-12273984D02*
X3543991Y-12264460D01*
X3543991Y-12264460D02*
X3553515Y-12254936D01*
X3553515Y-12254936D02*
X3553515Y-12273984D01*
X3753515Y-12273984D02*
X3639229Y-12273984D01*
X3696372Y-12273984D02*
X3696372Y-12073984D01*
X3696372Y-12073984D02*
X3677325Y-12102555D01*
X3677325Y-12102555D02*
X3658277Y-12121603D01*
X3658277Y-12121603D02*
X3639229Y-12131127D01*
X3829706Y-12093031D02*
X3839229Y-12083508D01*
X3839229Y-12083508D02*
X3858277Y-12073984D01*
X3858277Y-12073984D02*
X3905896Y-12073984D01*
X3905896Y-12073984D02*
X3924944Y-12083508D01*
X3924944Y-12083508D02*
X3934467Y-12093031D01*
X3934467Y-12093031D02*
X3943991Y-12112079D01*
X3943991Y-12112079D02*
X3943991Y-12131127D01*
X3943991Y-12131127D02*
X3934467Y-12159698D01*
X3934467Y-12159698D02*
X3820182Y-12273984D01*
X3820182Y-12273984D02*
X3943991Y-12273984D01*
X4115420Y-12073984D02*
X4077325Y-12073984D01*
X4077325Y-12073984D02*
X4058277Y-12083508D01*
X4058277Y-12083508D02*
X4048753Y-12093031D01*
X4048753Y-12093031D02*
X4029706Y-12121603D01*
X4029706Y-12121603D02*
X4020182Y-12159698D01*
X4020182Y-12159698D02*
X4020182Y-12235888D01*
X4020182Y-12235888D02*
X4029706Y-12254936D01*
X4029706Y-12254936D02*
X4039229Y-12264460D01*
X4039229Y-12264460D02*
X4058277Y-12273984D01*
X4058277Y-12273984D02*
X4096372Y-12273984D01*
X4096372Y-12273984D02*
X4115420Y-12264460D01*
X4115420Y-12264460D02*
X4124944Y-12254936D01*
X4124944Y-12254936D02*
X4134467Y-12235888D01*
X4134467Y-12235888D02*
X4134467Y-12188269D01*
X4134467Y-12188269D02*
X4124944Y-12169222D01*
X4124944Y-12169222D02*
X4115420Y-12159698D01*
X4115420Y-12159698D02*
X4096372Y-12150174D01*
X4096372Y-12150174D02*
X4058277Y-12150174D01*
X4058277Y-12150174D02*
X4039229Y-12159698D01*
X4039229Y-12159698D02*
X4029706Y-12169222D01*
X4029706Y-12169222D02*
X4020182Y-12188269D01*
X4258277Y-12073984D02*
X4277325Y-12073984D01*
X4277325Y-12073984D02*
X4296372Y-12083508D01*
X4296372Y-12083508D02*
X4305896Y-12093031D01*
X4305896Y-12093031D02*
X4315420Y-12112079D01*
X4315420Y-12112079D02*
X4324944Y-12150174D01*
X4324944Y-12150174D02*
X4324944Y-12197793D01*
X4324944Y-12197793D02*
X4315420Y-12235888D01*
X4315420Y-12235888D02*
X4305896Y-12254936D01*
X4305896Y-12254936D02*
X4296372Y-12264460D01*
X4296372Y-12264460D02*
X4277325Y-12273984D01*
X4277325Y-12273984D02*
X4258277Y-12273984D01*
X4258277Y-12273984D02*
X4239229Y-12264460D01*
X4239229Y-12264460D02*
X4229706Y-12254936D01*
X4229706Y-12254936D02*
X4220182Y-12235888D01*
X4220182Y-12235888D02*
X4210658Y-12197793D01*
X4210658Y-12197793D02*
X4210658Y-12150174D01*
X4210658Y-12150174D02*
X4220182Y-12112079D01*
X4220182Y-12112079D02*
X4229706Y-12093031D01*
X4229706Y-12093031D02*
X4239229Y-12083508D01*
X4239229Y-12083508D02*
X4258277Y-12073984D01*
X4401134Y-12073984D02*
X4401134Y-12112079D01*
X4477325Y-12073984D02*
X4477325Y-12112079D01*
X4772563Y-12350174D02*
X4763039Y-12340650D01*
X4763039Y-12340650D02*
X4743991Y-12312079D01*
X4743991Y-12312079D02*
X4734468Y-12293031D01*
X4734468Y-12293031D02*
X4724944Y-12264460D01*
X4724944Y-12264460D02*
X4715420Y-12216841D01*
X4715420Y-12216841D02*
X4715420Y-12178746D01*
X4715420Y-12178746D02*
X4724944Y-12131127D01*
X4724944Y-12131127D02*
X4734468Y-12102555D01*
X4734468Y-12102555D02*
X4743991Y-12083508D01*
X4743991Y-12083508D02*
X4763039Y-12054936D01*
X4763039Y-12054936D02*
X4772563Y-12045412D01*
X4934468Y-12140650D02*
X4934468Y-12273984D01*
X4886849Y-12064460D02*
X4839230Y-12207317D01*
X4839230Y-12207317D02*
X4963039Y-12207317D01*
X5191611Y-12273984D02*
X5191611Y-12073984D01*
X5277325Y-12273984D02*
X5277325Y-12169222D01*
X5277325Y-12169222D02*
X5267801Y-12150174D01*
X5267801Y-12150174D02*
X5248753Y-12140650D01*
X5248753Y-12140650D02*
X5220182Y-12140650D01*
X5220182Y-12140650D02*
X5201134Y-12150174D01*
X5201134Y-12150174D02*
X5191611Y-12159698D01*
X5401134Y-12273984D02*
X5382087Y-12264460D01*
X5382087Y-12264460D02*
X5372563Y-12254936D01*
X5372563Y-12254936D02*
X5363039Y-12235888D01*
X5363039Y-12235888D02*
X5363039Y-12178746D01*
X5363039Y-12178746D02*
X5372563Y-12159698D01*
X5372563Y-12159698D02*
X5382087Y-12150174D01*
X5382087Y-12150174D02*
X5401134Y-12140650D01*
X5401134Y-12140650D02*
X5429706Y-12140650D01*
X5429706Y-12140650D02*
X5448753Y-12150174D01*
X5448753Y-12150174D02*
X5458277Y-12159698D01*
X5458277Y-12159698D02*
X5467801Y-12178746D01*
X5467801Y-12178746D02*
X5467801Y-12235888D01*
X5467801Y-12235888D02*
X5458277Y-12254936D01*
X5458277Y-12254936D02*
X5448753Y-12264460D01*
X5448753Y-12264460D02*
X5429706Y-12273984D01*
X5429706Y-12273984D02*
X5401134Y-12273984D01*
X5582087Y-12273984D02*
X5563039Y-12264460D01*
X5563039Y-12264460D02*
X5553515Y-12245412D01*
X5553515Y-12245412D02*
X5553515Y-12073984D01*
X5734468Y-12264460D02*
X5715420Y-12273984D01*
X5715420Y-12273984D02*
X5677325Y-12273984D01*
X5677325Y-12273984D02*
X5658277Y-12264460D01*
X5658277Y-12264460D02*
X5648753Y-12245412D01*
X5648753Y-12245412D02*
X5648753Y-12169222D01*
X5648753Y-12169222D02*
X5658277Y-12150174D01*
X5658277Y-12150174D02*
X5677325Y-12140650D01*
X5677325Y-12140650D02*
X5715420Y-12140650D01*
X5715420Y-12140650D02*
X5734468Y-12150174D01*
X5734468Y-12150174D02*
X5743991Y-12169222D01*
X5743991Y-12169222D02*
X5743991Y-12188269D01*
X5743991Y-12188269D02*
X5648753Y-12207317D01*
X5820182Y-12264460D02*
X5839230Y-12273984D01*
X5839230Y-12273984D02*
X5877325Y-12273984D01*
X5877325Y-12273984D02*
X5896372Y-12264460D01*
X5896372Y-12264460D02*
X5905896Y-12245412D01*
X5905896Y-12245412D02*
X5905896Y-12235888D01*
X5905896Y-12235888D02*
X5896372Y-12216841D01*
X5896372Y-12216841D02*
X5877325Y-12207317D01*
X5877325Y-12207317D02*
X5848753Y-12207317D01*
X5848753Y-12207317D02*
X5829706Y-12197793D01*
X5829706Y-12197793D02*
X5820182Y-12178746D01*
X5820182Y-12178746D02*
X5820182Y-12169222D01*
X5820182Y-12169222D02*
X5829706Y-12150174D01*
X5829706Y-12150174D02*
X5848753Y-12140650D01*
X5848753Y-12140650D02*
X5877325Y-12140650D01*
X5877325Y-12140650D02*
X5896372Y-12150174D01*
X5972563Y-12350174D02*
X5982087Y-12340650D01*
X5982087Y-12340650D02*
X6001134Y-12312079D01*
X6001134Y-12312079D02*
X6010658Y-12293031D01*
X6010658Y-12293031D02*
X6020182Y-12264460D01*
X6020182Y-12264460D02*
X6029706Y-12216841D01*
X6029706Y-12216841D02*
X6029706Y-12178746D01*
X6029706Y-12178746D02*
X6020182Y-12131127D01*
X6020182Y-12131127D02*
X6010658Y-12102555D01*
X6010658Y-12102555D02*
X6001134Y-12083508D01*
X6001134Y-12083508D02*
X5982087Y-12054936D01*
X5982087Y-12054936D02*
X5972563Y-12045412D01*
M02*
