%TF.GenerationSoftware,KiCad,Pcbnew,9.0.2*%
%TF.CreationDate,2025-08-17T10:41:56+03:30*%
%TF.ProjectId,drsstc-v1,64727373-7463-42d7-9631-2e6b69636164,rev?*%
%TF.SameCoordinates,Original*%
%TF.FileFunction,Drillmap*%
%TF.FilePolarity,Positive*%
%FSLAX45Y45*%
G04 Gerber Fmt 4.5, Leading zero omitted, Abs format (unit mm)*
G04 Created by KiCad (PCBNEW 9.0.2) date 2025-08-17 10:41:56*
%MOMM*%
%LPD*%
G01*
G04 APERTURE LIST*
%ADD10C,0.050000*%
%ADD11C,0.200000*%
G04 APERTURE END LIST*
D10*
X11200000Y-9650000D02*
G75*
G02*
X10900000Y-9950000I-300000J0D01*
G01*
X10900000Y-9950000D02*
X1500000Y-9950000D01*
X10900000Y-1200000D02*
G75*
G02*
X11200000Y-1500000I0J-300000D01*
G01*
X1200000Y-1500000D02*
G75*
G02*
X1500000Y-1200000I300000J0D01*
G01*
X1500000Y-1200000D02*
X10900000Y-1200000D01*
X11200000Y-1500000D02*
X11200000Y-9650000D01*
X1200000Y-9650000D02*
X1200000Y-1500000D01*
X1500000Y-9950000D02*
G75*
G02*
X1200000Y-9650000I0J300000D01*
G01*
D11*
X4342500Y-9045000D02*
G75*
G02*
X4142500Y-9045000I-100000J0D01*
G01*
X4142500Y-9045000D02*
G75*
G02*
X4342500Y-9045000I100000J0D01*
G01*
X4942500Y-9045000D02*
G75*
G02*
X4742500Y-9045000I-100000J0D01*
G01*
X4742500Y-9045000D02*
G75*
G02*
X4942500Y-9045000I100000J0D01*
G01*
X1458277Y-10263984D02*
X1458277Y-10063984D01*
X1458277Y-10063984D02*
X1505896Y-10063984D01*
X1505896Y-10063984D02*
X1534467Y-10073508D01*
X1534467Y-10073508D02*
X1553515Y-10092555D01*
X1553515Y-10092555D02*
X1563039Y-10111603D01*
X1563039Y-10111603D02*
X1572562Y-10149698D01*
X1572562Y-10149698D02*
X1572562Y-10178270D01*
X1572562Y-10178270D02*
X1563039Y-10216365D01*
X1563039Y-10216365D02*
X1553515Y-10235412D01*
X1553515Y-10235412D02*
X1534467Y-10254460D01*
X1534467Y-10254460D02*
X1505896Y-10263984D01*
X1505896Y-10263984D02*
X1458277Y-10263984D01*
X1658277Y-10263984D02*
X1658277Y-10130650D01*
X1658277Y-10168746D02*
X1667801Y-10149698D01*
X1667801Y-10149698D02*
X1677324Y-10140174D01*
X1677324Y-10140174D02*
X1696372Y-10130650D01*
X1696372Y-10130650D02*
X1715420Y-10130650D01*
X1782086Y-10263984D02*
X1782086Y-10130650D01*
X1782086Y-10063984D02*
X1772562Y-10073508D01*
X1772562Y-10073508D02*
X1782086Y-10083031D01*
X1782086Y-10083031D02*
X1791610Y-10073508D01*
X1791610Y-10073508D02*
X1782086Y-10063984D01*
X1782086Y-10063984D02*
X1782086Y-10083031D01*
X1905896Y-10263984D02*
X1886848Y-10254460D01*
X1886848Y-10254460D02*
X1877324Y-10235412D01*
X1877324Y-10235412D02*
X1877324Y-10063984D01*
X2010658Y-10263984D02*
X1991610Y-10254460D01*
X1991610Y-10254460D02*
X1982086Y-10235412D01*
X1982086Y-10235412D02*
X1982086Y-10063984D01*
X2239229Y-10263984D02*
X2239229Y-10063984D01*
X2239229Y-10063984D02*
X2305896Y-10206841D01*
X2305896Y-10206841D02*
X2372563Y-10063984D01*
X2372563Y-10063984D02*
X2372563Y-10263984D01*
X2553515Y-10263984D02*
X2553515Y-10159222D01*
X2553515Y-10159222D02*
X2543991Y-10140174D01*
X2543991Y-10140174D02*
X2524944Y-10130650D01*
X2524944Y-10130650D02*
X2486848Y-10130650D01*
X2486848Y-10130650D02*
X2467801Y-10140174D01*
X2553515Y-10254460D02*
X2534467Y-10263984D01*
X2534467Y-10263984D02*
X2486848Y-10263984D01*
X2486848Y-10263984D02*
X2467801Y-10254460D01*
X2467801Y-10254460D02*
X2458277Y-10235412D01*
X2458277Y-10235412D02*
X2458277Y-10216365D01*
X2458277Y-10216365D02*
X2467801Y-10197317D01*
X2467801Y-10197317D02*
X2486848Y-10187793D01*
X2486848Y-10187793D02*
X2534467Y-10187793D01*
X2534467Y-10187793D02*
X2553515Y-10178270D01*
X2648753Y-10130650D02*
X2648753Y-10330650D01*
X2648753Y-10140174D02*
X2667801Y-10130650D01*
X2667801Y-10130650D02*
X2705896Y-10130650D01*
X2705896Y-10130650D02*
X2724944Y-10140174D01*
X2724944Y-10140174D02*
X2734467Y-10149698D01*
X2734467Y-10149698D02*
X2743991Y-10168746D01*
X2743991Y-10168746D02*
X2743991Y-10225889D01*
X2743991Y-10225889D02*
X2734467Y-10244936D01*
X2734467Y-10244936D02*
X2724944Y-10254460D01*
X2724944Y-10254460D02*
X2705896Y-10263984D01*
X2705896Y-10263984D02*
X2667801Y-10263984D01*
X2667801Y-10263984D02*
X2648753Y-10254460D01*
X2829705Y-10244936D02*
X2839229Y-10254460D01*
X2839229Y-10254460D02*
X2829705Y-10263984D01*
X2829705Y-10263984D02*
X2820182Y-10254460D01*
X2820182Y-10254460D02*
X2829705Y-10244936D01*
X2829705Y-10244936D02*
X2829705Y-10263984D01*
X2829705Y-10140174D02*
X2839229Y-10149698D01*
X2839229Y-10149698D02*
X2829705Y-10159222D01*
X2829705Y-10159222D02*
X2820182Y-10149698D01*
X2820182Y-10149698D02*
X2829705Y-10140174D01*
X2829705Y-10140174D02*
X2829705Y-10159222D01*
M02*
