%TF.GenerationSoftware,KiCad,Pcbnew,9.0.2*%
%TF.CreationDate,2025-08-17T10:41:30+03:30*%
%TF.ProjectId,drsstc-v1,64727373-7463-42d7-9631-2e6b69636164,rev?*%
%TF.SameCoordinates,Original*%
%TF.FileFunction,Copper,L1,Top*%
%TF.FilePolarity,Positive*%
%FSLAX46Y46*%
G04 Gerber Fmt 4.6, Leading zero omitted, Abs format (unit mm)*
G04 Created by KiCad (PCBNEW 9.0.2) date 2025-08-17 10:41:30*
%MOMM*%
%LPD*%
G01*
G04 APERTURE LIST*
G04 Aperture macros list*
%AMRoundRect*
0 Rectangle with rounded corners*
0 $1 Rounding radius*
0 $2 $3 $4 $5 $6 $7 $8 $9 X,Y pos of 4 corners*
0 Add a 4 corners polygon primitive as box body*
4,1,4,$2,$3,$4,$5,$6,$7,$8,$9,$2,$3,0*
0 Add four circle primitives for the rounded corners*
1,1,$1+$1,$2,$3*
1,1,$1+$1,$4,$5*
1,1,$1+$1,$6,$7*
1,1,$1+$1,$8,$9*
0 Add four rect primitives between the rounded corners*
20,1,$1+$1,$2,$3,$4,$5,0*
20,1,$1+$1,$4,$5,$6,$7,0*
20,1,$1+$1,$6,$7,$8,$9,0*
20,1,$1+$1,$8,$9,$2,$3,0*%
%AMHorizOval*
0 Thick line with rounded ends*
0 $1 width*
0 $2 $3 position (X,Y) of the first rounded end (center of the circle)*
0 $4 $5 position (X,Y) of the second rounded end (center of the circle)*
0 Add line between two ends*
20,1,$1,$2,$3,$4,$5,0*
0 Add two circle primitives to create the rounded ends*
1,1,$1,$2,$3*
1,1,$1,$4,$5*%
G04 Aperture macros list end*
%TA.AperFunction,ComponentPad*%
%ADD10C,1.600000*%
%TD*%
%TA.AperFunction,ComponentPad*%
%ADD11RoundRect,0.250000X-0.750000X0.600000X-0.750000X-0.600000X0.750000X-0.600000X0.750000X0.600000X0*%
%TD*%
%TA.AperFunction,ComponentPad*%
%ADD12O,2.000000X1.700000*%
%TD*%
%TA.AperFunction,ComponentPad*%
%ADD13R,1.800000X1.717500*%
%TD*%
%TA.AperFunction,SMDPad,CuDef*%
%ADD14R,6.200000X5.700000*%
%TD*%
%TA.AperFunction,ComponentPad*%
%ADD15O,1.800000X1.717500*%
%TD*%
%TA.AperFunction,ComponentPad*%
%ADD16RoundRect,0.250000X-0.550000X-0.550000X0.550000X-0.550000X0.550000X0.550000X-0.550000X0.550000X0*%
%TD*%
%TA.AperFunction,ComponentPad*%
%ADD17R,1.500000X1.500000*%
%TD*%
%TA.AperFunction,ComponentPad*%
%ADD18C,1.500000*%
%TD*%
%TA.AperFunction,ComponentPad*%
%ADD19RoundRect,0.250000X-0.550000X0.550000X-0.550000X-0.550000X0.550000X-0.550000X0.550000X0.550000X0*%
%TD*%
%TA.AperFunction,ComponentPad*%
%ADD20RoundRect,0.249999X-0.850001X-0.850001X0.850001X-0.850001X0.850001X0.850001X-0.850001X0.850001X0*%
%TD*%
%TA.AperFunction,ComponentPad*%
%ADD21C,2.200000*%
%TD*%
%TA.AperFunction,ComponentPad*%
%ADD22R,1.700000X1.700000*%
%TD*%
%TA.AperFunction,ComponentPad*%
%ADD23C,1.700000*%
%TD*%
%TA.AperFunction,ComponentPad*%
%ADD24C,3.600000*%
%TD*%
%TA.AperFunction,ConnectorPad*%
%ADD25C,5.600000*%
%TD*%
%TA.AperFunction,ComponentPad*%
%ADD26R,1.905000X2.000000*%
%TD*%
%TA.AperFunction,ComponentPad*%
%ADD27O,1.905000X2.000000*%
%TD*%
%TA.AperFunction,ComponentPad*%
%ADD28RoundRect,0.250000X-0.750000X-0.750000X0.750000X-0.750000X0.750000X0.750000X-0.750000X0.750000X0*%
%TD*%
%TA.AperFunction,ComponentPad*%
%ADD29C,2.000000*%
%TD*%
%TA.AperFunction,ComponentPad*%
%ADD30R,3.500000X3.500000*%
%TD*%
%TA.AperFunction,ComponentPad*%
%ADD31RoundRect,0.750000X1.000000X-0.750000X1.000000X0.750000X-1.000000X0.750000X-1.000000X-0.750000X0*%
%TD*%
%TA.AperFunction,ComponentPad*%
%ADD32RoundRect,0.875000X0.875000X-0.875000X0.875000X0.875000X-0.875000X0.875000X-0.875000X-0.875000X0*%
%TD*%
%TA.AperFunction,ComponentPad*%
%ADD33RoundRect,0.250000X0.550000X-0.550000X0.550000X0.550000X-0.550000X0.550000X-0.550000X-0.550000X0*%
%TD*%
%TA.AperFunction,ComponentPad*%
%ADD34RoundRect,0.249999X-0.850001X0.850001X-0.850001X-0.850001X0.850001X-0.850001X0.850001X0.850001X0*%
%TD*%
%TA.AperFunction,ComponentPad*%
%ADD35RoundRect,0.249999X0.850001X-0.850001X0.850001X0.850001X-0.850001X0.850001X-0.850001X-0.850001X0*%
%TD*%
%TA.AperFunction,ComponentPad*%
%ADD36RoundRect,0.249999X0.850001X0.850001X-0.850001X0.850001X-0.850001X-0.850001X0.850001X-0.850001X0*%
%TD*%
%TA.AperFunction,ComponentPad*%
%ADD37C,1.440000*%
%TD*%
%TA.AperFunction,ComponentPad*%
%ADD38C,1.800000*%
%TD*%
%TA.AperFunction,ComponentPad*%
%ADD39HorizOval,1.524000X0.380423X0.380423X-0.380423X-0.380423X0*%
%TD*%
%TA.AperFunction,ComponentPad*%
%ADD40HorizOval,1.524000X-0.380423X0.380423X0.380423X-0.380423X0*%
%TD*%
%TA.AperFunction,ComponentPad*%
%ADD41O,2.400000X1.524000*%
%TD*%
%TA.AperFunction,ComponentPad*%
%ADD42O,2.500000X4.000000*%
%TD*%
%TA.AperFunction,ViaPad*%
%ADD43C,0.600000*%
%TD*%
%TA.AperFunction,Conductor*%
%ADD44C,0.200000*%
%TD*%
%TA.AperFunction,Conductor*%
%ADD45C,0.800000*%
%TD*%
%TA.AperFunction,Conductor*%
%ADD46C,2.000000*%
%TD*%
G04 APERTURE END LIST*
D10*
%TO.P,R10,1*%
%TO.N,GND*%
X55460000Y-72000000D03*
%TO.P,R10,2*%
%TO.N,INT*%
X58000000Y-72000000D03*
%TD*%
%TO.P,C6,1*%
%TO.N,+9V*%
X66132323Y-88000000D03*
%TO.P,C6,2*%
%TO.N,GND*%
X71132323Y-88000000D03*
%TD*%
%TO.P,R17,1*%
%TO.N,VDC*%
X91106667Y-45500000D03*
%TO.P,R17,2*%
%TO.N,Net-(D8-A)*%
X93646667Y-45500000D03*
%TD*%
D11*
%TO.P,J9,1,Pin_1*%
%TO.N,Net-(D10-K)*%
X18500000Y-58250000D03*
D12*
%TO.P,J9,2,Pin_2*%
%TO.N,Net-(D11-K)*%
X18500000Y-60750000D03*
%TD*%
D10*
%TO.P,C24,1*%
%TO.N,GND*%
X15500000Y-44500000D03*
%TO.P,C24,2*%
%TO.N,Net-(J10-Pin_1)*%
X20500000Y-44500000D03*
%TD*%
%TO.P,R11,1*%
%TO.N,INT_INPUT*%
X52045000Y-79500000D03*
%TO.P,R11,2*%
%TO.N,GND*%
X49505000Y-79500000D03*
%TD*%
%TO.P,C5,1*%
%TO.N,Net-(D4-A)*%
X70000000Y-65000000D03*
%TO.P,C5,2*%
%TO.N,GND*%
X70000000Y-70000000D03*
%TD*%
%TO.P,R25,1*%
%TO.N,OCD_STATUS*%
X58230000Y-25000000D03*
%TO.P,R25,2*%
%TO.N,Net-(J12-Pin_5)*%
X58230000Y-22460000D03*
%TD*%
%TO.P,R20,1*%
%TO.N,Net-(C36-Pad1)*%
X19500000Y-38972183D03*
%TO.P,R20,2*%
%TO.N,Net-(J10-Pin_1)*%
X19500000Y-41512183D03*
%TD*%
%TO.P,R9,1*%
%TO.N,Net-(D4-K)*%
X64500000Y-67955000D03*
%TO.P,R9,2*%
%TO.N,Net-(D4-A)*%
X67040000Y-67955000D03*
%TD*%
%TO.P,C9,1*%
%TO.N,GND*%
X41920000Y-66380000D03*
%TO.P,C9,2*%
%TO.N,+5V*%
X41920000Y-61380000D03*
%TD*%
%TO.P,C18,1*%
%TO.N,Net-(D3-A)*%
X82741667Y-60200000D03*
%TO.P,C18,2*%
%TO.N,Net-(Q4-G)*%
X77741667Y-60200000D03*
%TD*%
D13*
%TO.P,Q8,1,G*%
%TO.N,Net-(Q8-G)*%
X77851667Y-21210000D03*
D14*
%TO.P,Q8,2,D*%
%TO.N,Net-(Q6-D)*%
X85285000Y-23500000D03*
D15*
X77851667Y-23500000D03*
%TO.P,Q8,3,S*%
%TO.N,GND*%
X77851667Y-25790000D03*
%TD*%
D16*
%TO.P,U6,1,NC*%
%TO.N,unconnected-(U6-NC-Pad1)*%
X66880000Y-50220000D03*
D10*
%TO.P,U6,2,IN_A*%
%TO.N,SEL_DRV_2*%
X66880000Y-52760000D03*
%TO.P,U6,3,GND*%
%TO.N,GND*%
X66880000Y-55300000D03*
%TO.P,U6,4,IN_B*%
%TO.N,SEL_DRV_1*%
X66880000Y-57840000D03*
%TO.P,U6,5,OUT_B*%
%TO.N,Net-(Q4-G)*%
X74500000Y-57840000D03*
%TO.P,U6,6,VDD*%
%TO.N,+9V*%
X74500000Y-55300000D03*
%TO.P,U6,7,OUT_A*%
%TO.N,Net-(Q5-G)*%
X74500000Y-52760000D03*
%TO.P,U6,8,NC*%
%TO.N,unconnected-(U6-NC-Pad8)*%
X74500000Y-50220000D03*
%TD*%
D17*
%TO.P,Q1,1,C*%
%TO.N,Net-(D2-A)*%
X82132323Y-91085000D03*
D18*
%TO.P,Q1,2,B*%
%TO.N,Net-(Q1-B)*%
X82132323Y-88545000D03*
%TO.P,Q1,3,E*%
%TO.N,GND*%
X82132323Y-86005000D03*
%TD*%
D10*
%TO.P,C34,1*%
%TO.N,GND*%
X46000000Y-30500000D03*
%TO.P,C34,2*%
%TO.N,+5V*%
X46000000Y-25500000D03*
%TD*%
%TO.P,C21,1*%
%TO.N,+5V*%
X59315000Y-39500000D03*
%TO.P,C21,2*%
%TO.N,GND*%
X54315000Y-39500000D03*
%TD*%
%TO.P,R12,1*%
%TO.N,+5V*%
X40040000Y-76315000D03*
%TO.P,R12,2*%
%TO.N,Net-(U7B-~{R})*%
X37500000Y-76315000D03*
%TD*%
D16*
%TO.P,D8,1,K*%
%TO.N,VDC*%
X90656667Y-42500000D03*
D10*
%TO.P,D8,2,A*%
%TO.N,Net-(D8-A)*%
X93196667Y-42500000D03*
%TD*%
%TO.P,R26,1*%
%TO.N,INT*%
X61230000Y-25000000D03*
%TO.P,R26,2*%
%TO.N,Net-(J12-Pin_7)*%
X61230000Y-22460000D03*
%TD*%
D11*
%TO.P,J11,1,Pin_1*%
%TO.N,Net-(J11-Pin_1)*%
X106785000Y-35300000D03*
D12*
%TO.P,J11,2,Pin_2*%
%TO.N,Net-(J11-Pin_2)*%
X106785000Y-37800000D03*
%TD*%
D10*
%TO.P,R1,1*%
%TO.N,Net-(D2-K)*%
X82632323Y-96045000D03*
%TO.P,R1,2*%
%TO.N,Net-(D2-A)*%
X82632323Y-93505000D03*
%TD*%
D13*
%TO.P,Q9,1,G*%
%TO.N,Net-(Q9-G)*%
X77851667Y-35210000D03*
D14*
%TO.P,Q9,2,D*%
%TO.N,Net-(J11-Pin_2)*%
X85285000Y-37500000D03*
D15*
X77851667Y-37500000D03*
%TO.P,Q9,3,S*%
%TO.N,GND*%
X77851667Y-39790000D03*
%TD*%
D19*
%TO.P,U5,1,GND*%
%TO.N,GND*%
X31310000Y-68695000D03*
D10*
%TO.P,U5,2,+*%
%TO.N,Net-(J7-Pin_1)*%
X28770000Y-68695000D03*
%TO.P,U5,3,-*%
%TO.N,OC*%
X26230000Y-68695000D03*
%TO.P,U5,4,V-*%
%TO.N,GND*%
X23690000Y-68695000D03*
%TO.P,U5,5,BAL*%
%TO.N,Net-(U5-BAL)*%
X23690000Y-76315000D03*
%TO.P,U5,6,STRB*%
X26230000Y-76315000D03*
%TO.P,U5,7*%
%TO.N,Net-(U7B-~{R})*%
X28770000Y-76315000D03*
%TO.P,U5,8,V+*%
%TO.N,+9V*%
X31310000Y-76315000D03*
%TD*%
D16*
%TO.P,U9,1,NC*%
%TO.N,unconnected-(U9-NC-Pad1)*%
X66880000Y-26420000D03*
D10*
%TO.P,U9,2,IN_A*%
%TO.N,SEL_DRV_2*%
X66880000Y-28960000D03*
%TO.P,U9,3,GND*%
%TO.N,GND*%
X66880000Y-31500000D03*
%TO.P,U9,4,IN_B*%
%TO.N,SEL_DRV_1*%
X66880000Y-34040000D03*
%TO.P,U9,5,OUT_B*%
%TO.N,Net-(Q9-G)*%
X74500000Y-34040000D03*
%TO.P,U9,6,VDD*%
%TO.N,+9V*%
X74500000Y-31500000D03*
%TO.P,U9,7,OUT_A*%
%TO.N,Net-(Q8-G)*%
X74500000Y-28960000D03*
%TO.P,U9,8,NC*%
%TO.N,unconnected-(U9-NC-Pad8)*%
X74500000Y-26420000D03*
%TD*%
%TO.P,C26,1*%
%TO.N,Net-(Q6-D)*%
X103935000Y-26800000D03*
%TO.P,C26,2*%
%TO.N,Net-(J11-Pin_1)*%
X108935000Y-26800000D03*
%TD*%
D20*
%TO.P,D10,1,K*%
%TO.N,Net-(D10-K)*%
X23960000Y-57628730D03*
D21*
%TO.P,D10,2,A*%
%TO.N,GND*%
X26500000Y-57628730D03*
%TD*%
D16*
%TO.P,U4,1*%
%TO.N,Net-(R14-Pad2)*%
X26420000Y-86000000D03*
D10*
%TO.P,U4,2,-*%
%TO.N,Net-(U4A--)*%
X26420000Y-88540000D03*
%TO.P,U4,3,+*%
%TO.N,Net-(D5-A)*%
X26420000Y-91080000D03*
%TO.P,U4,4,V-*%
%TO.N,GND*%
X26420000Y-93620000D03*
%TO.P,U4,5,+*%
X34040000Y-93620000D03*
%TO.P,U4,6,-*%
%TO.N,Net-(U4B--)*%
X34040000Y-91080000D03*
%TO.P,U4,7*%
%TO.N,INT_INPUT*%
X34040000Y-88540000D03*
%TO.P,U4,8,V+*%
%TO.N,+5V*%
X34040000Y-86000000D03*
%TD*%
D22*
%TO.P,J13,1,Pin_1*%
%TO.N,SIGNAL*%
X42500000Y-14725000D03*
D23*
%TO.P,J13,2,Pin_2*%
X42500000Y-17265000D03*
%TD*%
D10*
%TO.P,C20,1*%
%TO.N,GND*%
X68000000Y-61500000D03*
%TO.P,C20,2*%
%TO.N,+9V*%
X73000000Y-61500000D03*
%TD*%
%TO.P,C1,1*%
%TO.N,Net-(D2-K)*%
X76632323Y-96545000D03*
%TO.P,C1,2*%
%TO.N,+5V*%
X76632323Y-91545000D03*
%TD*%
D24*
%TO.P,H2,1,1*%
%TO.N,GND*%
X17500000Y-93400000D03*
D25*
X17500000Y-93400000D03*
%TD*%
D26*
%TO.P,U2,1,VI*%
%TO.N,+9V*%
X59172323Y-93050000D03*
D27*
%TO.P,U2,2,GND*%
%TO.N,GND*%
X56632323Y-93050000D03*
%TO.P,U2,3,VO*%
%TO.N,+5V*%
X54092323Y-93050000D03*
%TD*%
D13*
%TO.P,Q7,1,G*%
%TO.N,Net-(D8-A)*%
X90766667Y-35210000D03*
D14*
%TO.P,Q7,2,D*%
%TO.N,Net-(J11-Pin_2)*%
X98200000Y-37500000D03*
D15*
X90766667Y-37500000D03*
%TO.P,Q7,3,S*%
%TO.N,VDC*%
X90766667Y-39790000D03*
%TD*%
D10*
%TO.P,C33,1*%
%TO.N,GND*%
X38195000Y-23190000D03*
%TO.P,C33,2*%
%TO.N,+5V*%
X33195000Y-23190000D03*
%TD*%
%TO.P,C8,1*%
%TO.N,+5V*%
X54132323Y-88000000D03*
%TO.P,C8,2*%
%TO.N,GND*%
X59132323Y-88000000D03*
%TD*%
%TO.P,R19,1*%
%TO.N,Net-(Q3-D)*%
X104735000Y-51500000D03*
%TO.P,R19,2*%
%TO.N,Net-(J4-Pin_1)*%
X107275000Y-51500000D03*
%TD*%
D22*
%TO.P,J12,1,Pin_1*%
%TO.N,Net-(J12-Pin_1)*%
X53190000Y-18960000D03*
D23*
%TO.P,J12,2,Pin_2*%
%TO.N,GND*%
X53190000Y-16420000D03*
%TO.P,J12,3,Pin_3*%
%TO.N,Net-(J12-Pin_3)*%
X55730000Y-18960000D03*
%TO.P,J12,4,Pin_4*%
%TO.N,GND*%
X55730000Y-16420000D03*
%TO.P,J12,5,Pin_5*%
%TO.N,Net-(J12-Pin_5)*%
X58270000Y-18960000D03*
%TO.P,J12,6,Pin_6*%
%TO.N,GND*%
X58270000Y-16420000D03*
%TO.P,J12,7,Pin_7*%
%TO.N,Net-(J12-Pin_7)*%
X60810000Y-18960000D03*
%TO.P,J12,8,Pin_8*%
%TO.N,GND*%
X60810000Y-16420000D03*
%TD*%
D10*
%TO.P,C19,1*%
%TO.N,Net-(D7-A)*%
X82741667Y-46200000D03*
%TO.P,C19,2*%
%TO.N,Net-(Q5-G)*%
X77741667Y-46200000D03*
%TD*%
%TO.P,C23,1*%
%TO.N,OC*%
X31000000Y-57500000D03*
%TO.P,C23,2*%
%TO.N,GND*%
X36000000Y-57500000D03*
%TD*%
D28*
%TO.P,C2,1*%
%TO.N,VDC*%
X83264646Y-80000000D03*
D29*
%TO.P,C2,2*%
%TO.N,GND*%
X88264646Y-80000000D03*
%TD*%
D10*
%TO.P,C11,1*%
%TO.N,GND*%
X34500000Y-71315000D03*
%TO.P,C11,2*%
%TO.N,+9V*%
X34500000Y-76315000D03*
%TD*%
%TO.P,C29,1*%
%TO.N,Net-(D8-A)*%
X82741667Y-32000000D03*
%TO.P,C29,2*%
%TO.N,Net-(Q9-G)*%
X77741667Y-32000000D03*
%TD*%
D24*
%TO.P,H4,1,1*%
%TO.N,GND*%
X17500000Y-17500000D03*
D25*
X17500000Y-17500000D03*
%TD*%
D11*
%TO.P,J4,1,Pin_1*%
%TO.N,Net-(J4-Pin_1)*%
X106785000Y-63500000D03*
D12*
%TO.P,J4,2,Pin_2*%
%TO.N,Net-(J4-Pin_2)*%
X106785000Y-66000000D03*
%TD*%
D10*
%TO.P,C31,1*%
%TO.N,Net-(D12-A)*%
X82741667Y-18000000D03*
%TO.P,C31,2*%
%TO.N,Net-(Q8-G)*%
X77741667Y-18000000D03*
%TD*%
D13*
%TO.P,Q5,1,G*%
%TO.N,Net-(Q5-G)*%
X77851667Y-49410000D03*
D14*
%TO.P,Q5,2,D*%
%TO.N,Net-(Q3-D)*%
X85285000Y-51700000D03*
D15*
X77851667Y-51700000D03*
%TO.P,Q5,3,S*%
%TO.N,GND*%
X77851667Y-53990000D03*
%TD*%
D10*
%TO.P,C13,1*%
%TO.N,Net-(Q3-D)*%
X103935000Y-58000000D03*
%TO.P,C13,2*%
%TO.N,Net-(J4-Pin_1)*%
X108935000Y-58000000D03*
%TD*%
%TO.P,R21,1*%
%TO.N,OC*%
X33460000Y-61000000D03*
%TO.P,R21,2*%
%TO.N,GND*%
X36000000Y-61000000D03*
%TD*%
D30*
%TO.P,J1,1*%
%TO.N,Net-(J2-Pin_1)*%
X96042500Y-85500000D03*
D31*
%TO.P,J1,2*%
%TO.N,GND*%
X96042500Y-91500000D03*
D32*
X100742500Y-88500000D03*
%TD*%
D13*
%TO.P,Q3,1,G*%
%TO.N,Net-(D7-A)*%
X90766667Y-49410000D03*
D14*
%TO.P,Q3,2,D*%
%TO.N,Net-(Q3-D)*%
X98200000Y-51700000D03*
D15*
X90766667Y-51700000D03*
%TO.P,Q3,3,S*%
%TO.N,VDC*%
X90766667Y-53990000D03*
%TD*%
D33*
%TO.P,D2,1,K*%
%TO.N,Net-(D2-K)*%
X79632323Y-96545000D03*
D10*
%TO.P,D2,2,A*%
%TO.N,Net-(D2-A)*%
X79632323Y-94005000D03*
%TD*%
D11*
%TO.P,J2,1,Pin_1*%
%TO.N,Net-(J2-Pin_1)*%
X107000000Y-84500000D03*
D12*
%TO.P,J2,2,Pin_2*%
%TO.N,GND*%
X107000000Y-87000000D03*
%TD*%
D10*
%TO.P,R14,1*%
%TO.N,Net-(U4A--)*%
X23540000Y-88350000D03*
%TO.P,R14,2*%
%TO.N,Net-(R14-Pad2)*%
X23540000Y-85810000D03*
%TD*%
%TO.P,R30,1*%
%TO.N,Net-(U10-+)*%
X37745000Y-14455000D03*
%TO.P,R30,2*%
%TO.N,SIGNAL*%
X37745000Y-16995000D03*
%TD*%
D34*
%TO.P,D13,1,K*%
%TO.N,Net-(D13-K)*%
X25000000Y-31012183D03*
D21*
%TO.P,D13,2,A*%
%TO.N,FEEDBACK*%
X25000000Y-33552183D03*
%TD*%
D16*
%TO.P,U10,1,V+*%
%TO.N,+5V*%
X33195000Y-26690000D03*
D10*
%TO.P,U10,2,+*%
%TO.N,Net-(U10-+)*%
X33195000Y-29230000D03*
%TO.P,U10,3,-*%
%TO.N,FEEDBACK*%
X33195000Y-31770000D03*
%TO.P,U10,4,V-*%
%TO.N,GND*%
X33195000Y-34310000D03*
%TO.P,U10,5,LATCH*%
X40815000Y-34310000D03*
%TO.P,U10,6,GND*%
X40815000Y-31770000D03*
%TO.P,U10,7,Q*%
%TO.N,SIGNAL*%
X40815000Y-29230000D03*
%TO.P,U10,8,~{Q}*%
%TO.N,~SIGNAL*%
X40815000Y-26690000D03*
%TD*%
%TO.P,R24,1*%
%TO.N,Net-(Q6-D)*%
X104735000Y-23300000D03*
%TO.P,R24,2*%
%TO.N,Net-(J11-Pin_1)*%
X107275000Y-23300000D03*
%TD*%
%TO.P,R23,1*%
%TO.N,VDC*%
X91106667Y-31500000D03*
%TO.P,R23,2*%
%TO.N,Net-(D12-A)*%
X93646667Y-31500000D03*
%TD*%
%TO.P,R28,1*%
%TO.N,POWER_GOOD*%
X55230000Y-25000000D03*
%TO.P,R28,2*%
%TO.N,Net-(J12-Pin_3)*%
X55230000Y-22460000D03*
%TD*%
D13*
%TO.P,Q4,1,G*%
%TO.N,Net-(Q4-G)*%
X77851667Y-63410000D03*
D14*
%TO.P,Q4,2,D*%
%TO.N,Net-(J4-Pin_2)*%
X85285000Y-65700000D03*
D15*
X77851667Y-65700000D03*
%TO.P,Q4,3,S*%
%TO.N,GND*%
X77851667Y-67990000D03*
%TD*%
D22*
%TO.P,J3,1,Pin_1*%
%TO.N,INT_INPUT*%
X53085000Y-76000000D03*
D23*
%TO.P,J3,2,Pin_2*%
%TO.N,GND*%
X50545000Y-76000000D03*
%TO.P,J3,3,Pin_3*%
X48005000Y-76000000D03*
%TO.P,J3,4,Pin_4*%
%TO.N,INT_INPUT*%
X45465000Y-76000000D03*
%TD*%
D22*
%TO.P,J7,1,Pin_1*%
%TO.N,Net-(J7-Pin_1)*%
X34000000Y-50500000D03*
D23*
%TO.P,J7,2,Pin_2*%
X31460000Y-50500000D03*
%TD*%
D33*
%TO.P,U3,1*%
%TO.N,+5V*%
X45380000Y-69000000D03*
D10*
%TO.P,U3,2*%
%TO.N,unconnected-(U3-Pad2)*%
X47920000Y-69000000D03*
%TO.P,U3,3*%
%TO.N,INT_INPUT*%
X50460000Y-69000000D03*
%TO.P,U3,4*%
%TO.N,Net-(U3-Pad4)*%
X53000000Y-69000000D03*
%TO.P,U3,5*%
X55540000Y-69000000D03*
%TO.P,U3,6*%
%TO.N,INT*%
X58080000Y-69000000D03*
%TO.P,U3,7,GND*%
%TO.N,GND*%
X60620000Y-69000000D03*
%TO.P,U3,8*%
%TO.N,Net-(U7A-~{R})*%
X60620000Y-61380000D03*
%TO.P,U3,9*%
%TO.N,Net-(D4-A)*%
X58080000Y-61380000D03*
%TO.P,U3,10*%
%TO.N,POWER_GOOD*%
X55540000Y-61380000D03*
%TO.P,U3,11*%
%TO.N,Net-(D2-K)*%
X53000000Y-61380000D03*
%TO.P,U3,12*%
%TO.N,Net-(D4-K)*%
X50460000Y-61380000D03*
%TO.P,U3,13*%
%TO.N,Net-(U3-Pad13)*%
X47920000Y-61380000D03*
%TO.P,U3,14,VCC*%
%TO.N,+5V*%
X45380000Y-61380000D03*
%TD*%
D16*
%TO.P,D7,1,K*%
%TO.N,VDC*%
X90656667Y-56700000D03*
D10*
%TO.P,D7,2,A*%
%TO.N,Net-(D7-A)*%
X93196667Y-56700000D03*
%TD*%
%TO.P,C17,1*%
%TO.N,GND*%
X68500000Y-44300000D03*
%TO.P,C17,2*%
%TO.N,+9V*%
X73500000Y-44300000D03*
%TD*%
D35*
%TO.P,D14,1,K*%
%TO.N,FEEDBACK*%
X21000000Y-33500000D03*
D21*
%TO.P,D14,2,A*%
%TO.N,Net-(D13-K)*%
X21000000Y-30960000D03*
%TD*%
D10*
%TO.P,C16,1*%
%TO.N,VDC*%
X82741667Y-43000000D03*
%TO.P,C16,2*%
%TO.N,GND*%
X77741667Y-43000000D03*
%TD*%
%TO.P,R29,1*%
%TO.N,GND*%
X29695000Y-34280000D03*
%TO.P,R29,2*%
%TO.N,Net-(U10-+)*%
X29695000Y-31740000D03*
%TD*%
D11*
%TO.P,J10,1,Pin_1*%
%TO.N,Net-(J10-Pin_1)*%
X18500000Y-49000000D03*
D12*
%TO.P,J10,2,Pin_2*%
%TO.N,GND*%
X18500000Y-51500000D03*
%TD*%
D36*
%TO.P,D6,1,K*%
%TO.N,OC*%
X27000000Y-64500000D03*
D21*
%TO.P,D6,2,A*%
%TO.N,Net-(D11-K)*%
X24460000Y-64500000D03*
%TD*%
D13*
%TO.P,Q2,1,G*%
%TO.N,Net-(D3-A)*%
X90766667Y-63410000D03*
D14*
%TO.P,Q2,2,D*%
%TO.N,Net-(J4-Pin_2)*%
X98200000Y-65700000D03*
D15*
X90766667Y-65700000D03*
%TO.P,Q2,3,S*%
%TO.N,VDC*%
X90766667Y-67990000D03*
%TD*%
D22*
%TO.P,J6,1,Pin_1*%
%TO.N,DRV2*%
X62500000Y-53000000D03*
D23*
%TO.P,J6,2,Pin_2*%
%TO.N,GND*%
X62500000Y-55540000D03*
%TO.P,J6,3,Pin_3*%
%TO.N,DRV1*%
X62500000Y-58080000D03*
%TD*%
D28*
%TO.P,C7,1*%
%TO.N,+5V*%
X58264646Y-80000000D03*
D29*
%TO.P,C7,2*%
%TO.N,GND*%
X63264646Y-80000000D03*
%TD*%
D20*
%TO.P,D11,1,K*%
%TO.N,Net-(D11-K)*%
X23960000Y-61250000D03*
D21*
%TO.P,D11,2,A*%
%TO.N,GND*%
X26500000Y-61250000D03*
%TD*%
D37*
%TO.P,RV1,1,1*%
%TO.N,GND*%
X17500000Y-69775000D03*
%TO.P,RV1,2,2*%
%TO.N,Net-(J7-Pin_1)*%
X17500000Y-72315000D03*
%TO.P,RV1,3,3*%
%TO.N,Net-(R16-Pad1)*%
X17500000Y-74855000D03*
%TD*%
D10*
%TO.P,R22,1*%
%TO.N,Net-(J8-Pin_3)*%
X25500000Y-41500000D03*
%TO.P,R22,2*%
%TO.N,GND*%
X22960000Y-41500000D03*
%TD*%
%TO.P,C36,1*%
%TO.N,Net-(C36-Pad1)*%
X16000000Y-36512183D03*
%TO.P,C36,2*%
%TO.N,Net-(J10-Pin_1)*%
X16000000Y-41512183D03*
%TD*%
%TO.P,C27,1*%
%TO.N,Net-(Q6-D)*%
X103935000Y-29800000D03*
%TO.P,C27,2*%
%TO.N,Net-(J11-Pin_1)*%
X108935000Y-29800000D03*
%TD*%
%TO.P,R6,1*%
%TO.N,Net-(D5-A)*%
X31500000Y-97000000D03*
%TO.P,R6,2*%
%TO.N,GND*%
X28960000Y-97000000D03*
%TD*%
%TO.P,R2,1*%
%TO.N,Net-(Q1-B)*%
X86132323Y-90585000D03*
%TO.P,R2,2*%
%TO.N,GND*%
X86132323Y-88045000D03*
%TD*%
%TO.P,C22,1*%
%TO.N,GND*%
X43130000Y-39500000D03*
%TO.P,C22,2*%
%TO.N,+5V*%
X48130000Y-39500000D03*
%TD*%
%TO.P,R13,1*%
%TO.N,OC*%
X33460000Y-64550000D03*
%TO.P,R13,2*%
%TO.N,GND*%
X36000000Y-64550000D03*
%TD*%
D26*
%TO.P,U1,1,VI*%
%TO.N,VDC*%
X71172323Y-93050000D03*
D27*
%TO.P,U1,2,GND*%
%TO.N,GND*%
X68632323Y-93050000D03*
%TO.P,U1,3,VO*%
%TO.N,+9V*%
X66092323Y-93050000D03*
%TD*%
D10*
%TO.P,C32,1*%
%TO.N,VDC*%
X82741667Y-29000000D03*
%TO.P,C32,2*%
%TO.N,GND*%
X77741667Y-29000000D03*
%TD*%
%TO.P,C3,1*%
%TO.N,VDC*%
X82741667Y-71200000D03*
%TO.P,C3,2*%
%TO.N,GND*%
X77741667Y-71200000D03*
%TD*%
%TO.P,C30,1*%
%TO.N,GND*%
X68500000Y-20500000D03*
%TO.P,C30,2*%
%TO.N,+9V*%
X73500000Y-20500000D03*
%TD*%
D38*
%TO.P,D5,1,K*%
%TO.N,+5V*%
X46825000Y-84800000D03*
%TO.P,D5,2,A*%
%TO.N,Net-(D5-A)*%
X44285000Y-84800000D03*
%TD*%
D10*
%TO.P,C35,1*%
%TO.N,SIGNAL*%
X38195000Y-20000000D03*
%TO.P,C35,2*%
%TO.N,Net-(C35-Pad2)*%
X33195000Y-20000000D03*
%TD*%
D16*
%TO.P,D12,1,K*%
%TO.N,VDC*%
X90656667Y-28500000D03*
D10*
%TO.P,D12,2,A*%
%TO.N,Net-(D12-A)*%
X93196667Y-28500000D03*
%TD*%
%TO.P,R32,1*%
%TO.N,+5V*%
X22000000Y-21455000D03*
%TO.P,R32,2*%
%TO.N,Net-(D13-K)*%
X22000000Y-23995000D03*
%TD*%
%TO.P,C10,1*%
%TO.N,GND*%
X29040000Y-82310000D03*
%TO.P,C10,2*%
%TO.N,+5V*%
X34040000Y-82310000D03*
%TD*%
D16*
%TO.P,D3,1,K*%
%TO.N,VDC*%
X90656667Y-70700000D03*
D10*
%TO.P,D3,2,A*%
%TO.N,Net-(D3-A)*%
X93196667Y-70700000D03*
%TD*%
D16*
%TO.P,U7,1,~{R}*%
%TO.N,Net-(U7A-~{R})*%
X40510000Y-42810000D03*
D10*
%TO.P,U7,2,D*%
%TO.N,GND*%
X40510000Y-45350000D03*
%TO.P,U7,3,C*%
%TO.N,SIGNAL*%
X40510000Y-47890000D03*
%TO.P,U7,4,~{S}*%
%TO.N,Net-(D4-K)*%
X40510000Y-50430000D03*
%TO.P,U7,5,Q*%
%TO.N,IS_RUNNING*%
X40510000Y-52970000D03*
%TO.P,U7,6,~{Q}*%
%TO.N,unconnected-(U7A-~{Q}-Pad6)*%
X40510000Y-55510000D03*
%TO.P,U7,7,GND*%
%TO.N,GND*%
X40510000Y-58050000D03*
%TO.P,U7,8,~{Q}*%
%TO.N,OCD_STATUS*%
X48130000Y-58050000D03*
%TO.P,U7,9,Q*%
%TO.N,OCD*%
X48130000Y-55510000D03*
%TO.P,U7,10,~{S}*%
%TO.N,+5V*%
X48130000Y-52970000D03*
%TO.P,U7,11,C*%
%TO.N,INT*%
X48130000Y-50430000D03*
%TO.P,U7,12,D*%
%TO.N,+5V*%
X48130000Y-47890000D03*
%TO.P,U7,13,~{R}*%
%TO.N,Net-(U7B-~{R})*%
X48130000Y-45350000D03*
%TO.P,U7,14,VCC*%
%TO.N,+5V*%
X48130000Y-42810000D03*
%TD*%
%TO.P,R27,1*%
%TO.N,+5V*%
X52230000Y-25000000D03*
%TO.P,R27,2*%
%TO.N,Net-(J12-Pin_1)*%
X52230000Y-22460000D03*
%TD*%
%TO.P,C37,1*%
%TO.N,Net-(D13-K)*%
X25000000Y-27000000D03*
%TO.P,C37,2*%
%TO.N,GND*%
X20000000Y-27000000D03*
%TD*%
D28*
%TO.P,C4,1*%
%TO.N,+9V*%
X70632323Y-80000000D03*
D29*
%TO.P,C4,2*%
%TO.N,GND*%
X75632323Y-80000000D03*
%TD*%
D22*
%TO.P,J8,1,Pin_1*%
%TO.N,Net-(J8-Pin_1)*%
X24000000Y-50500000D03*
D23*
%TO.P,J8,2,Pin_2*%
%TO.N,Net-(J10-Pin_1)*%
X24000000Y-47960000D03*
%TO.P,J8,3,Pin_3*%
%TO.N,Net-(J8-Pin_3)*%
X24000000Y-45420000D03*
%TD*%
D16*
%TO.P,U8,1*%
%TO.N,INT*%
X51695000Y-42810000D03*
D10*
%TO.P,U8,2*%
%TO.N,POWER_GOOD*%
X51695000Y-45350000D03*
%TO.P,U8,3*%
%TO.N,Net-(U8-Pad3)*%
X51695000Y-47890000D03*
%TO.P,U8,4*%
X51695000Y-50430000D03*
%TO.P,U8,5*%
%TO.N,OCD*%
X51695000Y-52970000D03*
%TO.P,U8,6*%
%TO.N,Net-(U3-Pad13)*%
X51695000Y-55510000D03*
%TO.P,U8,7,GND*%
%TO.N,GND*%
X51695000Y-58050000D03*
%TO.P,U8,8*%
%TO.N,DRV1*%
X59315000Y-58050000D03*
%TO.P,U8,9*%
%TO.N,IS_RUNNING*%
X59315000Y-55510000D03*
%TO.P,U8,10*%
%TO.N,SIGNAL*%
X59315000Y-52970000D03*
%TO.P,U8,11*%
%TO.N,DRV2*%
X59315000Y-50430000D03*
%TO.P,U8,12*%
%TO.N,~SIGNAL*%
X59315000Y-47890000D03*
%TO.P,U8,13*%
%TO.N,IS_RUNNING*%
X59315000Y-45350000D03*
%TO.P,U8,14,VCC*%
%TO.N,+5V*%
X59315000Y-42810000D03*
%TD*%
%TO.P,R34,1*%
%TO.N,Net-(U10-+)*%
X33645000Y-14455000D03*
%TO.P,R34,2*%
%TO.N,Net-(C35-Pad2)*%
X33645000Y-16995000D03*
%TD*%
%TO.P,R35,1*%
%TO.N,FEEDBACK*%
X17000000Y-30630000D03*
%TO.P,R35,2*%
%TO.N,Net-(C36-Pad1)*%
X17000000Y-33170000D03*
%TD*%
%TO.P,R31,1*%
%TO.N,Net-(J8-Pin_3)*%
X25500000Y-37500000D03*
%TO.P,R31,2*%
%TO.N,GND*%
X22960000Y-37500000D03*
%TD*%
%TO.P,R8,1*%
%TO.N,+5V*%
X75587323Y-88545000D03*
%TO.P,R8,2*%
%TO.N,Net-(D2-A)*%
X78127323Y-88545000D03*
%TD*%
D24*
%TO.P,H3,1,1*%
%TO.N,GND*%
X105900000Y-17500000D03*
D25*
X105900000Y-17500000D03*
%TD*%
D10*
%TO.P,C14,1*%
%TO.N,Net-(Q3-D)*%
X103935000Y-55000000D03*
%TO.P,C14,2*%
%TO.N,Net-(J4-Pin_1)*%
X108935000Y-55000000D03*
%TD*%
%TO.P,R4,1*%
%TO.N,Net-(U4B--)*%
X37225000Y-92505000D03*
%TO.P,R4,2*%
%TO.N,Net-(R14-Pad2)*%
X37225000Y-95045000D03*
%TD*%
%TO.P,R36,1*%
%TO.N,Net-(D13-K)*%
X25050000Y-23495000D03*
%TO.P,R36,2*%
%TO.N,GND*%
X25050000Y-20955000D03*
%TD*%
D24*
%TO.P,H1,1,1*%
%TO.N,GND*%
X105900000Y-93400000D03*
D25*
X105900000Y-93400000D03*
%TD*%
D13*
%TO.P,Q6,1,G*%
%TO.N,Net-(D12-A)*%
X90766667Y-21210000D03*
D14*
%TO.P,Q6,2,D*%
%TO.N,Net-(Q6-D)*%
X98200000Y-23500000D03*
D15*
X90766667Y-23500000D03*
%TO.P,Q6,3,S*%
%TO.N,VDC*%
X90766667Y-25790000D03*
%TD*%
D10*
%TO.P,R33,1*%
%TO.N,Net-(U10-+)*%
X29695000Y-28735000D03*
%TO.P,R33,2*%
%TO.N,+5V*%
X29695000Y-26195000D03*
%TD*%
D39*
%TO.P,L1,1*%
%TO.N,Net-(J8-Pin_1)*%
X30000000Y-45500000D03*
D40*
%TO.P,L1,2*%
%TO.N,Net-(J8-Pin_3)*%
X30000000Y-39500000D03*
%TO.P,L1,3*%
%TO.N,N/C*%
X36000000Y-45500000D03*
D39*
%TO.P,L1,4*%
X36000000Y-39500000D03*
D41*
%TO.P,L1,5*%
X30000000Y-42500000D03*
X36000000Y-42500000D03*
D42*
%TO.P,L1,6,Shield*%
%TO.N,GND*%
X33000000Y-46300000D03*
X33000000Y-38700000D03*
%TD*%
D10*
%TO.P,C28,1*%
%TO.N,GND*%
X68000000Y-38000000D03*
%TO.P,C28,2*%
%TO.N,+9V*%
X73000000Y-38000000D03*
%TD*%
%TO.P,R3,1*%
%TO.N,Net-(D1-A)*%
X86132323Y-96045000D03*
%TO.P,R3,2*%
%TO.N,Net-(Q1-B)*%
X86132323Y-93505000D03*
%TD*%
%TO.P,R5,1*%
%TO.N,Net-(U4B--)*%
X37225000Y-89045000D03*
%TO.P,R5,2*%
%TO.N,INT_INPUT*%
X37225000Y-86505000D03*
%TD*%
%TO.P,R18,1*%
%TO.N,VDC*%
X91106667Y-59700000D03*
%TO.P,R18,2*%
%TO.N,Net-(D7-A)*%
X93646667Y-59700000D03*
%TD*%
%TO.P,R7,1*%
%TO.N,VDC*%
X91106667Y-73700000D03*
%TO.P,R7,2*%
%TO.N,Net-(D3-A)*%
X93646667Y-73700000D03*
%TD*%
D16*
%TO.P,D4,1,K*%
%TO.N,Net-(D4-K)*%
X64460000Y-65000000D03*
D10*
%TO.P,D4,2,A*%
%TO.N,Net-(D4-A)*%
X67000000Y-65000000D03*
%TD*%
D19*
%TO.P,D1,1,K*%
%TO.N,VDC*%
X89132323Y-93505000D03*
D10*
%TO.P,D1,2,A*%
%TO.N,Net-(D1-A)*%
X89132323Y-96045000D03*
%TD*%
D22*
%TO.P,J14,1,Pin_1*%
%TO.N,FEEDBACK*%
X17012182Y-24052183D03*
D23*
%TO.P,J14,2,Pin_2*%
X17012182Y-26592183D03*
%TD*%
D36*
%TO.P,D9,1,K*%
%TO.N,OC*%
X27000000Y-54000000D03*
D21*
%TO.P,D9,2,A*%
%TO.N,Net-(D10-K)*%
X24460000Y-54000000D03*
%TD*%
D29*
%TO.P,F1,1*%
%TO.N,VDC*%
X94460000Y-81000000D03*
%TO.P,F1,2*%
%TO.N,Net-(J2-Pin_1)*%
X99540000Y-81010000D03*
%TD*%
D10*
%TO.P,R15,1*%
%TO.N,Net-(U4A--)*%
X20000000Y-88350000D03*
%TO.P,R15,2*%
%TO.N,GND*%
X20000000Y-85810000D03*
%TD*%
%TO.P,C25,1*%
%TO.N,GND*%
X36000000Y-54000000D03*
%TO.P,C25,2*%
%TO.N,Net-(J7-Pin_1)*%
X31000000Y-54000000D03*
%TD*%
D22*
%TO.P,J5,1,Pin_1*%
%TO.N,SEL_DRV_2*%
X65040000Y-46540000D03*
D23*
%TO.P,J5,2,Pin_2*%
%TO.N,SEL_DRV_1*%
X62500000Y-46540000D03*
%TO.P,J5,3,Pin_3*%
%TO.N,DRV1*%
X65040000Y-44000000D03*
%TO.P,J5,4,Pin_4*%
%TO.N,DRV2*%
X62500000Y-44000000D03*
%TO.P,J5,5,Pin_5*%
%TO.N,SEL_DRV_1*%
X65040000Y-41460000D03*
%TO.P,J5,6,Pin_6*%
%TO.N,SEL_DRV_2*%
X62500000Y-41460000D03*
%TD*%
D10*
%TO.P,R16,1*%
%TO.N,Net-(R16-Pad1)*%
X28955000Y-79000000D03*
%TO.P,R16,2*%
%TO.N,+9V*%
X31495000Y-79000000D03*
%TD*%
%TO.P,C12,1*%
%TO.N,Net-(U7B-~{R})*%
X37500000Y-73315000D03*
%TO.P,C12,2*%
%TO.N,GND*%
X42500000Y-73315000D03*
%TD*%
%TO.P,C15,1*%
%TO.N,VDC*%
X82741667Y-57200000D03*
%TO.P,C15,2*%
%TO.N,GND*%
X77741667Y-57200000D03*
%TD*%
D43*
%TO.N,Net-(D2-K)*%
X54000000Y-63500000D03*
X62500000Y-91523104D03*
X62500000Y-96500000D03*
%TO.N,+9V*%
X56122505Y-86122505D03*
X53000000Y-83000000D03*
%TO.N,Net-(U7B-~{R})*%
X45500000Y-48000000D03*
%TO.N,Net-(D4-K)*%
X46500000Y-63500000D03*
X43000000Y-63500000D03*
%TO.N,Net-(U7A-~{R})*%
X52500000Y-40500000D03*
X47000000Y-34000000D03*
%TO.N,INT_INPUT*%
X48732500Y-72732500D03*
X40870625Y-80594375D03*
%TO.N,INT*%
X51695000Y-36305000D03*
X50000000Y-63500000D03*
%TO.N,POWER_GOOD*%
X49500000Y-34500000D03*
%TO.N,OCD_STATUS*%
X49500000Y-36000000D03*
%TO.N,IS_RUNNING*%
X62500000Y-62000000D03*
%TD*%
D44*
%TO.N,Net-(D7-A)*%
X87556667Y-46200000D02*
X90766667Y-49410000D01*
X93646667Y-59700000D02*
X93646667Y-57150000D01*
X82741667Y-46200000D02*
X87556667Y-46200000D01*
D45*
%TO.N,+5V*%
X54092323Y-84172323D02*
X58264646Y-80000000D01*
X46910000Y-51820000D02*
X48130000Y-53040000D01*
X22000000Y-21455000D02*
X23901000Y-19554000D01*
X49630000Y-38000000D02*
X57815000Y-38000000D01*
X75587323Y-90500000D02*
X76632323Y-91545000D01*
X48130000Y-39500000D02*
X49630000Y-38000000D01*
X48130000Y-39500000D02*
X48130000Y-42880000D01*
X29559000Y-19554000D02*
X33195000Y-23190000D01*
X50760000Y-25000000D02*
X52230000Y-25000000D01*
X73177323Y-95000000D02*
X76632323Y-91545000D01*
X46500000Y-51820000D02*
X46500000Y-49590000D01*
X33195000Y-26690000D02*
X30190000Y-26690000D01*
X48130000Y-42810000D02*
X47690000Y-42810000D01*
X23901000Y-19554000D02*
X29559000Y-19554000D01*
X54092323Y-93592323D02*
X55500000Y-95000000D01*
X50025000Y-88000000D02*
X54132323Y-88000000D01*
X52500000Y-71500000D02*
X58264646Y-77264646D01*
X46500000Y-49590000D02*
X48200000Y-47890000D01*
X45380000Y-69000000D02*
X44833686Y-69000000D01*
X44833686Y-69000000D02*
X40040000Y-73793686D01*
X75587323Y-88545000D02*
X75587323Y-90500000D01*
X47100000Y-85075000D02*
X50025000Y-88000000D01*
X55500000Y-95000000D02*
X73177323Y-95000000D01*
X47880000Y-71500000D02*
X52500000Y-71500000D01*
X40040000Y-73793686D02*
X40040000Y-76315000D01*
X45500000Y-83500000D02*
X45000000Y-83000000D01*
X46500000Y-51820000D02*
X46910000Y-51820000D01*
X46500000Y-44000000D02*
X46500000Y-60260000D01*
X45789000Y-25289000D02*
X48130000Y-27630000D01*
X57815000Y-38000000D02*
X59315000Y-39500000D01*
X45000000Y-83000000D02*
X34730000Y-83000000D01*
X47690000Y-42810000D02*
X46500000Y-44000000D01*
X41920000Y-61380000D02*
X45380000Y-61380000D01*
X48130000Y-27630000D02*
X50760000Y-25000000D01*
X33195000Y-23190000D02*
X33195000Y-26690000D01*
X45380000Y-69000000D02*
X45380000Y-61380000D01*
X45525000Y-83500000D02*
X45500000Y-83500000D01*
X34596000Y-25289000D02*
X45789000Y-25289000D01*
X34730000Y-83000000D02*
X34040000Y-82310000D01*
X45380000Y-69000000D02*
X47880000Y-71500000D01*
X48130000Y-27630000D02*
X48130000Y-39500000D01*
X30190000Y-26690000D02*
X29695000Y-26195000D01*
X58264646Y-77264646D02*
X58264646Y-80000000D01*
X54092323Y-93050000D02*
X54092323Y-93592323D01*
X46825000Y-84800000D02*
X45525000Y-83500000D01*
X54092323Y-93050000D02*
X54092323Y-84172323D01*
X46500000Y-60260000D02*
X45380000Y-61380000D01*
X34040000Y-86000000D02*
X34040000Y-82310000D01*
X59315000Y-39540000D02*
X59315000Y-42880000D01*
X33195000Y-26690000D02*
X34596000Y-25289000D01*
D46*
%TO.N,Net-(J11-Pin_1)*%
X109000000Y-33000000D02*
X109000000Y-26865000D01*
X109000000Y-26865000D02*
X108935000Y-26800000D01*
X108935000Y-24960000D02*
X107275000Y-23300000D01*
X108935000Y-26800000D02*
X108935000Y-24960000D01*
X106785000Y-35300000D02*
X106785000Y-35215000D01*
X106785000Y-35215000D02*
X109000000Y-33000000D01*
D44*
%TO.N,Net-(D2-K)*%
X61000000Y-79500000D02*
X59500000Y-78000000D01*
X61000000Y-90023104D02*
X61000000Y-79500000D01*
X56500000Y-63500000D02*
X54000000Y-63500000D01*
X76632323Y-96545000D02*
X82132323Y-96545000D01*
X62545000Y-96545000D02*
X62500000Y-96500000D01*
X62500000Y-91523104D02*
X61000000Y-90023104D01*
X82132323Y-96545000D02*
X82632323Y-96045000D01*
X59500000Y-66500000D02*
X56500000Y-63500000D01*
X76632323Y-96545000D02*
X62545000Y-96545000D01*
X59500000Y-78000000D02*
X59500000Y-66500000D01*
%TO.N,SIGNAL*%
X38500000Y-31545000D02*
X40815000Y-29230000D01*
X40510000Y-47890000D02*
X38500000Y-45880000D01*
X41765000Y-17265000D02*
X41495000Y-16995000D01*
X42500000Y-14725000D02*
X42500000Y-17265000D01*
X41495000Y-16995000D02*
X37745000Y-16995000D01*
X38500000Y-45880000D02*
X38500000Y-31545000D01*
X37745000Y-16995000D02*
X37745000Y-19550000D01*
D46*
%TO.N,OC*%
X27000000Y-64500000D02*
X27000000Y-65599999D01*
X33460000Y-59960000D02*
X31000000Y-57500000D01*
X27000000Y-54000000D02*
X27500000Y-54000000D01*
X33410000Y-64500000D02*
X33460000Y-64550000D01*
X26230000Y-66369999D02*
X26230000Y-68695000D01*
X33410000Y-64500000D02*
X27000000Y-64500000D01*
X33460000Y-61000000D02*
X33460000Y-59960000D01*
X33460000Y-64550000D02*
X33460000Y-61000000D01*
X27500000Y-54000000D02*
X31000000Y-57500000D01*
X27000000Y-65599999D02*
X26230000Y-66369999D01*
D44*
%TO.N,Net-(D5-A)*%
X26420000Y-92030000D02*
X26420000Y-91080000D01*
X31500000Y-97110000D02*
X26420000Y-92030000D01*
X39000000Y-94827050D02*
X39000000Y-90085000D01*
X36827050Y-97000000D02*
X39000000Y-94827050D01*
X31500000Y-97000000D02*
X36827050Y-97000000D01*
X39000000Y-90085000D02*
X44285000Y-84800000D01*
D45*
%TO.N,+9V*%
X31310000Y-76315000D02*
X31310000Y-78815000D01*
X73000000Y-33000000D02*
X74500000Y-31500000D01*
X56632323Y-90510000D02*
X56632323Y-86632323D01*
X56632323Y-86632323D02*
X56122505Y-86122505D01*
X73000000Y-77632323D02*
X73000000Y-56300000D01*
X66092323Y-84540000D02*
X70632323Y-80000000D01*
X73000000Y-56300000D02*
X74000000Y-55300000D01*
X31310000Y-76315000D02*
X34500000Y-76315000D01*
X66092323Y-93050000D02*
X59172323Y-93050000D01*
X74500000Y-31500000D02*
X73000000Y-29999999D01*
X73000000Y-29999999D02*
X73000000Y-21000000D01*
X73000000Y-21000000D02*
X73500000Y-20500000D01*
X71000000Y-79632323D02*
X73000000Y-77632323D01*
X73800000Y-55300000D02*
X73000000Y-54500000D01*
X36495000Y-81500000D02*
X31310000Y-76315000D01*
X66092323Y-93050000D02*
X66092323Y-84540000D01*
X73000000Y-54500000D02*
X73000000Y-33000000D01*
X53000000Y-83000000D02*
X51500000Y-81500000D01*
X51500000Y-81500000D02*
X36495000Y-81500000D01*
X56632323Y-90510000D02*
X59172323Y-93050000D01*
D46*
%TO.N,Net-(J10-Pin_1)*%
X18500000Y-49000000D02*
X19540000Y-47960000D01*
X19540000Y-45460000D02*
X20000000Y-45000000D01*
X18500000Y-46500000D02*
X18500000Y-44012182D01*
X19500000Y-41512183D02*
X19500000Y-44000000D01*
X18500000Y-49000000D02*
X18500000Y-46500000D01*
X18500000Y-44012182D02*
X16000000Y-41512183D01*
X18500000Y-44000000D02*
X18500000Y-46500000D01*
X19540000Y-47960000D02*
X23000000Y-47960000D01*
X19500000Y-44000000D02*
X18500000Y-45000000D01*
X18500000Y-45000000D02*
X20000000Y-45000000D01*
X16012183Y-41512183D02*
X18500000Y-44000000D01*
X23000000Y-47960000D02*
X24000000Y-47960000D01*
X18500000Y-42512183D02*
X19500000Y-41512183D01*
X19500000Y-41512183D02*
X19500000Y-45960000D01*
X16000000Y-41512183D02*
X16012183Y-41512183D01*
X19540000Y-47960000D02*
X19540000Y-45460000D01*
X19500000Y-41512183D02*
X16000000Y-41512183D01*
X19500000Y-45960000D02*
X21500000Y-47960000D01*
X18500000Y-46500000D02*
X18500000Y-46000000D01*
X21500000Y-47960000D02*
X23000000Y-47960000D01*
X18500000Y-46500000D02*
X18500000Y-42512183D01*
X20000000Y-45000000D02*
X20500000Y-44500000D01*
D44*
%TO.N,Net-(U7B-~{R})*%
X39750000Y-49250000D02*
X38500000Y-50500000D01*
X28770000Y-76315000D02*
X31770000Y-73315000D01*
X38500000Y-72315000D02*
X37500000Y-73315000D01*
X37500000Y-76315000D02*
X37500000Y-73315000D01*
X44250000Y-49250000D02*
X39750000Y-49250000D01*
X38500000Y-50500000D02*
X38500000Y-72315000D01*
X31770000Y-73315000D02*
X37500000Y-73315000D01*
X45500000Y-48000000D02*
X44250000Y-49250000D01*
%TO.N,Net-(J7-Pin_1)*%
X34761000Y-57761000D02*
X31000000Y-54000000D01*
X34761000Y-65239000D02*
X34761000Y-57761000D01*
X31460000Y-50500000D02*
X34000000Y-50500000D01*
X28770000Y-68695000D02*
X30834840Y-66630160D01*
X31960000Y-53540000D02*
X31500000Y-54000000D01*
X17500000Y-72315000D02*
X25150000Y-72315000D01*
X25150000Y-72315000D02*
X28770000Y-68695000D01*
X31960000Y-50500000D02*
X31960000Y-53540000D01*
X33369840Y-66630160D02*
X34761000Y-65239000D01*
X30834840Y-66630160D02*
X33369840Y-66630160D01*
%TO.N,Net-(D8-A)*%
X93646667Y-45500000D02*
X93646667Y-42950000D01*
X87556667Y-32000000D02*
X82741667Y-32000000D01*
X90766667Y-35210000D02*
X87556667Y-32000000D01*
%TO.N,Net-(C35-Pad2)*%
X33645000Y-16995000D02*
X33645000Y-19550000D01*
%TO.N,Net-(C36-Pad1)*%
X16000000Y-36512183D02*
X18460000Y-38972183D01*
X16000000Y-36500000D02*
X17000000Y-35500000D01*
X17000000Y-35500000D02*
X17000000Y-33170000D01*
X18460000Y-38972183D02*
X19500000Y-38972183D01*
D45*
%TO.N,VDC*%
X89132323Y-84867677D02*
X88132323Y-84867677D01*
X91106667Y-31500000D02*
X91106667Y-26130000D01*
X73000000Y-87000000D02*
X80000000Y-80000000D01*
X87556667Y-57200000D02*
X90766667Y-53990000D01*
X90766667Y-39790000D02*
X87556667Y-43000000D01*
X90766667Y-67990000D02*
X87556667Y-71200000D01*
X91106667Y-45500000D02*
X91106667Y-40130000D01*
X89132323Y-93505000D02*
X89132323Y-85867677D01*
X87556667Y-43000000D02*
X82741667Y-43000000D01*
X73000000Y-91222323D02*
X73000000Y-87000000D01*
X89132323Y-84827677D02*
X89132323Y-85867677D01*
X90766667Y-53990000D02*
X90766667Y-59360000D01*
X80000000Y-80000000D02*
X83264646Y-80000000D01*
X90766667Y-25790000D02*
X87556667Y-29000000D01*
X82741667Y-57200000D02*
X87556667Y-57200000D01*
X93000000Y-81000000D02*
X89132323Y-84867677D01*
X87764646Y-84500000D02*
X83264646Y-80000000D01*
X94460000Y-81000000D02*
X93000000Y-81000000D01*
X89132323Y-85867677D02*
X87764646Y-84500000D01*
X71172323Y-93050000D02*
X73000000Y-91222323D01*
X87556667Y-29000000D02*
X82741667Y-29000000D01*
X90766667Y-59360000D02*
X91106667Y-59700000D01*
X82741667Y-71200000D02*
X87556667Y-71200000D01*
X91106667Y-73700000D02*
X91106667Y-68330000D01*
X88132323Y-84867677D02*
X87764646Y-84500000D01*
D46*
%TO.N,Net-(D11-K)*%
X23960000Y-61250000D02*
X19000000Y-61250000D01*
X23960000Y-64000000D02*
X23960000Y-61250000D01*
X24460000Y-64500000D02*
X23960000Y-64000000D01*
X19000000Y-61250000D02*
X18500000Y-60750000D01*
D44*
%TO.N,Net-(D13-K)*%
X24550000Y-23995000D02*
X25050000Y-23495000D01*
X24512183Y-31012183D02*
X21564364Y-31012183D01*
X25050000Y-23495000D02*
X25050000Y-26950000D01*
X22000000Y-23995000D02*
X24550000Y-23995000D01*
X25000000Y-31012183D02*
X25000000Y-27000000D01*
%TO.N,Net-(D4-K)*%
X39000000Y-61000000D02*
X41500000Y-63500000D01*
X59800500Y-65000000D02*
X57699500Y-62899000D01*
X41500000Y-63500000D02*
X43000000Y-63500000D01*
X39000000Y-51940000D02*
X39000000Y-61000000D01*
X64500000Y-67955000D02*
X64500000Y-65040000D01*
X46500000Y-63500000D02*
X48340000Y-63500000D01*
X57699500Y-62899000D02*
X51979000Y-62899000D01*
X51979000Y-62899000D02*
X50460000Y-61380000D01*
X48340000Y-63500000D02*
X50460000Y-61380000D01*
X64460000Y-65000000D02*
X59800500Y-65000000D01*
X40510000Y-50430000D02*
X39000000Y-51940000D01*
%TO.N,Net-(J12-Pin_1)*%
X52500000Y-21775000D02*
X52500000Y-18965000D01*
X52230000Y-21775000D02*
X52500000Y-21775000D01*
%TO.N,Net-(D1-A)*%
X89132323Y-96045000D02*
X86132323Y-96045000D01*
%TO.N,Net-(D3-A)*%
X93646667Y-73700000D02*
X93646667Y-71150000D01*
X87556667Y-60200000D02*
X90766667Y-63410000D01*
X82741667Y-60200000D02*
X87556667Y-60200000D01*
%TO.N,FEEDBACK*%
X17012182Y-24052183D02*
X17012182Y-30617818D01*
X31965000Y-33000000D02*
X33195000Y-31770000D01*
X24460000Y-33500000D02*
X21616547Y-33500000D01*
X17130000Y-30630000D02*
X20463453Y-33963453D01*
X25552183Y-33000000D02*
X31965000Y-33000000D01*
D46*
%TO.N,Net-(D10-K)*%
X23338730Y-58250000D02*
X23960000Y-57628730D01*
X23960000Y-57628730D02*
X23960000Y-54500000D01*
X23960000Y-54500000D02*
X24460000Y-54000000D01*
X18500000Y-58250000D02*
X23338730Y-58250000D01*
D44*
%TO.N,Net-(Q1-B)*%
X84092323Y-88545000D02*
X86132323Y-90585000D01*
X86132323Y-93505000D02*
X86132323Y-90585000D01*
X82132323Y-88545000D02*
X84092323Y-88545000D01*
%TO.N,Net-(U10-+)*%
X33500000Y-14505000D02*
X36905000Y-14505000D01*
X32700000Y-28735000D02*
X33195000Y-29230000D01*
X29695000Y-28735000D02*
X32700000Y-28735000D01*
X29695000Y-31740000D02*
X29695000Y-28735000D01*
%TO.N,Net-(R14-Pad2)*%
X27500000Y-86000000D02*
X28500000Y-87000000D01*
X26420000Y-86000000D02*
X27500000Y-86000000D01*
X23540000Y-85810000D02*
X26230000Y-85810000D01*
X37225000Y-95045000D02*
X32045000Y-95045000D01*
X28500000Y-91500000D02*
X28500000Y-87000000D01*
X32045000Y-95045000D02*
X28500000Y-91500000D01*
%TO.N,Net-(U4B--)*%
X35190000Y-91080000D02*
X37225000Y-89045000D01*
X34040000Y-91080000D02*
X35190000Y-91080000D01*
X37225000Y-92505000D02*
X37225000Y-89045000D01*
%TO.N,Net-(U4A--)*%
X20000000Y-88350000D02*
X23540000Y-88350000D01*
X23540000Y-88350000D02*
X26230000Y-88350000D01*
%TO.N,Net-(U7A-~{R})*%
X46000000Y-41000000D02*
X45500000Y-41500000D01*
X52500000Y-40500000D02*
X52500000Y-41000000D01*
X45500000Y-41500000D02*
X41820000Y-41500000D01*
X56000000Y-44500000D02*
X56000000Y-57500000D01*
X47000000Y-34000000D02*
X46000000Y-35000000D01*
X56000000Y-57500000D02*
X59423950Y-60923950D01*
X52500000Y-41000000D02*
X56000000Y-44500000D01*
X46000000Y-35000000D02*
X46000000Y-41000000D01*
X41820000Y-41500000D02*
X40510000Y-42810000D01*
X59423950Y-60923950D02*
X60163950Y-60923950D01*
%TO.N,Net-(R16-Pad1)*%
X17500000Y-74855000D02*
X21645000Y-79000000D01*
X21645000Y-79000000D02*
X28955000Y-79000000D01*
%TO.N,Net-(U3-Pad4)*%
X53000000Y-69000000D02*
X55540000Y-69000000D01*
%TO.N,INT_INPUT*%
X51934000Y-74849000D02*
X46616000Y-74849000D01*
X48732500Y-72732500D02*
X45465000Y-76000000D01*
X40870625Y-80594375D02*
X45465000Y-76000000D01*
X52045000Y-79500000D02*
X52045000Y-77040000D01*
X46616000Y-74849000D02*
X45465000Y-76000000D01*
X53085000Y-76000000D02*
X51934000Y-74849000D01*
X52045000Y-77040000D02*
X53085000Y-76000000D01*
X36075000Y-86505000D02*
X34040000Y-88540000D01*
X37225000Y-86505000D02*
X36075000Y-86505000D01*
%TO.N,DRV1*%
X62500000Y-58080000D02*
X59345000Y-58080000D01*
%TO.N,DRV2*%
X61885000Y-53000000D02*
X59315000Y-50430000D01*
X61349000Y-48396000D02*
X61349000Y-45151000D01*
X61349000Y-45151000D02*
X62500000Y-44000000D01*
X59315000Y-50430000D02*
X61349000Y-48396000D01*
%TO.N,Net-(U3-Pad13)*%
X50000000Y-59300000D02*
X47920000Y-61380000D01*
X50990000Y-55510000D02*
X50000000Y-56500000D01*
X51695000Y-55510000D02*
X50990000Y-55510000D01*
X50000000Y-56500000D02*
X50000000Y-59300000D01*
%TO.N,INT*%
X51695000Y-35305000D02*
X51695000Y-36305000D01*
X48130000Y-50430000D02*
X50000000Y-48560000D01*
X50000000Y-44505000D02*
X51695000Y-42810000D01*
X50000000Y-48560000D02*
X50000000Y-44505000D01*
X61230000Y-25770000D02*
X51695000Y-35305000D01*
X52580000Y-63500000D02*
X58080000Y-69000000D01*
X61230000Y-24315000D02*
X61230000Y-25770000D01*
X50000000Y-63500000D02*
X52580000Y-63500000D01*
X58000000Y-69080000D02*
X58080000Y-69000000D01*
X58000000Y-72000000D02*
X58000000Y-69080000D01*
%TO.N,POWER_GOOD*%
X55540000Y-61380000D02*
X55000000Y-60840000D01*
X55000000Y-48725000D02*
X51695000Y-45420000D01*
X49500000Y-34500000D02*
X55230000Y-28770000D01*
X55230000Y-28770000D02*
X55230000Y-24315000D01*
X55000000Y-60840000D02*
X55000000Y-48725000D01*
%TO.N,OCD_STATUS*%
X58230000Y-27270000D02*
X49500000Y-36000000D01*
X58230000Y-24315000D02*
X58230000Y-27270000D01*
%TO.N,Net-(U5-BAL)*%
X26230000Y-76315000D02*
X23690000Y-76315000D01*
%TO.N,Net-(U8-Pad3)*%
X51695000Y-47960000D02*
X51695000Y-50500000D01*
D46*
%TO.N,Net-(J8-Pin_1)*%
X25000000Y-50500000D02*
X30000000Y-45500000D01*
X24000000Y-50500000D02*
X25000000Y-50500000D01*
D44*
%TO.N,IS_RUNNING*%
X59315000Y-45350000D02*
X58000000Y-46665000D01*
X58000000Y-54195000D02*
X59315000Y-55510000D01*
X58000000Y-56825000D02*
X59315000Y-55510000D01*
X62500000Y-61000000D02*
X61500000Y-60000000D01*
X59067100Y-60000000D02*
X58000000Y-58932900D01*
X58000000Y-46665000D02*
X58000000Y-54195000D01*
X62500000Y-62000000D02*
X62500000Y-61000000D01*
X61500000Y-60000000D02*
X59067100Y-60000000D01*
X58000000Y-58932900D02*
X58000000Y-56825000D01*
D46*
%TO.N,Net-(J8-Pin_3)*%
X24080000Y-45420000D02*
X25500000Y-44000000D01*
X26000000Y-39000000D02*
X29500000Y-39000000D01*
X25500000Y-44000000D02*
X25500000Y-37500000D01*
X25500000Y-37500000D02*
X25500000Y-39500000D01*
X29500000Y-39000000D02*
X30000000Y-39500000D01*
X25500000Y-39500000D02*
X26000000Y-39000000D01*
X24000000Y-45420000D02*
X24080000Y-45420000D01*
D44*
%TO.N,OCD*%
X50670000Y-52970000D02*
X51695000Y-52970000D01*
X48130000Y-55510000D02*
X50670000Y-52970000D01*
%TO.N,Net-(J12-Pin_7)*%
X61230000Y-21775000D02*
X61230000Y-18695000D01*
%TO.N,Net-(J12-Pin_5)*%
X58230000Y-21775000D02*
X58230000Y-18315000D01*
D46*
%TO.N,Net-(J4-Pin_1)*%
X108935000Y-55000000D02*
X109000000Y-55065000D01*
X109000000Y-61285000D02*
X106785000Y-63500000D01*
X107275000Y-51500000D02*
X107500000Y-51500000D01*
X109000000Y-54935000D02*
X108935000Y-55000000D01*
X107500000Y-51500000D02*
X109000000Y-53000000D01*
X109000000Y-53000000D02*
X109000000Y-54935000D01*
X109000000Y-55065000D02*
X109000000Y-61285000D01*
D44*
%TO.N,Net-(J12-Pin_3)*%
X55230000Y-21775000D02*
X55230000Y-18775000D01*
%TO.N,Net-(D2-A)*%
X82632323Y-93505000D02*
X82632323Y-91585000D01*
X78127323Y-88545000D02*
X79592323Y-88545000D01*
X79592323Y-88545000D02*
X82132323Y-91085000D01*
X79632323Y-94005000D02*
X82132323Y-94005000D01*
X82132323Y-94005000D02*
X82632323Y-93505000D01*
D46*
%TO.N,Net-(Q3-D)*%
X77851667Y-51700000D02*
X104535000Y-51700000D01*
X104535000Y-51700000D02*
X104735000Y-51500000D01*
X103935000Y-52300000D02*
X103935000Y-55000000D01*
X103935000Y-55000000D02*
X103935000Y-58000000D01*
X104735000Y-51500000D02*
X103935000Y-52300000D01*
D44*
%TO.N,Net-(Q4-G)*%
X77851667Y-63410000D02*
X77851667Y-59651667D01*
X77741667Y-60200000D02*
X77741667Y-63300000D01*
X77851667Y-59651667D02*
X76040000Y-57840000D01*
X76040000Y-57840000D02*
X74000000Y-57840000D01*
%TO.N,Net-(Q8-G)*%
X75601000Y-23460667D02*
X77851667Y-21210000D01*
X74500000Y-28960000D02*
X75601000Y-27859000D01*
X75601000Y-27859000D02*
X75601000Y-23460667D01*
X77741667Y-18000000D02*
X77741667Y-21100000D01*
%TO.N,Net-(Q5-G)*%
X74501668Y-52760000D02*
X77851667Y-49410000D01*
X77741667Y-46200000D02*
X77741667Y-49300000D01*
D46*
%TO.N,Net-(Q6-D)*%
X103935000Y-29800000D02*
X103935000Y-24100000D01*
X77851667Y-23500000D02*
X98200000Y-23500000D01*
X103935000Y-24100000D02*
X104735000Y-23300000D01*
X104735000Y-23300000D02*
X98400000Y-23300000D01*
D44*
%TO.N,Net-(D4-A)*%
X65500000Y-63540000D02*
X60240000Y-63540000D01*
X70000000Y-65000000D02*
X67000000Y-65000000D01*
X67040000Y-66040000D02*
X67040000Y-67955000D01*
X60240000Y-63540000D02*
X58080000Y-61380000D01*
X67000000Y-65000000D02*
X65500000Y-63500000D01*
X67000000Y-66000000D02*
X67040000Y-66040000D01*
X67000000Y-65000000D02*
X67000000Y-66000000D01*
%TO.N,Net-(D12-A)*%
X93646667Y-31500000D02*
X93646667Y-28950000D01*
X87556667Y-18000000D02*
X82741667Y-18000000D01*
X90766667Y-21210000D02*
X87556667Y-18000000D01*
D46*
%TO.N,Net-(J11-Pin_2)*%
X77851667Y-37500000D02*
X98200000Y-37500000D01*
X106785000Y-37800000D02*
X98500000Y-37800000D01*
D44*
%TO.N,Net-(Q9-G)*%
X77741667Y-32000000D02*
X77741667Y-35100000D01*
X74500000Y-34040000D02*
X75701667Y-34040000D01*
X75701667Y-34040000D02*
X77741667Y-32000000D01*
D46*
%TO.N,Net-(J4-Pin_2)*%
X77851667Y-65700000D02*
X98200000Y-65700000D01*
X98500000Y-66000000D02*
X106785000Y-66000000D01*
D44*
%TO.N,SEL_DRV_2*%
X65500000Y-30340000D02*
X66880000Y-28960000D01*
X62500000Y-41460000D02*
X65500000Y-38460000D01*
X65500000Y-51380000D02*
X66880000Y-52760000D01*
X63651000Y-42611000D02*
X62500000Y-41460000D01*
X65040000Y-46540000D02*
X63651000Y-45151000D01*
X65500000Y-47000000D02*
X65500000Y-51380000D01*
X63651000Y-45151000D02*
X63651000Y-42611000D01*
X65500000Y-38460000D02*
X65500000Y-30340000D01*
%TO.N,SEL_DRV_1*%
X65000000Y-49500000D02*
X65000000Y-55960000D01*
X65000000Y-55960000D02*
X66880000Y-57840000D01*
X66880000Y-39620000D02*
X66880000Y-34040000D01*
X62500000Y-47000000D02*
X65000000Y-49500000D01*
X65040000Y-41460000D02*
X66880000Y-39620000D01*
D46*
%TO.N,Net-(J2-Pin_1)*%
X107000000Y-84500000D02*
X97042500Y-84500000D01*
X97042500Y-84500000D02*
X96042500Y-85500000D01*
X96042500Y-85500000D02*
X99540000Y-82002500D01*
X99540000Y-82002500D02*
X99540000Y-81010000D01*
%TD*%
M02*
